<?xml version="1.0" encoding="UTF-8"?>
<svg width="45px" height="46px" viewBox="0 0 45 46" version="1.1" xmlns="http://www.w3.org/2000/svg" xmlns:xlink="http://www.w3.org/1999/xlink">
    <!-- Generator: sketchtool 53.2 (72643) - https://sketchapp.com -->
    <title>4D4DF983-2C2C-4C1D-94C9-7311BB65B140</title>
    <desc>Created with sketchtool.</desc>
    <g id="Page-1" stroke="none" stroke-width="1" fill="none" fill-rule="evenodd">
        <g id="CONNEX-HOME-GRADIENT" transform="translate(-941.000000, -4521.000000)" fill-rule="nonzero">
            <g id="lets-talk" transform="translate(942.000000, 4521.000000)">
                <path d="M34.4546438,45.1282051 C32.671019,45.1282051 30.5168271,44.6811689 28.1492346,43.7870963 C22.954085,41.8287891 17.3032964,37.9583202 12.2364755,32.8909478 C7.16821268,27.8235754 3.29960696,22.1707297 1.34007093,16.9764566 C-0.442111951,12.2537348 -0.446437637,8.37605564 1.32565198,6.60377314 C1.58086749,6.3470878 1.84185058,6.07309783 2.11004315,5.79189759 C3.73073373,4.09027567 5.59222086,2.15792534 7.98432556,2.26031107 C9.65692438,2.32952959 11.2761731,3.36780737 12.9357948,5.42994242 C17.8324721,11.5240562 15.6263719,13.6957872 13.071333,16.2136109 L12.6200197,16.6606471 C12.20187,17.0788423 11.4102693,19.0155188 18.7624947,26.3671024 C21.1618089,28.7666777 23.2078586,30.5230976 24.8429682,31.5858903 C25.8739235,32.2564447 27.7123403,33.2673235 28.4678935,32.511688 L28.9220906,32.0531153 C31.4381983,29.5006824 33.609693,27.3001103 39.6988179,32.1958785 C41.7621704,33.8527968 42.7974514,35.4722217 42.8681042,37.1464447 C42.967595,39.5705349 41.0368969,41.4033836 39.3340183,43.0228085 C39.0542906,43.2895882 38.7788885,43.5491577 38.523673,43.804401 C37.6383491,44.685495 36.2310591,45.1282051 34.4546438,45.1282051 Z M7.81418188,3.69803739 C6.09111672,3.69803739 4.53386954,5.33620901 3.15685931,6.78547175 C2.88001536,7.07388225 2.6103809,7.35796659 2.34651401,7.62186219 C1.0257377,8.94134021 1.16127588,12.4138026 2.68968515,16.4674121 C4.5785683,21.4742183 8.33038049,26.9453654 13.2558956,31.8728587 C18.1814108,36.797468 23.6505205,40.5511306 28.6582237,42.4387773 C32.7142759,43.970237 36.1834765,44.1000217 37.5042529,42.7805437 C37.7681197,42.5166481 38.0507313,42.2484263 38.3405523,41.9715523 C39.821379,40.564109 41.4997454,38.970641 41.4262087,37.2012426 C41.3771843,35.9841504 40.4918604,34.6776508 38.7947494,33.3149112 C33.7192771,29.2353448 32.3018938,30.6745131 29.9487202,33.06111 L29.4873137,33.5268929 C28.3640771,34.6531359 26.5357535,34.4022188 24.0571351,32.7914462 C22.3383956,31.6738555 20.2130416,29.8525432 17.7430745,27.3823073 C11.6424145,21.2809833 9.69008798,17.5489515 11.6005996,15.6353478 L12.0591223,15.1811013 C14.4497851,12.8276716 15.8931226,11.4072499 11.8125582,6.32978317 C10.448525,4.6353715 9.14216767,3.74995128 7.92520784,3.69947945 C7.88771856,3.69803739 7.85022927,3.69803739 7.81418188,3.69803739 Z" id="Shape" stroke="#000000" stroke-width="0.66540283" fill="#121212"></path>
                <path d="M25.7794535,1.91788129 C34.778976,1.92788313 42.0720045,9.221024 42.0821187,18.2205465 C42.0821187,18.7501946 42.5114113,19.1794872 43.0410594,19.1794872 C43.5707075,19.1794872 44,18.7501946 44,18.2205465 C43.9888744,8.16217732 35.8378227,0.0110132642 25.7794535,0 C25.2498054,0 24.8205128,0.429292542 24.8205128,0.958940645 C24.8205128,1.48858875 25.2498054,1.91788129 25.7794535,1.91788129 Z" id="Path" fill="#000000"></path>
                <path d="M25.7875134,7.57502682 C31.6595517,7.58193963 36.4180604,12.3404483 36.4249732,18.2124866 C36.4249732,18.7465864 36.8579873,19.1794872 37.3919738,19.1794872 C37.9260736,19.1794872 38.3589744,18.7465864 38.3589744,18.2124866 C38.3509283,11.272702 32.7271847,5.64895838 25.7875134,5.64102564 C25.2534136,5.64102564 24.8205128,6.07392641 24.8205128,6.60802623 C24.8205128,7.14212605 25.2534136,7.57502682 25.7875134,7.57502682 Z" id="Path" fill="#000000"></path>
                <path d="M25.8076634,13.2563524 C28.5323054,13.2595916 30.7402927,15.4675789 30.7436476,18.1923366 C30.7436476,18.7375658 31.1856847,19.1794872 31.7307982,19.1794872 C32.2759116,19.1794872 32.7179487,18.7375658 32.7179487,18.1923366 C32.7135526,14.377699 29.622301,11.2863317 25.8076634,11.2820513 C25.2624342,11.2820513 24.8205128,11.7239727 24.8205128,12.2692018 C24.8205128,12.814431 25.2624342,13.2563524 25.8076634,13.2563524 Z" id="Path" fill="#000000"></path>
            </g>
        </g>
    </g>
</svg>