<?xml version="1.0" encoding="UTF-8"?>
<svg width="66px" height="73px" viewBox="0 0 66 73" version="1.1" xmlns="http://www.w3.org/2000/svg" xmlns:xlink="http://www.w3.org/1999/xlink">
    <!-- Generator: sketchtool 53.2 (72643) - https://sketchapp.com -->
    <title>EC24B4CD-4624-4276-8429-DEBF121A183D</title>
    <desc>Created with sketchtool.</desc>
    <g id="Page-1" stroke="none" stroke-width="1" fill="none" fill-rule="evenodd">
        <g id="CONNEX-HOME-GRADIENT" transform="translate(-450.000000, -1590.000000)" fill="#6635FF" fill-rule="nonzero" stroke="#6635FF" stroke-width="0.5">
            <g id="SOLUTIONS" transform="translate(304.000000, 1447.000000)">
                <g id="Customer" transform="translate(0.000000, 144.000000)">
                    <g id="social-engagement-customer-service-seo-care-talking-6" transform="translate(147.000000, 0.000000)">
                        <path d="M32.0000813,2.69058849e-13 C27.1416427,2.69058849e-13 22.2793191,1.20984 17.926043,3.69791667 C9.36742777,8.58958 4.03073971,17.59948 3.85200475,27.3645833 C3.84702699,27.62397 3.85271112,28.4750233 3.85200475,29.5092567 C3.85168949,29.9728867 3.85194549,30.0945333 3.85200475,30.4708333 L1.18534486,30.4708333 C1.11148431,30.4708333 1.03698376,30.4708333 0.963123207,30.4708333 C0.419833329,30.5749667 -0.00958424621,31.1020233 0.000162691972,31.6541667 L0.000162691972,35.5 L0.000162691972,38.0145833 L0.000162691972,41.8604167 C0.000224321445,42.48001 0.564802442,43.04375 1.18534486,43.04375 L5.03718692,43.04375 C6.51695561,43.04375 7.81836622,42.6257967 8.74088121,41.7125 C9.10988768,41.3470867 9.41804927,40.9331567 9.62976784,40.45509 L11.481615,40.45509 C13.5348412,40.45509 15.1853093,38.8059967 15.1853093,36.7571733 C15.1853093,34.7085867 13.5348412,32.9854167 11.481615,32.9854167 L9.48162007,32.9854167 C9.27978355,32.5778767 9.06375328,32.12182 8.74088121,31.8020833 C8.0805143,31.14841 7.19752751,30.7193333 6.2223691,30.5446733 C6.22229087,30.1534633 6.22202776,30.0083867 6.2223691,29.5092567 C6.2230731,28.4754967 6.22418006,27.2684967 6.2223691,27.3645833 C6.38585313,18.43302 11.268716,10.25098 19.1112252,5.76875 C27.0892672,1.20913 36.9108955,1.20913 44.8889375,5.76875 C52.6304123,10.1929967 57.4968485,18.27114 57.7777936,27.06875 C57.7822973,27.21785 57.7793201,27.6116633 57.7777936,27.95625 C54.6440558,28.1100833 52.0741044,30.6476233 52.0741044,33.79884 L52.0741044,39.6416667 C52.0741044,42.3538667 53.9917078,44.6464567 56.5185375,45.33634 C56.3353558,55.81239 48.3998714,63.00398 38.0000661,65.4530067 L38.0000661,64.7134233 C38.0000045,64.0940667 37.4354263,63.5303267 36.8148839,63.53009 L35.0371107,63.53009 L33.2593374,63.53009 L31.555638,63.53009 C30.6078976,63.53009 29.7399769,64.0954867 29.2593476,64.7875 C28.7787183,65.4795133 28.5926826,66.3038233 28.5926826,67.2280067 C28.5926826,68.1526633 28.7786851,69.0505767 29.2593476,69.74259 C29.7400053,70.4346033 30.6079924,71 31.555638,71 L33.2593374,71 L35.0371107,71 L36.8148839,71 C37.4354263,71 38.0000045,70.43626 38.0000661,69.8166667 L38.0000661,67.89375 C49.4026208,65.3763267 58.6253458,57.25298 58.8889019,45.4842567 C61.7681977,45.0812133 64,42.6151467 64,39.6416667 L64,33.79884 C64,31.2778667 62.3896954,29.1530733 60.1481579,28.3259233 C60.1491369,28.0005067 60.1583505,27.3155933 60.1481579,26.9946733 C59.8409777,17.37583 54.5225367,8.52639 46.0741196,3.69791667 C41.7208436,1.20984 36.85852,0 32.0000813,0 L32.0000813,2.69058849e-13 Z M58.0740891,30.3229167 C60.0810766,30.3229167 61.6296357,31.82859 61.6296357,33.79884 L61.6296357,39.6416667 C61.6296357,41.6121533 60.0811477,43.1916667 58.0740891,43.1916667 C56.0670305,43.1916667 54.4444687,41.6121533 54.4444687,39.6416667 L54.4444687,33.79884 C54.4444687,31.82859 56.0671016,30.3229167 58.0740891,30.3229167 Z M2.37052704,32.8375 L4.81496527,32.8375 C4.96178782,32.8654797 5.11258602,32.8654797 5.25940858,32.8375 C6.18912948,32.873 6.77955879,33.1011467 7.11125573,33.4291667 C7.47270784,33.7870067 7.70384681,34.4281367 7.70384681,35.5 L7.70384681,38.0145833 C7.70384681,39.0866833 7.47268888,39.6539733 7.11125573,40.01134 C6.74982968,40.36918 6.12529557,40.6770833 5.03718692,40.6770833 L2.37052704,40.6770833 L2.37052704,38.0145833 L2.37052704,35.5 L2.37052704,32.8375 L2.37052704,32.8375 Z M10.0742112,35.3520833 L11.481615,35.3520833 C12.2736438,35.3520833 12.8149449,35.9894267 12.8149449,36.7571733 C12.8149449,37.5251567 12.2736438,38.0884233 11.481615,38.0884233 L10.0742112,38.0884233 C10.0744387,38.0647567 10.0742112,38.0387233 10.0742112,38.0150567 L10.0742112,35.5004733 C10.0742112,35.4484067 10.0752541,35.40344 10.0742112,35.35374 L10.0742112,35.3520833 Z M17.4075258,42.6 C16.9179911,42.7609333 16.5671629,43.26953 16.5927131,43.7833333 L16.5927131,60.35 C16.5927747,60.9695933 17.1573529,61.5333333 17.7778953,61.5333333 L21.3334418,61.5333333 L21.3334418,65.0833333 C21.3601084,65.9571067 22.5761503,66.5175333 23.2593628,65.9708333 L28.5926826,61.5333333 L41.4815387,61.5333333 C42.1020811,61.5333333 42.6666593,60.9695933 42.6667209,60.35 L42.6667209,43.7833333 C42.6666593,43.16374 42.1020811,42.6 41.4815387,42.6 L17.7778953,42.6 C17.6554423,42.5763333 17.529967,42.5763333 17.4075258,42.6 Z M18.9630774,44.9666667 L40.2963566,44.9666667 L40.2963566,59.1666667 L28.2223132,59.1666667 C27.9599423,59.1666667 27.6947151,59.2353 27.4815743,59.3891333 L23.7038061,62.4953833 L23.7038061,60.35071 C23.7037445,59.7311167 23.1391664,59.1673767 22.518624,59.1673767 L18.9630774,59.1673767 L18.9630774,44.9673767 L18.9630774,44.9666667 Z M24.8889883,50.8833333 C24.2344122,50.8833333 23.7038061,51.41323 23.7038061,52.0666667 C23.7038061,52.72034 24.2344122,53.25 24.8889883,53.25 C25.5435644,53.25 26.0741705,52.72034 26.0741705,52.0666667 C26.0741705,51.41323 25.5435644,50.8833333 24.8889883,50.8833333 Z M29.629717,50.8833333 C28.9751409,50.8833333 28.4445348,51.41323 28.4445348,52.0666667 C28.4445348,52.72034 28.9751409,53.25 29.629717,53.25 C30.2842931,53.25 30.8148992,52.72034 30.8148992,52.0666667 C30.8148992,51.41323 30.2842931,50.8833333 29.629717,50.8833333 Z M34.3704457,50.8833333 C33.7158696,50.8833333 33.1852635,51.41323 33.1852635,52.0666667 C33.1852635,52.72034 33.7158696,53.25 34.3704457,53.25 C35.0250218,53.25 35.5556279,52.72034 35.5556279,52.0666667 C35.5556279,51.41323 35.0250218,50.8833333 34.3704457,50.8833333 Z M31.4815641,65.8967567 C31.5321477,65.8707233 31.5404914,65.8967567 31.555638,65.8967567 L33.2593374,65.8967567 L35.0371107,65.8967567 L35.6297017,65.8967567 L35.6297017,66.63634 C35.602164,66.782979 35.602164,66.933451 35.6297017,67.08009 L35.6297017,67.2268233 L35.6297017,68.63215 L35.0371107,68.63215 L33.2593374,68.63215 L31.555638,68.63215 C31.52525,68.63215 31.4168769,68.5635167 31.2593425,68.3363167 C31.1018081,68.1091167 30.9630469,67.7110433 30.9630469,67.2268233 C30.9630469,66.7433133 31.1017607,66.34453 31.2593425,66.1175667 C31.3381334,66.0039667 31.4309806,65.9235 31.4815641,65.8951 L31.4815641,65.8967567 Z" id="Shape"></path>
                    </g>
                </g>
            </g>
        </g>
    </g>
</svg>