<?xml version="1.0" encoding="utf-8"?>
<!-- Generator: Adobe Illustrator 23.0.2, SVG Export Plug-In . SVG Version: 6.00 Build 0)  -->
<svg version="1.1" id="Layer_1" xmlns="http://www.w3.org/2000/svg" xmlns:xlink="http://www.w3.org/1999/xlink" x="0px" y="0px"
	 viewBox="0 0 86.3 41.7" style="enable-background:new 0 0 86.3 41.7;" xml:space="preserve">
<style type="text/css">
	.st0{fill:url(#SVGID_1_);}
</style>
<g>
	
		<linearGradient id="SVGID_1_" gradientUnits="userSpaceOnUse" x1="0" y1="760.4569" x2="86.3425" y2="760.4569" gradientTransform="matrix(1 0 0 1 0 -739.6)">
		<stop  offset="0" style="stop-color:#793089"/>
		<stop  offset="1" style="stop-color:#EE2E72"/>
	</linearGradient>
	<path class="st0" d="M66.1,0C57.9-0.3,50.7,4.3,47,11c-1.9,3.5-5.5,5.7-9.5,5.7l0,0c-3.6,0-6.9-1.9-9-4.8
		c-2.9-4.2-7.8-6.8-13.3-6.7C7.1,5.5,0.4,12.2,0,20.3c-0.4,8.9,6.8,16.3,15.7,16.3c5.3,0,10-2.7,12.9-6.8c2-2.9,5.4-4.8,8.9-4.8l0,0
		c3.9,0,7.6,2.1,9.4,5.5c3.5,6.7,10.5,11.2,18.5,11.2c11.9,0,21.5-9.9,20.9-21.9C85.8,9.1,76.9,0.3,66.1,0z M15.6,28.2
		c-4,0-7.3-3.3-7.3-7.3s3.3-7.3,7.3-7.3s7.3,3.3,7.3,7.3C23,24.9,19.7,28.2,15.6,28.2z M65.4,33.4c-6.9,0-12.6-5.6-12.6-12.6
		c0-6.9,5.6-12.6,12.6-12.6c6.9,0,12.6,5.6,12.6,12.6S72.4,33.4,65.4,33.4z"/>
</g>
</svg>
