<?xml version="1.0" encoding="UTF-8"?>
<svg width="19px" height="26px" viewBox="0 0 19 26" version="1.1" xmlns="http://www.w3.org/2000/svg" xmlns:xlink="http://www.w3.org/1999/xlink">
    <!-- Generator: sketchtool 53.2 (72643) - https://sketchapp.com -->
    <title>03FFA4C3-8432-4C80-9DFC-75A88F061D84</title>
    <desc>Created with sketchtool.</desc>
    <g id="Page-1" stroke="none" stroke-width="1" fill="none" fill-rule="evenodd">
        <g id="CONNEX-SOLUTIONS-V2" transform="translate(-786.000000, -4146.000000)" fill="#FFFFFF" fill-rule="nonzero">
            <g id="footer" transform="translate(0.000000, 3833.000000)">
                <g id="FOOTER">
                    <path d="M795.5,313 C790.277809,313 786.029266,317.224086 786.029266,322.416164 C786.029266,328.859695 794.504645,338.319176 794.865492,338.718723 C795.204427,339.094047 795.796185,339.093387 796.134508,338.718723 C796.495355,338.319176 804.970734,328.859695 804.970734,322.416164 C804.970632,317.224086 800.72214,313 795.5,313 Z M795.5,327.153699 C792.872586,327.153699 790.735086,325.028453 790.735086,322.416164 C790.735086,319.803875 792.872637,317.67868 795.5,317.67868 C798.127363,317.67868 800.264863,319.803926 800.264863,322.416215 C800.264863,325.028504 798.127363,327.153699 795.5,327.153699 Z" id="pin"></path>
                </g>
            </g>
        </g>
    </g>
</svg>