<?xml version="1.0" encoding="UTF-8"?>
<svg width="275px" height="546px" viewBox="0 0 275 546" version="1.1" xmlns="http://www.w3.org/2000/svg" xmlns:xlink="http://www.w3.org/1999/xlink">
    <!-- Generator: Sketch 53.2 (72643) - https://sketchapp.com -->
    <title>hero shape</title>
    <desc>Created with Sketch.</desc>
    <defs>
        <path d="M421.64262,183.333682 L654.063094,414.078001 C771.878397,519.065941 827.022672,589.009009 819.49592,623.907207 C808.205792,676.254505 551.051358,802.767302 535.751385,787.391815 C524.895826,776.482679 514.103943,773.076669 504.521323,770.831714 C494.938704,768.586759 418.477894,770.504415 354.276396,768.432209 C337.539418,767.891996 317.109562,767.328435 294.672795,766.843869 C221.955752,765.273404 108.397241,777.997234 124.500787,692.104506 C140.604333,606.211777 166.749625,471.01527 180.384286,397.06632 C197.107147,306.368217 230.09752,235.589253 279.355406,184.729429 L279.355405,184.729429 C317.778056,145.057217 381.086451,144.044248 420.758662,182.466899 C421.055101,182.754 421.349759,183.042933 421.64262,183.333682 Z" id="path-1"></path>
        <path d="M490.135288,370.752935 L637.657695,517.211449 C723.459277,593.671222 763.619307,644.608798 758.137784,670.024178 C749.9155,708.147247 562.637135,800.282971 551.494593,789.085434 C543.588795,781.140616 535.729368,778.660115 528.750615,777.025177 C521.771862,775.390239 466.087598,776.786815 419.331447,775.277685 C407.142375,774.884263 392.263883,774.473837 375.923815,774.120942 C322.966031,772.977216 240.264551,782.243624 251.992312,719.690358 C263.720073,657.137092 282.760956,558.677266 292.690698,504.822319 C301.060164,459.429685 315.024653,420.888009 334.584166,389.197293 L334.584166,389.197293 C363.591129,342.199627 425.205054,327.615281 472.20272,356.622244 C478.7001,360.632427 484.716826,365.37355 490.135288,370.752935 Z" id="path-3"></path>
    </defs>
    <g id="DESIGN" stroke="none" stroke-width="1" fill="none" fill-rule="evenodd">
        <g id="CONNEX-SOLUTIONS-2" transform="translate(-1165.000000, -474.000000)">
            <g id="hero-shape" transform="translate(1122.000000, 261.000000)">
                <mask id="mask-2" fill="white">
                    <use xlink:href="#path-1"></use>
                </mask>
                <use id="Mask" fill="#0B7CFE" transform="translate(471.565560, 471.488908) rotate(-315.000000) translate(-471.565560, -471.488908) " xlink:href="#path-1"></use>
                <mask id="mask-4" fill="white">
                    <use xlink:href="#path-3"></use>
                </mask>
                <use id="Mask-Copy-3" fill="#0672EE" transform="translate(504.749857, 565.863664) rotate(-315.000000) translate(-504.749857, -565.863664) " xlink:href="#path-3"></use>
            </g>
        </g>
    </g>
</svg>