<?xml version="1.0" encoding="UTF-8"?>
<svg width="158px" height="223px" viewBox="0 0 158 223" version="1.1" xmlns="http://www.w3.org/2000/svg" xmlns:xlink="http://www.w3.org/1999/xlink">
    <!-- Generator: Sketch 53.2 (72643) - https://sketchapp.com -->
    <title>Group 8</title>
    <desc>Created with Sketch.</desc>
    <g id="DESIGN" stroke="none" stroke-width="1" fill="none" fill-rule="evenodd">
        <g id="CONNEX-BLOG-POST" transform="translate(-1282.000000, -256.000000)">
            <g id="Group-8" transform="translate(1282.623477, 256.470982)">
                <path d="M182.018126,9.55733991 L265.805849,79.3612048 C283.309249,93.9433522 285.677391,119.953827 271.095244,137.457226 C269.912918,138.876409 268.636602,140.214573 267.274913,141.462683 L190.550198,211.787798 C179.89221,221.556804 164.89767,225.032907 151.028448,220.949912 L29.6114037,185.205642 C7.75700809,178.771871 -4.74387836,155.839781 1.68989231,133.985386 C3.81795908,126.756715 7.88546127,120.249065 13.4508678,115.168847 L127.804904,10.7841374 C143.030601,-3.11419113 166.179322,-3.63802633 182.018126,9.55733991 L182.018126,9.55733991 Z" id="Mask" fill="#693AF9"></path>
                <path d="M214.792291,62.1011541 L251.470685,92.6833789 C268.968143,107.272655 271.325691,133.284092 256.736415,150.78155 C255.556228,152.196992 254.282512,153.531753 252.923829,154.776861 L217.584673,187.161939 C206.909123,196.945096 191.885577,200.414239 178.001447,196.302249 L124.899123,180.575212 C103.055244,174.105825 90.5917555,151.153388 97.0611425,129.309509 C99.1949309,122.104774 103.256142,115.619727 108.806332,110.554488 L160.569419,63.3142218 C175.800081,49.4143445 198.955245,48.8963199 214.792291,62.1011541 Z" id="Mask" fill="#6132F2"></path>
            </g>
        </g>
    </g>
</svg>