<?xml version="1.0" encoding="UTF-8"?>
<svg width="278px" height="486px" viewBox="0 0 278 486" version="1.1" xmlns="http://www.w3.org/2000/svg" xmlns:xlink="http://www.w3.org/1999/xlink">
    <!-- Generator: Sketch 53.2 (72643) - https://sketchapp.com -->
    <title>shapes</title>
    <desc>Created with Sketch.</desc>
    <g id="DESIGN" stroke="none" stroke-width="1" fill="none" fill-rule="evenodd">
        <g id="CONNEX-BLOG-LISTING" transform="translate(-1162.000000, -302.000000)">
            <g id="HERO" transform="translate(395.962824, 98.000000)">
                <g id="shapes" transform="translate(1101.553964, 570.709955) scale(-1, 1) rotate(-345.000000) translate(-1101.553964, -570.709955) translate(764.053964, 193.709955)">
                    <path d="M310.280767,697.129466 C303.621983,697.133293 296.254863,697.225294 283.861217,697.341796 C283.605542,610.284858 283.191188,377.946224 282.618154,0.325892703 C431.940857,80.2803229 523.14787,129.299782 556.239195,147.384269 C605.876181,174.511 654.82492,189.996979 643.160459,257.151041 C631.495999,324.305102 440.304971,453.182481 344.171414,546.900383 C314.424109,575.900194 310.242205,615.829348 310.262804,628.612109 C310.310109,657.967904 310.277292,682.156455 310.280767,697.129466 Z" id="Path" fill="#693AF9"></path>
                    <path d="M275.980066,589.494308 C270.911769,589.959901 265.309953,590.542239 255.883609,591.492592 C250.107252,524.83818 229.437563,326.563144 193.874542,-3.33251571 C321.251032,67.9228382 396.59872,109.500849 419.917605,121.401517 C454.895934,139.25252 503.010156,156.505614 496.593473,200.657547 C490.176789,244.809479 359.311172,393.634287 292.14491,472.087244 C271.361166,496.363512 270.738076,527.233646 271.573335,537.021837 C273.491519,559.500557 275.017412,578.027534 275.980066,589.494308 Z" id="Path" fill="#5E2FF0" opacity="0.700195312"></path>
                </g>
            </g>
        </g>
    </g>
</svg>