<?xml version="1.0" encoding="UTF-8"?>
<svg width="23px" height="23px" viewBox="0 0 23 23" version="1.1" xmlns="http://www.w3.org/2000/svg" xmlns:xlink="http://www.w3.org/1999/xlink">
    <!-- Generator: Sketch 53.2 (72643) - https://sketchapp.com -->
    <title>linkedin</title>
    <desc>Created with Sketch.</desc>
    <g id="DESIGN" stroke="none" stroke-width="1" fill="none" fill-rule="evenodd">
        <g id="CONNEX-BLOG-POST" transform="translate(-417.000000, -689.000000)" fill="#0B7CFE" fill-rule="nonzero">
            <g id="Group-4" transform="translate(417.000000, 657.000000)">
                <g id="Group" transform="translate(0.000000, 32.000000)">
                    <path d="M19.6308594,0 L3.36914062,0 C1.51155093,0 0,1.51155093 0,3.36914062 L0,19.6308594 C0,21.4884491 1.51155093,23 3.36914062,23 L19.6308594,23 C21.4884491,23 23,21.4884491 23,19.6308594 L23,3.36914062 C23,1.51155093 21.4884491,0 19.6308594,0 Z M8.13085938,18.2382812 L5.43554688,18.2382812 L5.43554688,8.8046875 L8.13085938,8.8046875 L8.13085938,18.2382812 Z M8.13085938,7.45703125 L5.43554688,7.45703125 L5.43554688,4.76171875 L8.13085938,4.76171875 L8.13085938,7.45703125 Z M17.5644531,18.2382812 L14.8691406,18.2382812 L14.8691406,12.8476562 C14.8691406,12.1046906 14.2644501,11.5 13.5214844,11.5 C12.7785187,11.5 12.1738281,12.1046906 12.1738281,12.8476562 L12.1738281,18.2382812 L9.47851562,18.2382812 L9.47851562,8.8046875 L12.1738281,8.8046875 L12.1738281,9.31269075 C12.8799438,9.09317017 13.3386383,8.8046875 14.1953125,8.8046875 C16.0232468,8.80661775 17.5644531,10.4464417 17.5644531,12.3843994 L17.5644531,18.2382812 Z" id="linkedin"></path>
                </g>
            </g>
        </g>
    </g>
</svg>