<?xml version="1.0" encoding="UTF-8"?>
<svg width="589px" height="1239px" viewBox="0 0 589 1239" version="1.1" xmlns="http://www.w3.org/2000/svg" xmlns:xlink="http://www.w3.org/1999/xlink">
    <!-- Generator: Sketch 53.2 (72643) - https://sketchapp.com -->
    <title>Mask</title>
    <desc>Created with Sketch.</desc>
    <defs>
        <linearGradient x1="0%" y1="55.3235943%" x2="42.8768647%" y2="46.6346032%" id="linearGradient-1">
            <stop stop-color="#D5F1FF" offset="0%"></stop>
            <stop stop-color="#F4FBFF" offset="100%"></stop>
        </linearGradient>
        <linearGradient x1="11.9475554%" y1="58.1981352%" x2="60.9472052%" y2="62.1136732%" id="linearGradient-2">
            <stop stop-color="#FFFFFF" stop-opacity="0" offset="0%"></stop>
            <stop stop-color="#F4FBFF" offset="100%"></stop>
        </linearGradient>
        <path d="M1324.45701,512.497514 C1640.99799,437.530042 2060.79569,400.017604 2583.85011,399.960199 L2583.85011,399.960201 C2628.03289,399.955352 2663.85404,435.76864 2663.85889,479.951419 C2663.86151,503.86015 2653.17051,526.5169 2634.71436,541.715525 L1575.09556,1414.31101 C1547.22432,1437.26296 1509.14503,1443.40856 1475.46848,1430.38978 C1393.49944,1398.70194 1293.42224,1360.15595 1175.23687,1314.75183 C956.535959,1230.73192 768.013251,1202.80098 749.678902,1009.87348 C738.287237,890.002012 871.020097,629.387809 1147.87748,228.030876 C1197.51845,433.798614 1256.37829,528.620827 1324.45701,512.497514 Z" id="path-3"></path>
    </defs>
    <g id="DESIGN" stroke="none" stroke-width="1" fill="none" fill-rule="evenodd">
        <g id="CONNEX-OUR-EDGE" transform="translate(-851.000000, -328.000000)">
            <g id="OUR-EDGE" transform="translate(119.000000, 222.000000)">
                <mask id="mask-4" fill="white">
                    <use xlink:href="#path-3"></use>
                </mask>
                <g id="Mask" opacity="0.571661086" transform="translate(1706.431243, 832.574520) rotate(-345.000000) translate(-1706.431243, -832.574520) ">
                    <use fill="url(#linearGradient-1)" xlink:href="#path-3"></use>
                    <use fill-opacity="0.5" fill="url(#linearGradient-2)" xlink:href="#path-3"></use>
                </g>
            </g>
        </g>
    </g>
</svg>