<?xml version="1.0" encoding="UTF-8"?>
<svg width="236px" height="330px" viewBox="0 0 236 330" version="1.1" xmlns="http://www.w3.org/2000/svg" xmlns:xlink="http://www.w3.org/1999/xlink">
    <!-- Generator: Sketch 53.2 (72643) - https://sketchapp.com -->
    <title>Group 4</title>
    <desc>Created with Sketch.</desc>
    <defs>
        <path d="M6.60766451,199.101316 L72.063659,48.1761937 C87.0338127,13.6587702 124.033122,-5.76279996 160.945296,1.52070214 L261.9072,21.4424827 C305.254179,29.9956988 333.460096,72.0691195 324.90688,115.416098 C321.835762,130.980267 314.206509,145.279938 302.988775,156.497673 L154.086206,305.400242 C122.950273,336.536174 72.4689518,336.536174 41.333019,305.400242 L23.4337916,287.501014 C0.213434917,264.280658 -6.45844535,229.228491 6.60766451,199.101316 Z" id="path-1"></path>
    </defs>
    <g id="DESIGN" stroke="none" stroke-width="1" fill="none" fill-rule="evenodd">
        <g id="CONNEX-ABOUT-US-ALTERNATIVE" transform="translate(-1204.000000, -545.000000)">
            <g id="HERO" transform="translate(-419.000000, -8.025107)">
                <g id="Group-4" transform="translate(1623.309724, 553.885489)">
                    <mask id="mask-2" fill="white">
                        <use xlink:href="#path-1"></use>
                    </mask>
                    <use id="Mask" fill="#FFD002" xlink:href="#path-1"></use>
                    <path d="M125.818717,161.868152 L170.151583,59.6476717 C185.121736,25.1302481 222.121045,5.70867801 259.03322,12.9921801 L322.2909,25.4741716 C359.563245,32.8287424 383.816393,69.0060056 376.461822,106.27835 C373.82109,119.661361 367.260999,131.95708 357.615315,141.602765 L241.612565,257.605514 C216.309623,282.908456 175.285449,282.908456 149.982507,257.605514 L142.644844,250.267851 C119.424487,227.047494 112.752607,191.995328 125.818717,161.868152 Z" id="Rectangle" fill="#FDC701" mask="url(#mask-2)"></path>
                </g>
            </g>
        </g>
    </g>
</svg>