<?xml version="1.0" standalone="no"?>
<!DOCTYPE svg PUBLIC "-//W3C//DTD SVG 20010904//EN"
 "http://www.w3.org/TR/2001/REC-SVG-20010904/DTD/svg10.dtd">
<svg version="1.0" xmlns="http://www.w3.org/2000/svg"
 width="1376.000000pt" height="1376.000000pt" viewBox="0 0 1376.000000 1376.000000"
 preserveAspectRatio="xMidYMid meet">
<metadata>
Created by potrace 1.11, written by Peter Selinger 2001-2013
</metadata>
<g transform="translate(0.000000,1376.000000) scale(0.100000,-0.100000)"
fill="#000000" stroke="none">
<path d="M10179 10196 c-2 -3 -38 -7 -79 -10 -72 -6 -90 -8 -170 -22 -19 -3
-51 -8 -70 -10 -19 -3 -63 -11 -96 -19 -34 -8 -73 -16 -85 -19 -246 -45 -649
-208 -934 -377 -133 -80 -139 -83 -145 -89 -15 -15 -71 -50 -80 -50 -5 0 -10
-4 -10 -9 0 -4 -17 -20 -37 -33 -138 -91 -422 -351 -558 -512 -27 -32 -55 -64
-61 -70 -55 -58 -284 -386 -284 -406 0 -5 -4 -10 -9 -10 -5 0 -11 -8 -14 -17
-3 -10 -20 -40 -36 -68 -17 -27 -40 -67 -51 -88 -71 -130 -221 -309 -368 -439
-54 -47 -211 -158 -257 -180 -25 -12 -45 -26 -45 -30 0 -4 -5 -8 -11 -8 -6 0
-43 -15 -82 -34 -78 -36 -263 -101 -317 -111 -18 -3 -36 -8 -39 -10 -4 -2 -27
-6 -51 -9 -25 -3 -54 -7 -65 -10 -83 -17 -313 -24 -390 -12 -22 3 -60 8 -85
11 -54 6 -61 7 -170 33 -163 39 -409 146 -522 228 -27 19 -51 34 -54 34 -3 0
-47 33 -97 74 -124 100 -300 279 -313 319 -3 9 -9 17 -13 17 -4 0 -34 37 -66
83 -33 45 -68 91 -78 102 -11 11 -31 36 -46 55 -36 47 -204 214 -276 275 -33
27 -62 52 -65 55 -3 3 -27 22 -55 41 -206 148 -352 230 -560 314 -153 62 -397
131 -528 150 -27 3 -56 8 -65 10 -142 26 -605 26 -692 0 -8 -2 -33 -7 -55 -11
-22 -3 -60 -10 -85 -16 -25 -5 -53 -11 -63 -13 -97 -20 -299 -87 -395 -131
-28 -13 -53 -23 -55 -23 -13 7 -377 -204 -385 -223 -2 -5 -8 -8 -13 -8 -6 0
-15 -5 -22 -10 -7 -6 -41 -33 -77 -61 -36 -27 -87 -69 -114 -92 -52 -44 -246
-235 -246 -242 0 -3 -12 -17 -28 -33 -101 -108 -342 -472 -342 -517 0 -7 -7
-18 -15 -25 -8 -7 -15 -17 -15 -22 0 -9 -41 -105 -61 -140 -5 -10 -9 -23 -9
-30 0 -7 -6 -24 -13 -38 -13 -25 -66 -184 -72 -217 -2 -10 -4 -18 -5 -18 -1 0
-4 -11 -6 -25 -3 -14 -9 -42 -15 -63 -5 -21 -12 -50 -14 -65 -5 -32 -14 -79
-20 -107 -20 -94 -29 -512 -12 -640 12 -100 38 -247 54 -305 8 -30 16 -63 18
-73 8 -35 85 -255 106 -303 12 -27 23 -51 24 -54 3 -13 60 -128 74 -149 8 -13
16 -31 17 -39 2 -8 12 -24 23 -36 12 -12 21 -26 21 -30 0 -22 145 -226 243
-341 62 -72 297 -305 308 -305 3 0 22 -14 40 -30 19 -17 52 -42 74 -57 22 -16
42 -30 45 -33 26 -27 214 -138 327 -194 183 -91 462 -188 612 -212 18 -3 43
-8 55 -10 210 -41 591 -51 766 -20 22 4 41 7 130 21 14 3 36 7 50 10 14 4 37
8 52 11 14 3 73 19 130 35 56 17 108 32 113 33 6 2 24 9 40 15 17 7 35 14 40
15 6 1 32 12 59 24 27 12 51 22 53 22 7 0 198 93 203 99 3 3 23 15 44 26 53
27 230 145 234 156 2 5 8 7 13 3 5 -3 9 -1 9 4 0 6 13 18 29 29 38 23 106 81
193 163 39 36 74 67 79 68 5 2 9 7 9 12 0 4 19 28 43 52 66 69 124 140 225
276 51 68 99 130 105 137 7 6 31 32 53 57 59 64 198 185 274 239 60 43 246
153 259 154 3 1 29 11 56 24 62 28 204 78 265 92 25 6 53 13 63 15 39 9 54 12
102 18 28 4 66 9 85 11 48 7 279 6 310 0 14 -3 45 -7 70 -10 93 -10 136 -19
235 -47 85 -24 205 -67 223 -81 6 -5 12 -7 12 -4 0 16 329 -174 350 -202 3 -4
25 -22 50 -41 78 -60 217 -210 282 -302 61 -86 80 -117 138 -223 15 -27 41
-73 59 -101 17 -28 31 -56 31 -63 0 -6 3 -11 8 -11 4 0 21 -23 37 -51 17 -28
40 -64 53 -79 12 -15 22 -33 22 -39 0 -6 4 -11 8 -11 4 0 15 -12 24 -28 10
-15 28 -40 42 -57 27 -32 30 -35 62 -77 132 -170 438 -462 606 -579 114 -79
248 -169 252 -169 2 0 33 -17 67 -38 35 -21 96 -54 134 -73 39 -19 72 -37 75
-40 3 -3 32 -16 65 -29 33 -13 62 -26 65 -30 3 -3 25 -12 50 -20 25 -8 60 -22
78 -32 17 -10 32 -16 32 -14 0 2 30 -8 68 -21 56 -21 158 -51 222 -67 8 -3 27
-9 41 -14 15 -6 29 -8 32 -6 3 3 15 1 26 -6 12 -6 38 -13 58 -15 21 -3 61 -10
88 -16 86 -18 96 -20 139 -23 22 -2 52 -6 66 -9 63 -14 184 -21 405 -21 244
-1 329 5 490 30 50 8 104 16 120 18 26 4 52 9 155 31 61 12 283 77 346 101 38
14 74 27 79 28 6 2 21 8 35 13 14 6 48 20 75 31 79 32 289 133 295 142 3 5 17
11 32 15 15 4 32 13 39 21 6 8 16 14 21 14 5 0 21 8 36 18 15 11 72 48 127 83
55 35 102 66 105 70 3 3 32 25 65 49 33 24 65 49 71 54 6 6 28 25 49 41 88 69
255 229 366 350 65 71 205 250 248 315 20 30 38 57 41 60 10 10 80 120 80 126
0 3 8 18 19 32 29 42 143 267 185 367 21 50 44 105 53 124 8 18 16 39 18 45 1
6 5 18 8 26 7 19 81 258 83 270 0 3 3 16 7 30 26 102 62 290 72 370 17 150 20
212 20 465 0 250 -3 310 -20 420 -7 44 -17 107 -20 130 -2 11 -6 36 -10 55 -4
19 -8 42 -9 50 -2 8 -5 24 -9 35 -3 11 -8 31 -11 45 -12 74 -80 301 -117 393
-71 178 -84 208 -144 327 -50 101 -78 153 -85 160 -3 3 -14 23 -25 45 -11 22
-27 48 -36 57 -9 10 -22 31 -30 46 -12 24 -115 173 -146 212 -96 121 -149 186
-171 209 -191 201 -341 342 -426 401 -12 8 -26 19 -33 26 -6 6 -56 43 -110 81
-231 166 -544 330 -788 415 -33 11 -71 25 -85 31 -14 6 -31 11 -37 13 -7 1
-41 11 -76 22 -34 12 -74 23 -87 26 -14 2 -63 14 -110 25 -72 17 -140 30 -245
46 -11 2 -45 6 -75 10 -30 4 -71 9 -90 12 -43 6 -575 15 -581 9z m366 -1310
c55 -3 117 -8 138 -11 20 -3 52 -7 70 -9 81 -9 235 -52 382 -104 112 -40 354
-163 363 -184 2 -4 8 -8 13 -8 11 0 72 -42 77 -52 2 -5 10 -8 17 -8 7 0 15 -3
17 -7 2 -5 35 -34 75 -65 116 -93 258 -241 338 -353 11 -15 29 -39 40 -54 24
-31 59 -84 60 -91 0 -3 13 -25 29 -49 33 -51 133 -260 141 -296 2 -5 12 -35
24 -65 20 -54 48 -150 57 -200 3 -14 7 -33 10 -43 3 -10 7 -32 10 -50 2 -18 6
-48 9 -67 24 -163 24 -459 1 -580 -3 -14 -8 -41 -10 -60 -3 -19 -7 -45 -11
-57 -3 -13 -7 -31 -9 -40 -23 -101 -54 -204 -77 -258 -4 -11 -20 -49 -35 -85
-69 -171 -188 -362 -328 -528 -34 -41 -184 -188 -217 -214 -16 -12 -42 -33
-57 -46 -46 -38 -170 -122 -181 -122 -6 0 -11 -4 -11 -8 0 -10 -175 -102 -260
-136 -36 -15 -74 -31 -85 -36 -11 -5 -60 -21 -110 -36 -49 -14 -97 -28 -105
-31 -8 -3 -22 -7 -30 -8 -14 -2 -57 -10 -110 -20 -112 -21 -198 -28 -350 -27
-180 0 -264 8 -401 38 -63 14 -121 26 -129 28 -26 4 -152 47 -215 73 -352 143
-642 366 -862 662 -36 47 -71 94 -79 104 -7 9 -11 17 -7 17 3 0 -1 8 -9 18
-36 39 -146 258 -178 352 -12 36 -26 74 -30 85 -9 21 -22 63 -26 80 -1 6 -6
28 -12 50 -6 22 -14 52 -17 68 -3 15 -7 38 -10 52 -12 62 -18 101 -30 220 -6
54 -6 217 0 290 6 87 16 178 20 195 2 8 7 30 10 48 15 92 62 261 77 280 6 6 8
12 5 12 -3 0 12 44 34 98 105 251 239 451 440 655 64 64 119 117 123 117 4 0
15 8 24 17 47 47 254 185 320 214 17 8 32 17 32 21 0 5 4 8 9 8 5 0 38 13 73
29 35 16 74 32 88 36 14 4 27 11 30 14 4 6 158 56 200 66 8 2 35 8 60 14 25 7
56 13 70 16 14 2 54 9 90 15 36 6 110 13 165 16 55 3 101 7 103 8 1 2 12 2 25
0 12 -2 67 -6 122 -8z m-7875 -869 c19 -3 35 -6 35 -7 0 -1 9 -3 20 -5 69 -12
211 -61 270 -93 59 -32 150 -86 155 -91 3 -3 25 -21 50 -40 80 -61 157 -138
205 -205 11 -16 25 -33 30 -40 42 -46 157 -277 157 -313 0 -4 4 -15 9 -24 4
-9 10 -28 13 -43 3 -14 7 -34 10 -44 20 -66 29 -344 14 -442 -17 -116 -83
-312 -112 -332 -6 -4 -8 -8 -4 -8 8 0 -37 -77 -87 -149 -55 -80 -255 -271
-283 -271 -6 0 -12 -4 -14 -9 -5 -12 -147 -88 -218 -116 -58 -23 -199 -62
-230 -64 -8 0 -37 -4 -65 -8 -90 -12 -260 -7 -360 12 -211 40 -473 183 -604
329 -14 16 -38 41 -53 56 -83 84 -197 291 -233 423 -7 26 -11 47 -8 47 3 0 1
6 -5 13 -6 6 -13 32 -17 57 -3 25 -10 61 -13 80 -9 43 -7 231 3 285 4 22 8 51
10 65 6 58 45 179 86 268 16 34 28 65 28 69 0 3 3 9 8 12 5 3 21 26 35 51 14
25 36 56 47 69 12 13 21 27 21 31 0 4 42 49 93 100 81 82 126 119 187 155 10
6 24 16 31 22 25 20 174 93 189 93 9 0 20 4 25 9 10 10 140 45 205 56 19 3 36
7 37 9 5 5 293 -2 333 -7z"/>
</g>
</svg>
