<?xml version="1.0" encoding="UTF-8"?>
<svg width="31px" height="23px" viewBox="0 0 31 23" version="1.1" xmlns="http://www.w3.org/2000/svg" xmlns:xlink="http://www.w3.org/1999/xlink">
    <!-- Generator: sketchtool 53.2 (72643) - https://sketchapp.com -->
    <title>35599E99-ADC1-46B2-B0A6-3927D1F7609F</title>
    <desc>Created with sketchtool.</desc>
    <g id="Page-1" stroke="none" stroke-width="1" fill="none" fill-rule="evenodd">
        <g id="CONNEX-SOLUTIONS-V2" transform="translate(-259.000000, -4149.000000)" fill="#FFFFFF" fill-rule="nonzero">
            <g id="footer" transform="translate(0.000000, 3833.000000)">
                <g id="FOOTER">
                    <g id="youtube" transform="translate(259.000000, 316.000000)">
                        <path d="M24.0897857,0.0276422018 L6.83885714,0.0276422018 C3.06185714,0.0276422018 -2.27373675e-13,3.04268196 -2.27373675e-13,6.76192966 L-2.27373675e-13,16.238211 C-2.27373675e-13,19.9574587 3.06185714,22.9724985 6.83885714,22.9724985 L24.0897857,22.9724985 C27.8667857,22.9724985 30.9286429,19.9574587 30.9286429,16.238211 L30.9286429,6.76192966 C30.9286429,3.04268196 27.8667857,0.0276422018 24.0897857,0.0276422018 Z M20.4647143,11.9611254 L11.4604286,16.1899602 C11.2205,16.3026391 10.9433571,16.1303853 10.9433571,15.8686636 L10.9433571,7.14666972 C10.9433571,6.88122018 11.2277857,6.70917737 11.4682143,6.82917125 L20.4725,11.3223303 C20.7402143,11.4558991 20.7355714,11.8339572 20.4647143,11.9611254 Z" id="Shape"></path>
                    </g>
                </g>
            </g>
        </g>
    </g>
</svg>