<?xml version="1.0" encoding="UTF-8"?>
<svg width="403px" height="633px" viewBox="0 0 403 633" version="1.1" xmlns="http://www.w3.org/2000/svg" xmlns:xlink="http://www.w3.org/1999/xlink">
    <!-- Generator: sketchtool 53.2 (72643) - https://sketchapp.com -->
    <title>40E0FE7C-EC36-4AF7-9DDE-8296B554AE68</title>
    <desc>Created with sketchtool.</desc>
    <defs>
        <path d="M544.715464,2.84217094e-14 L1277.0114,3.12638804e-13 C1321.19418,3.04522559e-13 1357.0114,35.81722 1357.0114,80 C1357.0114,102.500205 1347.53626,123.960237 1330.90888,139.119042 L627.248763,780.629944 C599.507369,805.921141 557.911693,808.521526 527.236409,786.882292 C465.919304,743.627431 391.173834,722 303,722 C275.654606,722 241.256536,724.080146 199.805792,728.240439 L199.805798,728.240497 C100.218862,738.235752 11.384945,665.607345 1.38968969,566.02041 C-4.33420972,508.990791 17.2578409,452.61495 59.6137857,414 L490.81798,20.8809576 C505.553631,7.44679986 524.775153,-6.73912978e-14 544.715464,-7.10542736e-14 Z" id="path-1"></path>
        <linearGradient x1="50%" y1="0%" x2="50%" y2="100%" id="linearGradient-3">
            <stop stop-color="#D80458" offset="0%"></stop>
            <stop stop-color="#CF0052" offset="100%"></stop>
        </linearGradient>
    </defs>
    <g id="Page-1" stroke="none" stroke-width="1" fill="none" fill-rule="evenodd">
        <g id="CONNEX-SOLUTIONS-V2" transform="translate(-1037.000000, -217.000000)">
            <g id="solutions_hero_shape" transform="translate(1037.000000, 117.000000)">
                <mask id="mask-2" fill="white">
                    <use xlink:href="#path-1"></use>
                </mask>
                <use id="Mask" fill="#F1055C" xlink:href="#path-1"></use>
                <g id="Group-3" mask="url(#mask-2)" fill="url(#linearGradient-3)">
                    <g transform="translate(104.000000, 93.000000)" id="Mask">
                        <path d="M81.2805079,222.939559 L468.065499,0 L722.105098,236.935943 C786.92842,297.394923 790.466419,398.956296 730.007439,463.779618 C704.356313,491.282418 669.861729,508.904134 632.5439,513.569314 L163.082212,572.257696 C84.3331109,582.102285 12.5137347,526.244142 2.66914565,447.49504 C1.98527045,442.024568 1.61677891,436.519272 1.56549858,431.006457 L0.937433372,363.487243 C0.39871947,305.573609 31.1028396,251.861537 81.2805079,222.939559 Z" transform="translate(387.032749, 286.691346) scale(-1, 1) translate(-387.032749, -286.691346) "></path>
                    </g>
                </g>
                <path d="M339.165594,159.849084 C388.908741,114.174584 404.826548,63.332687 402.836823,39 C402.836823,77.15359 402.836823,116.493152 402.836823,157.018686 C327.227238,189.355284 306.003495,190.298751 339.165594,159.849084 Z" id="Path-2" fill="#D70457" mask="url(#mask-2)"></path>
            </g>
        </g>
    </g>
</svg>