<?xml version="1.0" encoding="UTF-8"?>
<svg width="78px" height="150px" viewBox="0 0 78 150" version="1.1" xmlns="http://www.w3.org/2000/svg" xmlns:xlink="http://www.w3.org/1999/xlink">
    <!-- Generator: Sketch 53.2 (72643) - https://sketchapp.com -->
    <title>Group 4</title>
    <desc>Created with Sketch.</desc>
    <g id="DESIGN" stroke="none" stroke-width="1" fill="none" fill-rule="evenodd">
        <g id="CONNEX-MOBILE-SOLUTIONS" transform="translate(0.000000, -265.000000)">
            <g id="HERO" transform="translate(-144.406222, 68.000000)">
                <g id="Group-4" transform="translate(124.500000, 283.375514) rotate(-15.000000) translate(-124.500000, -283.375514) translate(15.000000, 214.375514)">
                    <path d="M125.469931,1 L183.949806,1 C203.001992,1 218.446841,16.4448484 218.446841,35.4970344 C218.446841,45.228371 214.336701,54.507056 207.129576,61.045883 L145.864194,116.630283 C126.527894,134.173577 99.8474971,141.177552 74.3875485,135.393896 C68.5869104,134.076183 62.3752055,133.417327 55.752434,133.417327 C50.6696671,133.417327 44.2647677,133.805398 36.537736,134.581541 L36.5377412,134.581592 C18.2840289,136.415089 2.00012858,123.103874 0.166631972,104.850162 C-0.886249706,94.3680047 3.09558689,84.00782 10.8978412,76.9290488 L71.7151201,21.7512 C86.4338459,8.39730385 105.596143,1 125.469931,1 Z" id="Mask" fill="#F1055C"></path>
                    <path d="M103.478411,0.681483474 L136.148511,0.681483474 C149.745882,0.681483474 160.76873,11.7043311 160.76873,25.3017027 C160.76873,32.2331924 157.846862,38.8435747 152.720768,43.5092695 L117.427217,75.6329365 C100.013544,91.4826024 76.5016866,98.8557951 53.155649,95.7881558 C50.5028193,95.4395774 47.7415969,95.2652882 44.8719818,95.2652882 C41.2733739,95.2652882 36.7439507,95.5393776 31.283712,96.0875563 L31.2837205,96.0876413 C18.2401974,97.3971412 6.60477332,87.8848361 5.29527333,74.8413131 C4.54466939,67.3647801 7.37854311,59.9743886 12.9355117,54.9165183 L49.6291521,21.5185113 C64.3591108,8.1115215 83.5606038,0.681483474 103.478411,0.681483474 Z" id="Mask" fill="#D80458"></path>
                </g>
            </g>
        </g>
    </g>
</svg>