<?xml version="1.0" encoding="UTF-8"?>
<svg width="33px" height="33px" viewBox="0 0 33 33" version="1.1" xmlns="http://www.w3.org/2000/svg" xmlns:xlink="http://www.w3.org/1999/xlink">
    <!-- Generator: Sketch 53.2 (72643) - https://sketchapp.com -->
    <title>research</title>
    <desc>Created with Sketch.</desc>
    <g id="Page-1" stroke="none" stroke-width="1" fill="none" fill-rule="evenodd">
        <g id="CONNEX-SOLUTIONS-2" transform="translate(-1075.000000, -1944.000000)" fill="#C2D1E4" fill-rule="nonzero">
            <g id="Group-16" transform="translate(973.000000, 1367.000000)">
                <g id="Group-5" transform="translate(79.000000, 560.000000)">
                    <g id="research" transform="translate(24.000000, 18.000000)">
                        <path d="M18.4400672,19.8961903 C16.4390477,21.5589423 13.9109821,22.4798399 11.2878629,22.4799252 C5.10659813,22.4801184 0.0955109034,17.4694174 0.0952211838,11.2881526 C0.0950280374,5.10688785 5.10572897,0.0958006231 11.2869938,0.0955109034 C14.2558474,0.0954143302 17.1031153,1.27486293 19.2022305,3.37436449 C23.3267008,7.499655 23.5582079,14.0431033 19.8972388,18.4398324 L22.0668434,20.609437 L22.775729,19.9005514 C22.9688754,19.707405 23.2307819,19.5988567 23.5039875,19.5987601 C23.7770966,19.5987601 24.0390997,19.707405 24.2322461,19.9005514 L30.6983053,26.364486 C31.1004361,26.7667134 31.1004361,27.4187757 30.6983053,27.8210997 L27.8242866,30.6951184 C27.6317196,30.8894237 27.3696199,30.9991308 27.096028,31 C26.822919,31 26.5609159,30.8914517 26.3677695,30.6982087 L19.9017103,24.2311838 C19.4995794,23.8288598 19.4995794,23.1767975 19.9017103,22.7745701 L20.6100786,22.0662017 L18.4400672,19.8961903 Z M11.2816822,20.4206947 C16.3251215,20.422433 20.4149969,16.3352617 20.4167352,11.2918224 C20.4175078,8.87053894 19.4567009,6.54804984 17.7456168,4.83503427 C16.0377196,3.1147757 13.711947,2.15020249 11.2878629,2.15676947 C6.24442368,2.15503115 2.15454829,6.24220249 2.15280997,11.2856417 C2.15107165,16.329081 6.23824299,20.4189564 11.2816822,20.4206947 Z M27.0959315,28.5133364 L28.5133364,27.0959315 L23.503891,22.0854237 L22.086486,23.5028287 L27.0959315,28.5133364 Z" id="Combined-Shape" stroke="#FFFFFF" stroke-width="0.5"></path>
                        <path d="M12.9650749,13.6749166 C13.0807315,13.9160636 13.1454839,14.1860597 13.1454839,14.471115 C13.1454839,15.4927013 12.3138197,16.3208723 11.2879244,16.3208723 C10.2620291,16.3208723 9.43036486,15.4927013 9.43036486,14.471115 C9.43036486,14.1867416 9.49480787,13.9173554 9.60994473,13.6766476 L7.7514572,11.8259663 C7.5097242,11.9406312 7.23918783,12.0048105 6.95359947,12.0048105 C6.66700857,12.0048105 6.39557552,11.9401798 6.15319704,11.8247568 L2.71053085,15.2564011 L1.83489097,14.3844391 L5.27730894,10.9530423 C5.16111342,10.7114416 5.09603994,10.4408143 5.09603994,10.1550532 C5.09603994,9.13346697 5.92770417,8.30529595 6.95359947,8.30529595 C7.97949477,8.30529595 8.811159,9.13346697 8.811159,10.1550532 C8.811159,10.441812 8.74563035,10.7133311 8.62867111,10.9555717 L10.4839901,12.8030979 C10.7272624,12.6866181 10.9999406,12.6213577 11.2879244,12.6213577 C11.5752239,12.6213577 11.8472905,12.6863084 12.0901242,12.8022685 L13.9463056,10.9538835 C13.8298564,10.7120699 13.7646317,10.441146 13.7646317,10.1550532 C13.7646317,9.13346697 14.596296,8.30529595 15.6221913,8.30529595 C16.6481446,8.30529595 17.4798088,9.13346697 17.4797508,10.1550532 C17.4797508,11.1766395 16.6480865,12.0048105 15.6221913,12.0048105 C15.3359336,12.0048105 15.0647986,11.9403301 14.8226345,11.8251593 L12.9650749,13.6749166 Z M6.95359947,10.7716004 C7.29556457,10.7716004 7.57280533,10.495582 7.57280533,10.1549954 C7.57280533,9.81446667 7.29556457,9.53839039 6.95359947,9.53839039 C6.61163437,9.53839039 6.33439361,9.81446667 6.33439361,10.1549954 C6.33439361,10.4955242 6.61163437,10.7716004 6.95359947,10.7716004 Z M11.2879244,15.08772 C11.6298895,15.08772 11.9070722,14.8116438 11.9071302,14.471115 C11.9071302,14.1305862 11.6298895,13.85451 11.2879244,13.85451 C10.9459593,13.85451 10.6687185,14.1305862 10.6687185,14.471115 C10.6687185,14.8116438 10.9459593,15.08772 11.2879244,15.08772 Z M15.6221913,10.7716004 C15.9641564,10.7716004 16.2413971,10.495582 16.2413971,10.1549954 C16.2413971,9.81446667 15.9641564,9.53839039 15.6221913,9.53839039 C15.2802262,9.53839039 15.0029854,9.81446667 15.0029854,10.1549954 C15.0029854,10.4955242 15.2802262,10.7716004 15.6221913,10.7716004 Z" id="Combined-Shape"></path>
                    </g>
                </g>
            </g>
        </g>
    </g>
</svg>