<?xml version="1.0" encoding="UTF-8"?>
<svg width="31px" height="30px" viewBox="0 0 31 30" version="1.1" xmlns="http://www.w3.org/2000/svg" xmlns:xlink="http://www.w3.org/1999/xlink">
    <!-- Generator: Sketch 53.2 (72643) - https://sketchapp.com -->
    <title>edit (1)</title>
    <desc>Created with Sketch.</desc>
    <g id="Page-1" stroke="none" stroke-width="1" fill="none" fill-rule="evenodd">
        <g id="CONNEX-SOLUTIONS-2" transform="translate(-996.000000, -2051.000000)" fill="#FFFFFF">
            <g id="Group-16" transform="translate(973.000000, 1367.000000)">
                <g id="Group-5" transform="translate(0.000000, 670.000000)">
                    <g id="edit-(1)" transform="translate(24.000000, 15.000000)">
                        <path d="M22.1247668,19.0583594 C21.7950093,19.0583594 21.5277519,19.3269531 21.5277519,19.6583594 L21.5277519,24.9857031 C21.5265858,25.9794531 20.7255131,26.7847656 19.7367071,26.7857031 L2.98507463,26.7857031 C1.99626866,26.7847656 1.19519588,25.9794531 1.19402985,24.9857031 L1.19402985,9.3503125 C1.19519588,8.35679686 1.99626866,7.55148436 2.98507463,7.5503125 L8.28591415,7.5503125 C8.61567164,7.5503125 8.88292907,7.28171872 8.88292907,6.9503125 C8.88292907,6.61914064 8.61567164,6.3503125 8.28591415,6.3503125 L2.98507463,6.3503125 C1.33722018,6.3521875 0.00186567164,7.69421872 0,9.3503125 L0,24.9859375 C0.00186567164,26.6420313 1.33722018,27.9840625 2.98507463,27.9859375 L19.7367071,27.9859375 C21.3845616,27.9840625 22.7199161,26.6420313 22.7217817,24.9859375 L22.7217817,19.6583594 C22.7217817,19.3269531 22.4545242,19.0583594 22.1247668,19.0583594 Z" id="Path" stroke="#FFFFFF" stroke-width="0.3" fill-rule="nonzero"></path>
                        <path d="M27.4853078,0.806484361 C26.4361008,-0.247968719 24.7350746,-0.247968719 23.6858675,0.806484361 L13.0347481,11.5108594 C12.9617537,11.5842187 12.9090485,11.6751563 12.8815299,11.775 L11.4808769,16.8569531 C11.4232743,17.0653125 11.4818097,17.2884375 11.633862,17.4414844 C11.7861474,17.5942969 12.0081623,17.653125 12.2154851,17.5954687 L17.2721549,16.1875781 C17.3715019,16.1599219 17.4619869,16.1069531 17.5349814,16.0335937 L28.1858675,5.32898436 C29.2334421,4.27382814 29.2334421,2.56570314 28.1858675,1.51054686 L27.4853078,0.806484361 Z M14.3355877,11.9008594 L23.0527052,3.13992186 L25.8640392,5.9653125 L17.1466884,14.72625 L14.3355877,11.9008594 Z M13.7740205,13.0333594 L16.020056,15.2908594 L12.9132463,16.1559375 L13.7740205,13.0333594 Z M27.3416511,4.48054686 L26.7084888,5.116875 L23.8969217,2.29125 L24.5303171,1.65492186 C25.1131063,1.06921872 26.058069,1.06921872 26.6408582,1.65492186 L27.3416511,2.35898436 C27.9235075,2.94539064 27.9235075,3.894375 27.3416511,4.48054686 L27.3416511,4.48054686 Z" id="Shape" stroke="#FFFFFF" stroke-width="0.3" fill-rule="nonzero"></path>
                        <text id="5" font-family="FuturaNDAlt-Bold" font-size="6" font-weight="bold" letter-spacing="-0.24">
                            <tspan x="5" y="17">5</tspan>
                        </text>
                        <text id="7" font-family="FuturaNDAlt-Bold" font-size="6" font-weight="bold" letter-spacing="-0.24">
                            <tspan x="5" y="23">7</tspan>
                        </text>
                        <text id="3" font-family="FuturaNDAlt-Bold" font-size="6" font-weight="bold" letter-spacing="-0.24">
                            <tspan x="10" y="23">3</tspan>
                        </text>
                    </g>
                </g>
            </g>
        </g>
    </g>
</svg>