<?xml version="1.0" encoding="UTF-8"?>
<svg width="31px" height="36px" viewBox="0 0 31 36" version="1.1" xmlns="http://www.w3.org/2000/svg" xmlns:xlink="http://www.w3.org/1999/xlink">
    <!-- Generator: Sketch 53.2 (72643) - https://sketchapp.com -->
    <title>security</title>
    <desc>Created with Sketch.</desc>
    <g id="Page-1" stroke="none" stroke-width="1" fill="none" fill-rule="evenodd">
        <g id="CONNEX-SOLUTIONS-2" transform="translate(-1077.000000, -2160.000000)" fill="#C2D1E4" fill-rule="nonzero" stroke="#FFFFFF" stroke-width="0.5">
            <g id="Group-16" transform="translate(973.000000, 1367.000000)">
                <g id="Group-5" transform="translate(79.000000, 780.000000)">
                    <g id="security" transform="translate(26.000000, 14.000000)">
                        <path d="M28.8279227,8.72471628 C28.8102983,7.80987907 28.7934751,6.94564651 28.7934751,6.10956279 C28.7934751,5.45454884 28.2556133,4.92351628 27.5918177,4.92351628 C22.4527293,4.92351628 18.5399724,3.46578605 15.2785138,0.335888372 C14.8119503,-0.111962791 14.0694862,-0.111804651 13.6030829,0.335888372 C10.3419448,3.46578605 6.42982873,4.92351628 1.29106077,4.92351628 C0.627425414,4.92351628 0.0894033149,5.45454884 0.0894033149,6.10956279 C0.0894033149,6.94580465 0.0727403315,7.81035349 0.0549558011,8.72534884 C-0.109751381,17.2389488 -0.335342541,28.8987349 14.0472155,33.8192465 C14.1747514,33.862893 14.3077348,33.8847163 14.4407182,33.8847163 C14.5737017,33.8847163 14.7068453,33.862893 14.834221,33.8192465 C29.2179006,28.8985767 28.9926298,17.2384744 28.8279227,8.72471628 Z M14.4408785,31.4400372 C2.10594475,27.0173488 2.29244199,17.3289302 2.45795028,8.77057674 C2.46788398,8.25693953 2.47749724,7.75911628 2.48422652,7.27109767 C7.29726519,7.07057674 11.1460939,5.63103256 14.4408785,2.79812093 C17.7359834,5.63103256 21.585453,7.07073488 26.3988122,7.27109767 C26.4055414,7.75895814 26.4151547,8.25646512 26.4250884,8.76978605 C26.5904365,17.3284558 26.7767735,27.0171907 14.4408785,31.4400372 Z" id="Shape"></path>
                        <path d="M18.5789061,12.8222698 L12.7790663,18.5464465 L10.3041326,16.1036651 C9.8348453,15.6406326 9.0739558,15.6406326 8.60482873,16.1036651 C8.13554144,16.567014 8.13554144,17.3178605 8.60482873,17.7810512 L11.9294144,21.0624465 C12.1639779,21.2939628 12.4716022,21.4097209 12.7790663,21.4097209 C13.0865304,21.4097209 13.3941547,21.2939628 13.6287182,21.0624465 L20.2780497,14.4996558 C20.7474972,14.0364651 20.7474972,13.2854605 20.2782099,12.8224279 C19.8090829,12.3592372 19.0481934,12.3590791 18.5789061,12.8222698 Z" id="Path"></path>
                    </g>
                </g>
            </g>
        </g>
    </g>
</svg>