<?xml version="1.0" encoding="UTF-8"?>
<svg width="56px" height="34px" viewBox="0 0 56 34" version="1.1" xmlns="http://www.w3.org/2000/svg" xmlns:xlink="http://www.w3.org/1999/xlink">
    <!-- Generator: Sketch 53.2 (72643) - https://sketchapp.com -->
    <title>content (1)</title>
    <desc>Created with Sketch.</desc>
    <g id="Page-1" stroke="none" stroke-width="1" fill="none" fill-rule="evenodd">
        <g id="CONNEX-SOLUTIONS-2" transform="translate(-987.000000, -1602.000000)" fill="#FFFFFF" fill-rule="nonzero" stroke="#1276E9">
            <g id="Group-5" transform="translate(960.000000, 1578.000000)">
                <g id="Group-8">
                    <g id="content-(1)" transform="translate(28.000000, 25.000000)">
                        <path d="M11.9423077,11.2401244 C11.2502769,10.5497202 10.1284062,10.5497202 9.43620923,11.2401244 L0.574726154,20.0829016 L3.08082462,22.5837098 L10.6893415,14.9912539 L20.0702215,24.3523316 L22.57632,21.8515233 L11.9423077,11.2401244 Z" id="Path" stroke-width="2"></path>
                        <path d="M24.3483508,9.47150259 C23.65632,8.78109845 22.5344492,8.78109845 21.8422523,9.47150259 L18.2976923,13.0085803 L20.8037908,15.5093886 L23.0953846,13.2226321 L28.9315385,19.0464663 L31.4376369,16.545658 L24.3483508,9.47150259 Z" id="Path" stroke-width="2"></path>
                        <rect id="Rectangle" x="37.49544" y="19.5492228" width="8.86148308" height="3.53707772"></rect>
                        <rect id="Rectangle" x="37.49544" y="1.86350259" width="16.4492308" height="3.53707772"></rect>
                        <rect id="Rectangle" x="37.49544" y="10.7064456" width="16.4492308" height="3.53707772"></rect>
                        <path d="M28.4123077,0.110590674 L3.60005538,0.110590674 C1.64243077,0.110590674 0.0554953846,1.69417617 0.0554953846,3.64766839 L0.0554953846,28.407544 C0.0554953846,30.3610363 1.64243077,31.9446218 3.60005538,31.9446218 L28.4123077,31.9446218 C30.3699323,31.9446218 31.9568677,30.3610363 31.9568677,28.407544 L31.9568677,3.64766839 C31.9568677,1.69417617 30.3699323,0.110590674 28.4123077,0.110590674 Z M28.4123077,28.407544 L3.60005538,28.407544 L3.60005538,3.64766839 L28.4123077,3.64766839 L28.4123077,28.407544 Z" id="Shape" stroke-width="2"></path>
                    </g>
                </g>
            </g>
        </g>
    </g>
</svg>