<?xml version="1.0" encoding="UTF-8"?>
<svg width="41px" height="29px" viewBox="0 0 41 29" version="1.1" xmlns="http://www.w3.org/2000/svg" xmlns:xlink="http://www.w3.org/1999/xlink">
    <!-- Generator: Sketch 53.2 (72643) - https://sketchapp.com -->
    <title>money (1)</title>
    <desc>Created with Sketch.</desc>
    <g id="Page-1" stroke="none" stroke-width="1" fill="none" fill-rule="evenodd">
        <g id="money-(1)" transform="translate(1.000000, 1.000000)" fill="#FFFFFF" fill-rule="nonzero">
            <path d="M6.49424277,16.1729848 C5.9721721,16.1729848 5.54502337,16.5888616 5.54502337,17.0971554 C5.54502337,17.6054492 5.9721721,18.0213259 6.49424277,18.0213259 L10.1408273,18.0213259 C10.662898,18.0213259 11.0900467,17.6054492 11.0900467,17.0971554 C11.0900467,16.5888616 10.662898,16.1729848 10.1408273,16.1729848 L6.49424277,16.1729848 Z" id="Path"></path>
            <path d="M23.1293129,18.0213259 L26.7758974,18.0213259 C27.2979681,18.0213259 27.7251168,17.6054492 27.7251168,17.0971554 C27.7251168,16.5888616 27.2979681,16.1729848 26.7758974,16.1729848 L23.1293129,16.1729848 C22.6072422,16.1729848 22.1800935,16.5888616 22.1800935,17.0971554 C22.1800935,17.6054492 22.6072422,18.0213259 23.1293129,18.0213259 Z" id="Path"></path>
            <path d="M37.1083943,0 L8.8561482,0 C7.4071075,0 6.22520838,1.18995594 6.22520838,2.64887452 L6.22520838,6.48770497 L1.94284787,6.48770497 C0.874281541,6.48770497 0,7.36794634 0,8.44379692 L0,25.3069396 C0,26.3827902 0.874281541,27.2630316 1.94284787,27.2630316 L31.5712779,27.2630316 C32.6398442,27.2630316 33.5141257,26.3827902 33.5141257,25.3069396 L33.5141257,20.7753266 L37.1083943,20.7753266 C38.557435,20.7753266 39.7393341,19.5853706 39.7393341,18.1264521 L39.7393341,2.64072413 C39.7312389,1.18180555 38.557435,0 37.1083943,0 Z M26.1313038,8.44379692 C26.3498742,11.3779348 28.6651013,13.7252452 31.5712779,13.9779071 L31.5712779,19.8298821 C28.6570061,20.0499425 26.3255886,22.3809521 26.0746374,25.3069396 L7.3828219,25.3069396 C7.16425152,22.3728017 4.84902447,20.0254913 1.94284787,19.7728295 L1.94284787,13.9208544 C4.85711967,13.700794 7.18853712,11.3697845 7.4394883,8.44379692 L26.1313038,8.44379692 L26.1313038,8.44379692 Z M28.0741517,8.44379692 L31.5631827,8.44379692 L31.5631827,12.0136647 C29.7336676,11.7691532 28.2846269,10.2939339 28.0741517,8.44379692 Z M5.48045003,8.44379692 C5.24568925,10.2857835 3.78045815,11.7528525 1.93475267,11.956612 L1.93475267,8.44379692 L5.48045003,8.44379692 Z M1.94284787,21.7370718 C3.77236295,21.9734329 5.22949885,23.4486522 5.43187883,25.3069396 L1.94284787,25.3069396 L1.94284787,21.7370718 Z M28.0255805,25.2987892 C28.2603413,23.4568026 29.7255724,21.9897337 31.5712779,21.7859741 L31.5712779,25.2987892 L28.0255805,25.2987892 Z M37.7883911,18.1264521 C37.7883911,18.5095201 37.4807735,18.8192346 37.1002991,18.8192346 L33.5060305,18.8192346 L33.5060305,8.44379692 C33.5060305,7.36794634 32.631749,6.48770497 31.5631827,6.48770497 L8.15996105,6.48770497 L8.15996105,2.64887452 C8.15996105,2.26580651 8.46757863,1.95609195 8.848053,1.95609195 L37.1002991,1.95609195 C37.4807735,1.95609195 37.7883911,2.26580651 37.7883911,2.64887452 L37.7883911,18.1264521 Z" id="Shape" stroke="#D62164" stroke-width="0.5"></path>
            <path d="M16.2504293,18.0695947 L17.9438815,18.0695947 C18.4230045,18.0695947 18.8112594,18.4569223 18.8112594,18.9349009 C18.8112594,19.4128796 18.4230045,19.8002071 17.9438815,19.8002071 L14.9039283,19.8002071 C14.3587193,19.8002071 13.9126392,20.2452217 13.9126392,20.7891285 C13.9126392,21.3330352 14.3587193,21.7780498 14.9039283,21.7780498 L16.1099967,21.7780498 L16.1099967,22.5774279 C16.1099967,23.1213347 16.5560767,23.5663493 17.1012858,23.5663493 C17.6464948,23.5663493 18.0925748,23.1213347 18.0925748,22.5774279 L18.0925748,21.7780498 C19.59603,21.7038807 20.7938376,20.459488 20.7938376,18.9431419 C20.7938376,17.3773498 19.5134225,16.099993 17.9438815,16.099993 L16.2504293,16.099993 C15.7713062,16.099993 15.3830513,15.7126655 15.3830513,15.2346868 C15.3830513,14.7567081 15.7713062,14.3693806 16.2504293,14.3693806 L19.2325573,14.3693806 C19.7777663,14.3693806 20.2238464,13.924366 20.2238464,13.3804593 C20.2238464,12.8365525 19.7777663,12.3915379 19.2325573,12.3915379 L18.0843141,12.3915379 L18.0843141,11.6168828 C18.0843141,11.0729761 17.638234,10.6279615 17.093025,10.6279615 C16.547816,10.6279615 16.1017359,11.0729761 16.1017359,11.6168828 L16.1017359,12.3997789 C14.5982808,12.473948 13.4004731,13.7183407 13.4004731,15.2346868 C13.4087339,16.792238 14.6808882,18.0695947 16.2504293,18.0695947 Z" id="Path"></path>
        </g>
    </g>
</svg>