<?xml version="1.0" encoding="UTF-8"?>
<svg width="36px" height="34px" viewBox="0 0 36 34" version="1.1" xmlns="http://www.w3.org/2000/svg" xmlns:xlink="http://www.w3.org/1999/xlink">
    <!-- Generator: sketchtool 53.2 (72643) - https://sketchapp.com -->
    <title>0561635F-EDBA-4619-8C9B-9DFFAA50A5D5</title>
    <desc>Created with sketchtool.</desc>
    <g id="Page-1" stroke="none" stroke-width="1" fill="none" fill-rule="evenodd">
        <g id="CONNEX-SOLUTIONS-V2" transform="translate(-1016.000000, -1383.000000)" fill="#C2D1E4" fill-rule="nonzero">
            <g id="Group-16" transform="translate(960.000000, 1369.000000)">
                <g id="Group-5" transform="translate(33.000000, 0.000000)">
                    <g id="support-(1)" transform="translate(24.000000, 15.000000)">
                        <path d="M29.1428571,12.1056604 C29.1428571,5.40377358 23.7089286,0 17,0 C10.2910714,0 4.85714286,5.40377358 4.85714286,12.0754717 C4.85714286,12.0754717 4.85714286,12.0754717 4.85714286,12.1056604 C2.15535714,12.2566038 0,14.490566 0,17.2075472 L0,17.8113208 C0,20.6490566 2.30714286,22.9433962 5.16071429,22.9433962 L5.43392857,22.9433962 L7.58928571,26.354717 C9.10714286,28.7698113 11.6875,30.1886792 14.5410714,30.1886792 L14.9660714,30.1886792 C15.2392857,31.2150943 16.1803571,32 17.3035714,32 C18.6392857,32 19.7321429,30.9132075 19.7321429,29.5849057 C19.7321429,28.2566038 18.6392857,27.1698113 17.3035714,27.1698113 C16.1803571,27.1698113 15.2392857,27.954717 14.9660714,28.9811321 L14.5410714,28.9811321 C12.1125,28.9811321 9.89642857,27.7433962 8.62142857,25.690566 L6.86071429,22.9433962 L7.28571429,22.9433962 C7.95357143,22.9433962 8.5,22.4 8.5,21.7358491 L8.5,13.2830189 C8.5,12.6188679 7.95357143,12.0754717 7.28571429,12.0754717 L6.07142857,12.0754717 C6.07142857,6.06792453 10.9589286,1.20754717 17,1.20754717 C23.0410714,1.20754717 27.9285714,6.06792453 27.9285714,12.0754717 L26.7142857,12.0754717 C26.0464286,12.0754717 25.5,12.6188679 25.5,13.2830189 L25.5,21.7358491 C25.5,22.4 26.0464286,22.9433962 26.7142857,22.9433962 L28.8392857,22.9433962 C31.6928571,22.9433962 34,20.6490566 34,17.8113208 L34,17.2075472 C34,14.490566 31.8446429,12.2566038 29.1428571,12.1056604 Z M17.3035714,28.3773585 C17.9714286,28.3773585 18.5178571,28.9207547 18.5178571,29.5849057 C18.5178571,30.2490566 17.9714286,30.7924528 17.3035714,30.7924528 C16.6357143,30.7924528 16.0892857,30.2490566 16.0892857,29.5849057 C16.0892857,28.9207547 16.6357143,28.3773585 17.3035714,28.3773585 Z M7.28571429,13.2830189 L7.28571429,21.7358491 L5.16071429,21.7358491 C2.975,21.7358491 1.21428571,19.9849057 1.21428571,17.8113208 L1.21428571,17.2075472 C1.21428571,15.0339623 2.975,13.2830189 5.16071429,13.2830189 L7.28571429,13.2830189 Z M32.7857143,17.8113208 C32.7857143,19.9849057 31.025,21.7358491 28.8392857,21.7358491 L26.7142857,21.7358491 L26.7142857,13.2830189 L28.8392857,13.2830189 C31.025,13.2830189 32.7857143,15.0339623 32.7857143,17.2075472 L32.7857143,17.8113208 Z" id="Shape" stroke="#C2D1E4" stroke-width="0.3"></path>
                        <path d="M22.0392857,4.55849057 C21.9785714,4.52830189 21.8875,4.46792453 21.7964286,4.40754717 C21.7053571,4.34716981 21.6142857,4.28679245 21.5535714,4.25660377 C21.2803571,4.0754717 20.8857143,4.16603774 20.7339286,4.46792453 C20.5821429,4.76981132 20.6428571,5.10188679 20.9464286,5.28301887 C21.0071429,5.31320755 21.0982143,5.37358491 21.1892857,5.43396226 C21.2803571,5.49433962 21.3714286,5.55471698 21.4625,5.58490566 C21.5535714,5.64528302 21.675,5.6754717 21.7660714,5.6754717 C21.9785714,5.6754717 22.1607143,5.58490566 22.2821429,5.37358491 C22.4339286,5.10188679 22.3428571,4.73962264 22.0392857,4.55849057 Z" id="Path"></path>
                        <path d="M17,3.01886792 C14.4196429,3.01886792 11.9910714,4.13584906 10.3214286,6.06792453 C10.1089286,6.30943396 10.1392857,6.70188679 10.3821429,6.91320755 C10.5035714,7.00377358 10.625,7.06415094 10.7767857,7.06415094 C10.9589286,7.06415094 11.1107143,7.00377358 11.2321429,6.85283019 C12.6892857,5.19245283 14.7839286,4.22641509 17,4.22641509 C17.5464286,4.22641509 18.0928571,4.28679245 18.6392857,4.40754717 C18.9732143,4.46792453 19.2767857,4.25660377 19.3678571,3.95471698 C19.4589286,3.65283019 19.2160714,3.32075472 18.9125,3.23018868 C18.275,3.07924528 17.6375,3.01886792 17,3.01886792 Z" id="Path"></path>
                    </g>
                </g>
            </g>
        </g>
    </g>
</svg>