<?xml version="1.0" encoding="UTF-8"?>
<svg width="31px" height="31px" viewBox="0 0 31 31" version="1.1" xmlns="http://www.w3.org/2000/svg" xmlns:xlink="http://www.w3.org/1999/xlink">
    <!-- Generator: Sketch 53.2 (72643) - https://sketchapp.com -->
    <title>teamwork</title>
    <desc>Created with Sketch.</desc>
    <g id="Page-1" stroke="none" stroke-width="1" fill="none" fill-rule="evenodd">
        <g id="CONNEX-SOLUTIONS-2" transform="translate(-1000.000000, -1382.000000)" fill="#C2D1E4" fill-rule="nonzero">
            <g id="Group-16" transform="translate(973.000000, 1367.000000)">
                <g id="Group-5">
                    <g id="teamwork" transform="translate(27.000000, 15.000000)">
                        <path d="M20.2248965,11.6579375 C19.2775195,11.3436992 18.3471563,10.9804785 17.4375,10.5697285 L17.4375,10.5393945 C19.0128086,9.79024805 20.0177051,8.20276953 20.0208535,6.45835352 L20.0208535,4.52085352 C20.0208535,2.02402148 17.9967715,0 15.5,0 C13.0032285,0 10.9791465,2.02402148 10.9791465,4.52085352 L10.9791465,6.45835352 C10.9822344,8.20270898 11.9871309,9.7901875 13.5625,10.5393945 L13.5625,10.5697285 C12.6528438,10.9805391 11.7224199,11.3437598 10.7751035,11.6579375 C8.42297852,12.441959 8.39585352,14.136666 8.39585352,14.2083535 L9.6875,14.225791 C9.6875,14.190916 9.75210352,13.3603945 11.18325,12.8837695 C12.3152949,12.5135254 13.4222129,12.0704434 14.497041,11.557248 C14.7160391,11.4478398 14.8543281,11.223998 14.854207,10.979207 L14.854207,10.107998 C14.8543281,9.83438672 14.6820117,9.59038281 14.424082,9.49895703 C13.1357656,9.04243359 12.2737598,7.82513867 12.2708535,6.45835352 L12.2708535,4.52085352 C12.2708535,2.73744531 13.7165918,1.29170703 15.5,1.29170703 C17.2834082,1.29170703 18.7291465,2.73744531 18.7291465,4.52085352 L18.7291465,6.45835352 C18.7263008,7.82513867 17.8642344,9.04243359 16.575918,9.49895703 C16.3179883,9.59032227 16.1456719,9.83432617 16.145793,10.107998 L16.145793,10.979207 C16.1444609,11.2251484 16.2829316,11.4505039 16.502959,11.560457 C17.577666,12.0725625 18.6843418,12.5145547 19.816084,12.8837695 C21.2478965,13.360334 21.3125,14.190916 21.3125,14.225791 L21.9583535,14.2083535 L22.604207,14.2083535 C22.6041465,14.136666 22.5770215,12.441959 20.2248965,11.6579375 Z" id="Path"></path>
                        <path d="M11.8291035,24.574584 C10.8817266,24.2603457 9.95136328,23.897125 9.04170703,23.486375 L9.04170703,23.456041 C10.6170156,22.706834 11.6219121,21.119416 11.625,19.375 L11.625,17.4375 C11.625,14.9407285 9.60097852,12.9166465 7.10414648,12.9166465 C4.607375,12.9166465 2.58329297,14.940668 2.58329297,17.4375 L2.58329297,19.375 C2.58638086,21.119416 3.59127734,22.7068945 5.16664648,23.456041 L5.16664648,23.486375 C4.25699023,23.8971855 3.32656641,24.2604063 2.37925,24.574584 C0.027125,25.358666 0,27.0533125 0,27.125 L0,31 L1.29164648,31 L1.29164648,27.1424375 C1.29164648,27.1075625 1.35625,26.277041 2.78739648,25.803625 C3.91944141,25.4333809 5.02635937,24.9902988 6.1011875,24.4771035 C6.32121484,24.3671504 6.45968555,24.1417949 6.45835352,23.8958535 L6.45835352,23.0246445 C6.45847461,22.7510332 6.2861582,22.5070293 6.02822852,22.4156035 C4.73991211,21.9590801 3.8778457,20.7417852 3.875,19.375 L3.875,17.4375 C3.875,15.6540918 5.32073828,14.2083535 7.10414648,14.2083535 C8.88755469,14.2083535 10.333293,15.6540918 10.333293,17.4375 L10.333293,19.375 C10.3304473,20.7417852 9.46838086,21.9590801 8.18006445,22.4156035 C7.92213477,22.5069688 7.74981836,22.7509727 7.74993945,23.0246445 L7.74993945,23.8958535 C7.74860742,24.1417949 7.88707813,24.3671504 8.10710547,24.4771035 C9.18199414,24.989209 10.2889121,25.4312617 11.4208965,25.800416 C12.852043,26.277041 12.9166465,27.1075625 12.9166465,27.125 L12.9166465,31 L14.2082931,31 L14.208293,27.125 C14.2083535,27.0533125 14.1812285,25.358666 11.8291035,24.574584 Z" id="Path"></path>
                        <path d="M31,31 L31,27.125 C31,27.0533125 30.972875,25.358666 28.62075,24.574584 C27.673373,24.2603457 26.7430098,23.897125 25.8333535,23.486375 L25.8333535,23.456041 C27.4086621,22.7068945 28.4135586,21.119416 28.416707,19.375 L28.416707,17.4375 C28.416707,14.9407285 26.3926855,12.9166465 23.8958535,12.9166465 C21.3990215,12.9166465 19.375,14.9407285 19.375,17.4375 L19.375,19.375 C19.3780879,21.119416 20.3829844,22.7068945 21.9583535,23.456041 L21.9583535,23.486375 C21.0486973,23.8971855 20.1182734,24.2604063 19.170957,24.574584 C16.818832,25.3586055 16.791707,27.0533125 16.791707,27.125 L16.791707,31 L18.0833535,31 L18.0833535,27.1424375 C18.0833535,27.1075625 18.147957,26.277041 19.5791035,25.803625 C20.7111484,25.4333809 21.8180664,24.9902988 22.8928945,24.4771035 C23.1129219,24.3671504 23.2513926,24.1417949 23.2500605,23.8958535 L23.2500605,23.0246445 C23.2501816,22.7510332 23.0778652,22.5070293 22.8199355,22.4156035 C21.5316191,21.9590801 20.6696133,20.7417852 20.666707,19.375 L20.666707,17.4375 C20.666707,15.6540918 22.1124453,14.2083535 23.8958535,14.2083535 C25.6792617,14.2083535 27.125,15.6540918 27.125,17.4375 L27.125,19.375 C27.1221543,20.7417852 26.2600879,21.9590801 24.9717715,22.4156035 C24.7138418,22.5069688 24.5415254,22.7509727 24.5416465,23.0246445 L24.5416465,23.8958535 C24.5403145,24.1417949 24.6787852,24.3671504 24.8988125,24.4771035 C25.9737012,24.989209 27.0806191,25.4312617 28.2126035,25.800416 C29.64375,26.277041 29.7083535,27.1075625 29.7083535,27.125 L29.7083535,31 L31,31 Z" id="Path"></path>
                        <rect id="Rectangle" x="14.8541465" y="17.4375" width="1.29164648" height="1.29164648"></rect>
                        <rect id="Rectangle" x="14.8541465" y="14.8541465" width="1.29164648" height="1.29164648"></rect>
                        <rect id="Rectangle" x="14.8541465" y="20.0208535" width="1.29164648" height="1.29164648"></rect>
                        <rect id="Rectangle" x="20.0208535" y="27.7708535" width="1.29164648" height="3.22914648"></rect>
                        <rect id="Rectangle" x="26.4791465" y="27.7708535" width="1.29164648" height="3.22914648"></rect>
                        <rect id="Rectangle" x="9.6875" y="27.7708535" width="1.29164648" height="3.22914648"></rect>
                        <rect id="Rectangle" x="3.22914648" y="27.7708535" width="1.29164648" height="3.22914648"></rect>
                    </g>
                </g>
            </g>
        </g>
    </g>
</svg>