<?xml version="1.0" encoding="UTF-8"?>
<svg width="36px" height="32px" viewBox="0 0 36 32" version="1.1" xmlns="http://www.w3.org/2000/svg" xmlns:xlink="http://www.w3.org/1999/xlink">
    <!-- Generator: sketchtool 53.2 (72643) - https://sketchapp.com -->
    <title>5886D854-D318-4488-9B60-CC9E8739F667</title>
    <desc>Created with sketchtool.</desc>
    <g id="Page-1" stroke="none" stroke-width="1" fill="none" fill-rule="evenodd">
        <g id="CONNEX-SOLUTIONS-V2" transform="translate(-1095.000000, -1733.000000)" fill="#C2D1E4" fill-rule="nonzero" stroke="#FFFFFF">
            <g id="selective" transform="translate(1096.000000, 1734.000000)">
                <path d="M33.7764588,0.913574533 C33.4713351,0.350035492 32.878701,1.52442161e-14 32.229634,1.52442161e-14 C30.1368814,1.69380179e-15 28.4774828,1.69380179e-15 27.2514381,1.52442161e-14 C25.4123711,3.64167386e-14 19.8041237,3.64167386e-14 17.4187784,1.52442161e-14 C15.033433,-5.08140538e-15 13.2712165,-5.08140538e-15 12.375299,1.52442161e-14 C11.4793814,3.64167386e-14 7.09793814,3.64167386e-14 5.91705155,1.52442161e-14 C5.12979381,1.1292012e-15 3.75910309,1.1292012e-15 1.80497938,1.52442161e-14 C1.15591237,1.52442161e-14 0.563278351,0.350035492 0.258154639,0.913574533 C-0.0468814433,1.47702738 -0.0114793814,2.15615312 0.350690722,2.68590395 L12.110134,19.8865153 L12.110134,29.6508764 C12.110134,29.941524 12.2590155,30.2126054 12.5062165,30.3718065 C12.651067,30.465155 12.8183505,30.5128205 12.9865103,30.5128205 C13.1051598,30.5128205 13.2242474,30.4891171 13.3363247,30.4411068 L21.3981804,26.9879002 C21.7178505,26.8509373 21.924567,26.5406374 21.924567,26.1976699 L21.924567,19.8864291 L33.6839227,2.68581776 C34.0460928,2.15615312 34.0815825,1.47702738 33.7764588,0.913574533 Z M20.3210464,19.1425713 C20.223866,19.2847059 20.1719021,19.4521817 20.1719021,19.6235361 L20.1719021,25.6329241 L13.8626237,28.3353774 L13.8626237,20.4854802 L15.2758144,20.4854802 C15.7597887,20.4854802 16.1521031,20.0995879 16.1521031,19.6235361 C16.1521031,19.1474844 15.7597887,18.7615921 15.2758144,18.7615921 L13.4530464,18.7615921 L4.63381443,5.86121976 L8.06706701,5.86121976 C8.55104124,5.86121976 8.94335567,5.47532739 8.94335567,4.99927568 C8.94335567,4.52322396 8.55104124,4.13733159 8.06706701,4.13733159 L3.45529381,4.13733159 L1.8053299,1.72388816 L32.2295464,1.72388816 L20.3210464,19.1425713 Z" id="Shape" stroke-width="0.2"></path>
                <path d="M15.8107469,11.3540195 L17.3645106,11.3540195 C17.8041121,11.3540195 18.1603408,11.7081197 18.1603408,12.1450944 C18.1603408,12.5820691 17.8041121,12.9361693 17.3645106,12.9361693 L14.5753153,12.9361693 C14.0750792,12.9361693 13.6657951,13.3430079 13.6657951,13.840255 C13.6657951,14.3375021 14.0750792,14.7443406 14.5753153,14.7443406 L15.6818982,14.7443406 L15.6818982,15.4751431 C15.6818982,15.9723903 16.0911823,16.3792288 16.5914185,16.3792288 C17.0916546,16.3792288 17.5009387,15.9723903 17.5009387,15.4751431 L17.5009387,14.7443406 C18.8803777,14.6765342 19.9793813,13.5388931 19.9793813,12.1526284 C19.9793813,10.7211595 18.8045843,9.55338222 17.3645106,9.55338222 L15.8107469,9.55338222 C15.3711455,9.55338222 15.0149167,9.19928201 15.0149167,8.76230729 C15.0149167,8.32533256 15.3711455,7.97123236 15.8107469,7.97123236 L18.5468869,7.97123236 C19.0471231,7.97123236 19.4564072,7.56439382 19.4564072,7.06714672 C19.4564072,6.56989962 19.0471231,6.16306108 18.5468869,6.16306108 L17.4933593,6.16306108 L17.4933593,5.45486066 C17.4933593,4.95761356 17.0840752,4.55077503 16.5838391,4.55077503 C16.083603,4.55077503 15.6743189,4.95761356 15.6743189,5.45486066 L15.6743189,6.17059513 C14.2948799,6.23840155 13.1958763,7.37604264 13.1958763,8.76230729 C13.2034556,10.1862422 14.3706732,11.3540195 15.8107469,11.3540195 Z" id="Path" stroke-width="0.3"></path>
            </g>
        </g>
    </g>
</svg>