<?xml version="1.0" encoding="utf-8"?>
<!-- Generator: Adobe Illustrator 22.1.0, SVG Export Plug-In . SVG Version: 6.00 Build 0)  -->
<svg version="1.1" id="Шар_1" xmlns="http://www.w3.org/2000/svg" xmlns:xlink="http://www.w3.org/1999/xlink" x="0px" y="0px"
	 viewBox="0 0 968 634" style="enable-background:new 0 0 968 634;" xml:space="preserve">
<style type="text/css">
	.st0{opacity:0.7991;}
	.st1{fill:url(#services_detail_bg_1_);}
</style>
<title>1E262B4D-C2F5-4D51-8BF5-A6D27C018E66</title>
<desc>Created with sketchtool.</desc>
<g id="Page-1" class="st0">
	<g id="CONNEX-SOLUTIONS-V2" transform="translate(0.000000, -1331.000000)">
		<g id="Group-13" transform="translate(-419.000000, 1331.000000)">
			
				<linearGradient id="services_detail_bg_1_" gradientUnits="userSpaceOnUse" x1="1806.0386" y1="318.9792" x2="418.9984" y2="318.9792" gradientTransform="matrix(1 0 0 -1 -419 636)">
				<stop  offset="0" style="stop-color:#C6C6C6;stop-opacity:0.2"/>
				<stop  offset="1" style="stop-color:#FFFFFF;stop-opacity:0.8"/>
			</linearGradient>
			<path id="services_detail_bg" class="st1" d="M712.9,11.4L1347,353.8c38.3,20.7,51.4,66.4,29.3,102.2
				c-11.2,18.2-30.2,31.2-52.2,35.7L494,632.3c-36.7,7.5-74-9.8-89.7-41.7c-31.5-63.7-176-67.9-251.7-116.8
				C50,407.5-42,296.2,20.2,195.5c31.7-51.3,84.5-84.5,196.8-91.1C291.9,100,434.8,66.3,645.8,3.1C665.8-4,695.6,2.1,712.9,11.4z"/>
		</g>
	</g>
</g>
</svg>
