<?xml version="1.0" encoding="UTF-8"?>
<svg width="297px" height="703px" viewBox="0 0 297 703" version="1.1" xmlns="http://www.w3.org/2000/svg" xmlns:xlink="http://www.w3.org/1999/xlink">
    <!-- Generator: Sketch 53.2 (72643) - https://sketchapp.com -->
    <title>services shape</title>
    <desc>Created with Sketch.</desc>
    <g id="Page-1" stroke="none" stroke-width="1" fill="none" fill-rule="evenodd">
        <g id="CONNEX_SOLUTIONS_HERO_2" transform="translate(0.000000, -723.000000)">
            <g id="SERVICES" transform="translate(-229.000000, 376.000000)">
                <g id="services-shape" transform="translate(0.681554, 0.000000)">
                    <path d="M74.3898049,0.831984888 L221.919951,341.820662 L334.298245,445.24325 C407.337049,508.643471 454.088269,550.222055 474.551907,569.979001 C578.470002,670.308389 498.380971,792.463838 436.925476,846.707256 C375.469981,900.950673 248.915032,937.761634 248.998215,1018.7652 C249.081399,1099.76877 125.914047,1018.73377 93.8274719,998.014642 C72.4364217,984.201888 64.9195933,921.163151 71.2769867,808.898432 L74.3898049,0.831984888 Z" id="Path" fill="#00D2AB"></path>
                    <path d="M5.09221498,25.1778143 L124.108381,300.261693 L214.76669,383.695217 C273.688874,434.841721 311.404224,468.384178 327.912739,484.322588 C411.746,565.260752 347.136226,663.806531 297.55858,707.566018 C247.980933,751.325505 145.88597,781.021805 145.953077,846.369358 C146.020183,911.716911 46.6580775,846.344004 20.7730549,829.629376 C3.51637316,818.48629 -2.54763558,767.631405 2.58102867,677.064718 L5.09221498,25.1778143 Z" id="Path" fill="#00C9A4"></path>
                </g>
            </g>
        </g>
    </g>
</svg>