<?xml version="1.0" encoding="UTF-8"?>
<svg width="157px" height="96px" viewBox="0 0 157 96" version="1.1" xmlns="http://www.w3.org/2000/svg" xmlns:xlink="http://www.w3.org/1999/xlink">
    <!-- Generator: Sketch 53.2 (72643) - https://sketchapp.com -->
    <title>content (1)</title>
    <desc>Created with Sketch.</desc>
    <g id="Page-1" stroke="none" stroke-width="1" fill="none" fill-rule="evenodd">
        <g id="CONNEX-SOLUTIONS-2" transform="translate(-532.000000, -1553.000000)" fill="#0B7CFE" fill-rule="nonzero" stroke="#FFFFFF">
            <g id="Group" transform="translate(-419.000000, 1389.000000)">
                <g id="Group-13">
                    <g id="content-(1)" transform="translate(954.000000, 167.000000)">
                        <path d="M33.6153846,31.6128497 C31.6674462,29.6710881 28.5095877,29.6710881 26.5611815,31.6128497 L1.61774769,56.4831606 L8.67195077,63.5166839 L30.0885169,42.1629016 L56.4939569,68.4909326 L63.54816,61.4574093 L33.6153846,31.6128497 Z" id="Path" stroke-width="5.61999989"></path>
                        <path d="M68.5360985,26.638601 C66.58816,24.6968394 63.4303015,24.6968394 61.4818954,26.638601 L51.5046154,36.5866321 L58.5588185,43.6201554 L65.0092308,37.1886528 L81.4369231,53.5681865 L88.4911262,46.5346632 L68.5360985,26.638601 Z" id="Path" stroke-width="5.61999989"></path>
                        <rect id="Rectangle" stroke-width="4" x="105.54272" y="54.9821891" width="24.9434338" height="9.94803109"></rect>
                        <rect id="Rectangle" stroke-width="4" x="105.54272" y="5.24110104" width="46.3015385" height="9.94803109"></rect>
                        <rect id="Rectangle" stroke-width="4" x="105.54272" y="30.1118782" width="46.3015385" height="9.94803109"></rect>
                        <path d="M79.9753846,0.311036269 L10.1334892,0.311036269 C4.62313846,0.311036269 0.156209231,4.76487047 0.156209231,10.2590674 L0.156209231,79.8962176 C0.156209231,85.3904145 4.62313846,89.8442487 10.1334892,89.8442487 L79.9753846,89.8442487 C85.4857354,89.8442487 89.9526646,85.3904145 89.9526646,79.8962176 L89.9526646,10.2590674 C89.9526646,4.76487047 85.4857354,0.311036269 79.9753846,0.311036269 Z M79.9753846,79.8962176 L10.1334892,79.8962176 L10.1334892,10.2590674 L79.9753846,10.2590674 L79.9753846,79.8962176 Z" id="Shape" stroke-width="5.61999989"></path>
                    </g>
                </g>
            </g>
        </g>
    </g>
</svg>