<?xml version="1.0" encoding="UTF-8"?>
<svg width="86px" height="86px" viewBox="0 0 86 86" version="1.1" xmlns="http://www.w3.org/2000/svg" xmlns:xlink="http://www.w3.org/1999/xlink">
    <!-- Generator: Sketch 53.2 (72643) - https://sketchapp.com -->
    <title>research</title>
    <desc>Created with Sketch.</desc>
    <g id="Page-1" stroke="none" stroke-width="1" fill="none" fill-rule="evenodd">
        <g id="CONNEX-SOLUTIONS-2" transform="translate(-709.000000, -1556.000000)" fill="#0B7CFE" fill-rule="nonzero">
            <g id="research" transform="translate(710.000000, 1557.000000)">
                <path d="M49.9666283,53.9122621 C44.5445117,58.4177807 37.6942716,60.9131145 30.5864673,60.9133458 C13.8372336,60.9138692 0.258803738,47.336486 0.258018692,30.5872523 C0.257495327,13.8380187 13.8348785,0.259588785 30.5841121,0.258803738 C38.6287477,0.258542056 46.3439252,3.45446729 52.0318505,9.14343925 C63.2078344,20.3216458 63.835144,38.05228 53.9150988,49.9659974 L59.7940273,55.844926 L61.7148785,53.9240748 C62.238243,53.4007103 62.9479252,53.1065794 63.6882243,53.1063178 C64.4282617,53.1063178 65.1382056,53.4007103 65.6615701,53.9240748 L83.1825047,71.4392523 C84.2721495,72.5291589 84.2721495,74.2960374 83.1825047,75.3862056 L75.3948411,83.1738692 C74.8730467,83.7003738 74.1628411,83.9976449 73.4214953,84 C72.6814579,84 71.971514,83.7058692 71.4481495,83.182243 L53.927215,65.6586916 C52.8375701,64.5685234 52.8375701,62.8016449 53.927215,61.7117383 L55.8466647,59.7922886 L49.9666337,53.9122576 Z M30.5697196,55.3334953 C44.2358131,55.3382056 55.3180561,44.2632897 55.3227664,30.5971963 C55.3248598,24.0362991 52.7213832,17.7431028 48.0848972,13.1013832 C43.4570467,8.44003738 37.1549533,5.82635514 30.5864673,5.84414953 C16.9203738,5.83943925 5.83813084,16.9143551 5.83342056,30.5804486 C5.82871028,44.2465421 16.9036262,55.328785 30.5697196,55.3334953 Z M73.4212336,77.2619439 L77.2619439,73.4212336 L63.6879626,59.8443738 L59.8472523,63.6850841 L73.4212336,77.2619439 Z" id="Combined-Shape" stroke="#FFFFFF" stroke-width="1.35000002"></path>
                <path d="M35.1311708,37.0546128 C35.4445627,37.7080432 35.6200209,38.4396458 35.6200209,39.2120535 C35.6200209,41.9802228 33.3664791,44.2242991 30.5866338,44.2242991 C27.8067885,44.2242991 25.5532467,41.9802228 25.5532467,39.2120535 C25.5532467,38.4414934 25.7278665,37.7115435 26.0398502,37.0593033 L21.0039485,32.0445537 C20.3489301,32.3552588 19.6158638,32.5291639 18.8420115,32.5291639 C18.0654426,32.5291639 17.3299466,32.3540356 16.6731791,32.0412765 L7.34466423,41.3399255 L4.97196262,38.9771899 L14.2998049,29.6792114 C13.9849525,29.0245514 13.8086244,28.2912387 13.8086244,27.5169184 C13.8086244,24.7487492 16.0621661,22.5046729 18.8420115,22.5046729 C21.6218568,22.5046729 23.8753986,24.7487492 23.8753986,27.5169184 C23.8753986,28.2939421 23.6978371,29.0296713 23.3809153,29.6860653 L28.4082313,34.6922652 C29.0674208,34.3766427 29.8062908,34.199808 30.5866338,34.199808 C31.3651228,34.199808 32.1023356,34.3758034 32.7603364,34.6900179 L37.7899893,29.6814909 C37.4744495,29.0262538 37.2977118,28.2921375 37.2977118,27.5169184 C37.2977118,24.7487492 39.5512535,22.5046729 42.3310989,22.5046729 C45.1111015,22.5046729 47.3646433,24.7487492 47.364486,27.5169184 C47.364486,30.2850876 45.1109442,32.5291639 42.3310989,32.5291639 C41.5554331,32.5291639 40.8207447,32.3544427 40.1645581,32.0423671 L35.1311708,37.0546128 Z M18.8420115,29.1875625 C19.7686266,29.1875625 20.5198596,28.4396415 20.5198596,27.5167618 C20.5198596,26.5940387 19.7686266,25.8459611 18.8420115,25.8459611 C17.9153964,25.8459611 17.1641633,26.5940387 17.1641633,27.5167618 C17.1641633,28.4394849 17.9153964,29.1875625 18.8420115,29.1875625 Z M30.5866338,40.8828543 C31.5132489,40.8828543 32.2643247,40.1347766 32.264482,39.2120535 C32.264482,38.2893305 31.5132489,37.5412528 30.5866338,37.5412528 C29.6600187,37.5412528 28.9087857,38.2893305 28.9087857,39.2120535 C28.9087857,40.1347766 29.6600187,40.8828543 30.5866338,40.8828543 Z M42.3310989,29.1875625 C43.257714,29.1875625 44.008947,28.4396415 44.008947,27.5167618 C44.008947,26.5940387 43.257714,25.8459611 42.3310989,25.8459611 C41.4044838,25.8459611 40.6532507,26.5940387 40.6532507,27.5167618 C40.6532507,28.4394849 41.4044838,29.1875625 42.3310989,29.1875625 Z" id="Combined-Shape"></path>
            </g>
        </g>
    </g>
</svg>