<?xml version="1.0" encoding="UTF-8"?>
<svg width="84px" height="82px" viewBox="0 0 84 82" version="1.1" xmlns="http://www.w3.org/2000/svg" xmlns:xlink="http://www.w3.org/1999/xlink">
    <!-- Generator: Sketch 53.2 (72643) - https://sketchapp.com -->
    <title>edit (1)</title>
    <desc>Created with Sketch.</desc>
    <g id="Page-1" stroke="none" stroke-width="1" fill="none" fill-rule="evenodd">
        <g id="CONNEX-SOLUTIONS-2" transform="translate(-691.000000, -1560.000000)" fill="#0B7CFE">
            <g id="edit-(1)" transform="translate(691.000000, 1560.000000)">
                <path d="M64.1618237,55.2692421 C63.205527,55.2692421 62.4304805,56.0481641 62.4304805,57.0092421 L62.4304805,72.4585391 C62.4270988,75.3404141 60.1039879,77.6758204 57.2364506,77.6785391 L8.65671642,77.6785391 C5.7891791,77.6758204 3.46606805,75.3404141 3.46268657,72.4585391 L3.46268657,27.1159063 C3.46606805,24.2347109 5.7891791,21.8993046 8.65671642,21.8959063 L24.029151,21.8959063 C24.9854478,21.8959063 25.7604943,21.1169843 25.7604943,20.1559063 C25.7604943,19.1955079 24.9854478,18.4159063 24.029151,18.4159063 L8.65671642,18.4159063 C3.87793852,18.4213438 0.00541044776,22.3132343 0,27.1159063 L0,72.4592188 C0.00541044776,77.2618907 3.87793852,81.1537813 8.65671642,81.1592188 L57.2364506,81.1592188 C62.0152285,81.1537813 65.8877566,77.2618907 65.893167,72.4592188 L65.893167,57.0092421 C65.893167,56.0481641 65.1181203,55.2692421 64.1618237,55.2692421 Z" id="Path" fill-rule="nonzero"></path>
                <path d="M79.7073927,2.33880465 C76.6646923,-0.719109286 71.7317164,-0.719109286 68.6890158,2.33880465 L37.8007695,33.3814921 C37.5890858,33.5942343 37.4362406,33.8579532 37.3564366,34.1475 L33.294543,48.8851641 C33.1274954,49.4894063 33.297248,50.1364688 33.7381997,50.5803046 C34.1798275,51.0234609 34.8236708,51.1940625 35.4249067,51.0268593 L50.0892491,46.9439766 C50.3773554,46.8637734 50.6397621,46.7101641 50.851446,46.4974218 L81.7390158,15.4540546 C84.7769822,12.3941016 84.7769822,7.44053911 81.7390158,4.3805859 L79.7073927,2.33880465 Z M41.5732043,34.5124921 L66.8528451,9.1057734 L75.0057136,17.2994063 L49.7253964,42.706125 L41.5732043,34.5124921 Z M39.9446596,37.7967421 L46.4581624,44.3434921 L37.4484142,46.8522188 L39.9446596,37.7967421 Z M79.2907882,12.9935859 L77.4546176,14.8389375 L69.3010728,6.644625 L71.1379197,4.7992734 C72.8280084,3.10073429 75.5684001,3.10073429 77.2584888,4.7992734 L79.2907882,6.84105465 C80.9781716,8.54163286 80.9781716,11.2936875 79.2907882,12.9935859 L79.2907882,12.9935859 Z" id="Shape" fill-rule="nonzero"></path>
                <text id="5" font-family="FuturaNDAlt-Bold" font-size="17.4" font-weight="bold" letter-spacing="-0.695999984">
                    <tspan x="14.5" y="47.8">5</tspan>
                </text>
                <text id="7" font-family="FuturaNDAlt-Bold" font-size="17.4" font-weight="bold" letter-spacing="-0.695999984">
                    <tspan x="14.5" y="65.2">7</tspan>
                </text>
                <text id="3" font-family="FuturaNDAlt-Bold" font-size="17.4" font-weight="bold" letter-spacing="-0.695999984">
                    <tspan x="29" y="65.2">3</tspan>
                </text>
            </g>
        </g>
    </g>
</svg>