<?xml version="1.0" encoding="UTF-8"?>
<svg width="87px" height="78px" viewBox="0 0 87 78" version="1.1" xmlns="http://www.w3.org/2000/svg" xmlns:xlink="http://www.w3.org/1999/xlink">
    <!-- Generator: Sketch 53.2 (72643) - https://sketchapp.com -->
    <title>writing and content</title>
    <desc>Created with Sketch.</desc>
    <g id="Page-1" stroke="none" stroke-width="1" fill="none" fill-rule="evenodd">
        <g id="CONNEX-SOLUTIONS-2" transform="translate(-704.000000, -1560.000000)" fill="#0B7CFE" fill-rule="nonzero">
            <g id="writing-and-content" transform="translate(704.000000, 1560.000000)">
                <ellipse id="Oval" stroke="#0B7CFE" stroke-width="0.9" cx="9.06244336" cy="8.9064383" rx="1.81255664" ry="1.77026809"></ellipse>
                <ellipse id="Oval" stroke="#0B7CFE" stroke-width="0.9" cx="16.3125" cy="8.9064383" rx="1.81255664" ry="1.77026809"></ellipse>
                <ellipse id="Oval" stroke="#0B7CFE" stroke-width="0.9" cx="23.5625566" cy="8.9064383" rx="1.81255664" ry="1.77026809"></ellipse>
                <path d="M19.9374434,35.4596298 L59.8125,35.4596298 C60.8143594,35.4596298 61.6250566,34.6678468 61.6250566,33.6893617 C61.6250566,32.7108766 60.8143594,31.9190936 59.8125,31.9190936 L19.9374434,31.9190936 C18.935584,31.9190936 18.1248867,32.7108766 18.1248867,33.6893617 C18.1248867,34.6678468 18.9357539,35.4596298 19.9374434,35.4596298 Z" id="Path"></path>
                <path d="M41.6874434,53.1616468 L19.9374434,53.1616468 C18.935584,53.1616468 18.1248867,53.9534298 18.1248867,54.9319149 C18.1248867,55.9104 18.935584,56.702183 19.9374434,56.702183 L41.6874434,56.702183 C42.6893027,56.702183 43.5,55.9104 43.5,54.9319149 C43.5,53.9534298 42.6893027,53.1616468 41.6874434,53.1616468 Z" id="Path"></path>
                <path d="M80.0615801,21.297817 C79.9565684,21.297817 79.8547852,21.3235404 79.7501133,21.3283532 L79.7501133,7.13617021 C79.7501133,3.23102553 76.4967891,0.0552638298 72.5000566,0.0552638298 L7.25005664,0.0552638298 C3.25332422,0.0552638298 0,3.23102553 0,7.13617021 L0,70.8638298 C0,74.7689745 3.25332422,77.9447362 7.25005664,77.9447362 L72.5000566,77.9447362 C76.4967891,77.9447362 79.7501133,74.7691404 79.7501133,70.8638298 L79.7501133,37.9619362 L84.9680742,32.8665447 C84.9680742,32.8665447 84.9680742,32.8665447 84.9680742,32.8648851 C86.2601602,31.6029447 87,29.8569064 87,28.0745234 C87,24.3369957 83.8883906,21.297817 80.0615801,21.297817 Z M3.62494336,7.13617021 C3.62494336,5.18451064 5.24990625,3.5958 7.24988672,3.5958 L72.4998867,3.5958 C74.500207,3.5958 76.125,5.18451064 76.125,7.13617021 L76.125,14.2170766 L3.62494336,14.2170766 L3.62494336,7.13617021 Z M76.125,70.8638298 C76.125,72.8154894 74.5000371,74.4042 72.5000566,74.4042 L7.25005664,74.4042 C5.24990625,74.4042 3.62511328,72.8154894 3.62511328,70.8638298 L3.62511328,17.7574468 L76.125,17.7574468 L76.125,22.5071489 C75.7809082,22.7381617 75.4517695,22.9922426 75.1550859,23.2825021 L55.4339531,42.5405362 L19.9374434,42.5405362 C18.935584,42.5405362 18.1248867,43.3323191 18.1248867,44.3108043 C18.1248867,45.2892894 18.935584,46.0810723 19.9374434,46.0810723 L52.5259102,46.0810723 L50.7854004,54.5847319 C50.6650957,55.165583 50.8526895,55.7655191 51.2810625,56.1837319 C51.6244746,56.5191319 52.0881914,56.7023489 52.5626133,56.7023489 C52.6795195,56.7023489 52.7998242,56.690234 52.9165605,56.6678298 L61.9756055,54.8975617 C62.3295527,54.8283574 62.6517246,54.6607404 62.9030391,54.4134638 L76.125,41.5019745 L76.125,70.8638298 Z M60.7293984,51.5314468 L54.8742305,52.6758894 L56.0460117,46.9503574 L72.499207,30.8810298 L77.1868418,35.4592979 L60.7293984,51.5314468 Z M82.4049727,30.3632426 L79.7499434,32.9563277 L75.0619687,28.3777277 L77.7178477,25.7838128 C78.3338145,25.1838766 79.1869922,24.8381872 80.0614102,24.8381872 C81.8880703,24.8381872 83.3748867,26.2903149 83.3748867,28.0743574 C83.3750566,28.9250553 83.0209395,29.7599872 82.4049727,30.3632426 Z" id="Shape"></path>
            </g>
        </g>
    </g>
</svg>