<?xml version="1.0" encoding="UTF-8"?>
<svg width="121px" height="84px" viewBox="0 0 121 84" version="1.1" xmlns="http://www.w3.org/2000/svg" xmlns:xlink="http://www.w3.org/1999/xlink">
    <!-- Generator: Sketch 53.2 (72643) - https://sketchapp.com -->
    <title>money (1)</title>
    <desc>Created with Sketch.</desc>
    <g id="Page-1" stroke="none" stroke-width="1" fill="none" fill-rule="evenodd">
        <g id="CONNEX-SOLUTIONS-1" transform="translate(-705.000000, -1499.000000)" fill="#DD1962" fill-rule="nonzero" stroke="#FFFFFF" stroke-width="1.5">
            <g id="money-(1)" transform="translate(706.000000, 1500.000000)">
                <path d="M19.4827283,48.5189545 C17.9165163,48.5189545 16.6350701,49.7665847 16.6350701,51.2914661 C16.6350701,52.8163476 17.9165163,54.0639778 19.4827283,54.0639778 L30.422482,54.0639778 C31.988694,54.0639778 33.2701402,52.8163476 33.2701402,51.2914661 C33.2701402,49.7665847 31.988694,48.5189545 30.422482,48.5189545 L19.4827283,48.5189545 Z" id="Path"></path>
                <path d="M69.3879386,54.0639778 L80.3276923,54.0639778 C81.8939043,54.0639778 83.1753505,52.8163476 83.1753505,51.2914661 C83.1753505,49.7665847 81.8939043,48.5189545 80.3276923,48.5189545 L69.3879386,48.5189545 C67.8217266,48.5189545 66.5402804,49.7665847 66.5402804,51.2914661 C66.5402804,52.8163476 67.8217266,54.0639778 69.3879386,54.0639778 Z" id="Path"></path>
                <path d="M111.325183,0 L26.5684446,0 C22.2213225,0 18.6756251,3.56986781 18.6756251,7.94662355 L18.6756251,19.4631149 L5.82854361,19.4631149 C2.62284462,19.4631149 0,22.103839 0,25.3313907 L0,75.9208188 C0,79.1483705 2.62284462,81.7890947 5.82854361,81.7890947 L94.7138336,81.7890947 C97.9195326,81.7890947 100.542377,79.1483705 100.542377,75.9208188 L100.542377,62.3259798 L111.325183,62.3259798 C115.672305,62.3259798 119.218002,58.7561119 119.218002,54.3793562 L119.218002,7.9221724 C119.193717,3.54541666 115.672305,0 111.325183,0 Z M78.3939115,25.3313907 C79.0496227,34.1338045 85.9953038,41.1757355 94.7138336,41.9337212 L94.7138336,59.4896464 C85.9710182,60.1498275 78.9767659,67.1428562 78.2239123,75.9208188 L22.1484657,75.9208188 C21.4927546,67.118405 14.5470734,60.076474 5.82854361,59.3184884 L5.82854361,41.7625631 C14.571359,41.1023821 21.5656113,34.1093534 22.3184649,25.3313907 L78.3939115,25.3313907 L78.3939115,25.3313907 Z M84.2224551,25.3313907 L94.689548,25.3313907 L94.689548,36.0409942 C89.2010028,35.3074597 84.8538807,30.8818017 84.2224551,25.3313907 Z M16.4413501,25.3313907 C15.7370677,30.8573505 11.3413744,35.2585574 5.80425801,35.8698361 L5.80425801,25.3313907 L16.4413501,25.3313907 Z M5.82854361,65.2112154 C11.3170888,65.9202987 15.6884965,70.3459567 16.2956365,75.9208188 L5.82854361,75.9208188 L5.82854361,65.2112154 Z M84.0767415,75.8963677 C84.7810239,70.3704079 89.1767172,65.969201 94.7138336,65.3579223 L94.7138336,75.8963677 L84.0767415,75.8963677 Z M113.365173,54.3793562 C113.365173,55.5285602 112.44232,56.4577039 111.300897,56.4577039 L100.518092,56.4577039 L100.518092,25.3313907 C100.518092,22.103839 97.895247,19.4631149 94.689548,19.4631149 L24.4798832,19.4631149 L24.4798832,7.94662355 C24.4798832,6.79741953 25.4027359,5.86827585 26.544159,5.86827585 L111.300897,5.86827585 C112.44232,5.86827585 113.365173,6.79741953 113.365173,7.94662355 L113.365173,54.3793562 Z" id="Shape"></path>
                <path d="M48.7512878,54.2087842 L53.8316444,54.2087842 C55.2690136,54.2087842 56.4337783,55.3707668 56.4337783,56.8047027 C56.4337783,58.2386387 55.2690136,59.4006213 53.8316444,59.4006213 L44.7117848,59.4006213 C43.0761578,59.4006213 41.7379175,60.7356652 41.7379175,62.3673854 C41.7379175,63.9991057 43.0761578,65.3341495 44.7117848,65.3341495 L48.32999,65.3341495 L48.32999,67.7322838 C48.32999,69.3640041 49.6682302,70.6990479 51.3038573,70.6990479 C52.9394843,70.6990479 54.2777245,69.3640041 54.2777245,67.7322838 L54.2777245,65.3341495 C58.7880899,65.1116422 62.3815129,61.3784641 62.3815129,56.8294258 C62.3815129,52.1320493 58.5402676,48.299979 53.8316444,48.299979 L48.7512878,48.299979 C47.3139186,48.299979 46.149154,47.1379964 46.149154,45.7040604 C46.149154,44.2701244 47.3139186,43.1081418 48.7512878,43.1081418 L57.6976719,43.1081418 C59.3332989,43.1081418 60.6715392,41.773098 60.6715392,40.1413778 C60.6715392,38.5096575 59.3332989,37.1746137 57.6976719,37.1746137 L54.2529423,37.1746137 L54.2529423,34.8506484 C54.2529423,33.2189282 52.914702,31.8838844 51.279075,31.8838844 C49.643448,31.8838844 48.3052077,33.2189282 48.3052077,34.8506484 L48.3052077,37.1993367 C43.7948424,37.421844 40.2014194,41.1550221 40.2014194,45.7040604 C40.2262016,50.3767139 44.0426646,54.2087842 48.7512878,54.2087842 Z" id="Path"></path>
            </g>
        </g>
    </g>
</svg>