<?xml version="1.0" encoding="utf-8"?>
<!-- Generator: Adobe Illustrator 22.1.0, SVG Export Plug-In . SVG Version: 6.00 Build 0)  -->
<svg version="1.1" id="Шар_1" xmlns="http://www.w3.org/2000/svg" xmlns:xlink="http://www.w3.org/1999/xlink" x="0px" y="0px"
	 viewBox="0 0 110 100" style="enable-background:new 0 0 110 100;" xml:space="preserve">
<style type="text/css">
	.st0{fill:none;stroke:#DD1962;stroke-width:4;}
	.st1{fill:#DD1962;}
</style>
<title>sales</title>
<desc>Created with Sketch.</desc>
<g id="Page-1">
	<g id="sales" transform="translate(678.000000, 1495.000000)">
		<path id="Shape" class="st0" d="M-570.7-1490.1c-1-1.8-2.8-2.9-4.8-2.9c-6.5,0-11.7,0-15.5,0c-5.7,0-23.2,0-30.7,0s-12.9,0-15.7,0
			c-2.8,0-16.5,0-20.1,0c-2.5,0-6.7,0-12.8,0c-2,0-3.9,1.1-4.8,2.9c-1,1.8-0.8,3.9,0.3,5.5l36.7,53.8v30.6c0,0.9,0.5,1.8,1.2,2.3
			c0.5,0.3,1,0.4,1.5,0.4c0.4,0,0.7-0.1,1.1-0.2l25.1-10.8c1-0.4,1.6-1.4,1.6-2.5v-19.8l36.7-53.8
			C-569.9-1486.3-569.7-1488.4-570.7-1490.1z"/>
		<path id="Path" class="st1" d="M-626.7-1457.5h4.8c1.4,0,2.5,1.1,2.5,2.5c0,1.4-1.1,2.5-2.5,2.5h-8.7c-1.6,0-2.8,1.3-2.8,2.8
			c0,1.6,1.3,2.8,2.8,2.8h3.4v2.3c0,1.6,1.3,2.8,2.8,2.8s2.8-1.3,2.8-2.8v-2.3c4.3-0.2,7.7-3.8,7.7-8.1c0-4.5-3.7-8.1-8.2-8.1h-4.8
			c-1.4,0-2.5-1.1-2.5-2.5s1.1-2.5,2.5-2.5h8.5c1.6,0,2.8-1.3,2.8-2.8s-1.3-2.8-2.8-2.8h-3.3v-2.2c0-1.6-1.3-2.8-2.8-2.8
			c-1.6,0-2.8,1.3-2.8,2.8v2.2c-4.3,0.2-7.7,3.8-7.7,8.1C-634.8-1461.1-631.2-1457.5-626.7-1457.5z"/>
	</g>
</g>
</svg>
