<?xml version="1.0" encoding="UTF-8"?>
<svg width="119px" height="119px" viewBox="0 0 119 119" version="1.1" xmlns="http://www.w3.org/2000/svg" xmlns:xlink="http://www.w3.org/1999/xlink">
    <!-- Generator: Sketch 53.2 (72643) - https://sketchapp.com -->
    <title>subject</title>
    <desc>Created with Sketch.</desc>
    <g id="Page-1" stroke="none" stroke-width="1" fill="none" fill-rule="evenodd">
        <g id="CONNEX-SOLUTIONS-1" transform="translate(-672.000000, -1492.000000)" fill="#DD1962" fill-rule="nonzero" stroke="#FFFFFF">
            <g id="subject" transform="translate(674.000000, 1494.000000)">
                <path d="M98.1542969,47.8014373 L81.4419556,47.8014373 C79.5810319,47.8014373 78.0728149,49.3105315 78.0728149,51.1705779 C78.0728149,51.6101456 78.1596757,52.028656 78.3123397,52.413826 C78.8071823,53.6588288 80.0205994,54.5397185 81.4419556,54.5397185 L98.1542969,54.5397185 C103.727417,54.5397185 108.261719,59.0740203 108.261719,64.6471404 L108.261719,98.1542969 C108.261719,103.727417 103.727417,108.261719 98.1542969,108.261719 L60.0663375,108.261719 C54.4932174,108.261719 49.9589157,103.727417 49.9589157,98.1542969 L49.9589157,61.199913 C49.9589157,59.1345597 51.6390991,57.4543762 53.7044524,57.4543762 L61.2955476,57.4543762 C67.0766068,57.4543762 71.7793656,52.7516174 71.7793656,46.9705582 L71.7793656,16.8457031 C71.7793656,7.55687708 64.2224885,0 54.9336625,0 L16.8457031,0 C7.55687708,0 1.13686838e-13,7.55687708 1.13686838e-13,16.8457031 L1.13686838e-13,52.6875687 C1.13686838e-13,61.9763948 7.55687708,69.5332718 16.8457031,69.5332718 L43.2206344,69.5332718 L43.2206344,98.1542969 C43.2206344,107.443123 50.7775115,115 60.0663375,115 L98.1542969,115 C107.443123,115 115,107.443123 115,98.1542969 L115,64.6471404 C115,55.3591919 107.443123,47.8014373 98.1542969,47.8014373 L98.1542969,47.8014373 Z M43.2206344,62.7949906 L16.8457031,62.7949906 C11.272583,62.7949906 6.73828125,58.2606888 6.73828125,52.6875687 L6.73828125,16.8457031 C6.73828125,11.272583 11.272583,6.73828125 16.8457031,6.73828125 L54.9336625,6.73828125 C60.5067826,6.73828125 65.0410843,11.272583 65.0410843,16.8457031 L65.0410843,46.9705582 C65.0410843,49.0359115 63.3609009,50.716095 61.2955476,50.716095 L53.7044524,50.716095 C47.9233932,50.716095 43.2206344,55.4188538 43.2206344,61.199913 L43.2206344,62.7949906 Z" id="Shape" stroke-width="2.06966859"></path>
                <path d="M63.7188721,98.779869 C74.5492554,98.779869 83.3599089,89.9692154 83.3599089,79.1397095 L83.3599089,78.1228256 L86.4307405,78.1228256 L86.4307405,95.4107284 C86.4307405,97.2716521 87.9389572,98.779869 89.7998811,98.779869 C91.6608048,98.779869 93.1690217,97.2716521 93.1690217,95.4107284 L93.1690217,78.1228256 L94.5017623,78.1228256 C96.3626863,78.1228256 97.870903,76.6146087 97.870903,74.7536849 C97.870903,72.8936386 96.3626863,71.3845443 94.5017623,71.3845443 L93.1690217,71.3845443 L93.1690217,62.809906 C93.1690217,60.9489823 91.6608048,59.4407654 89.7998811,59.4407654 C87.9389572,59.4407654 86.4307405,60.9489823 86.4307405,62.809906 L86.4307405,71.3845443 L70.2965927,71.3845443 C68.4356689,71.3845443 66.927452,72.8936386 66.927452,74.7536849 C66.927452,76.6146087 68.4356689,78.1228256 70.2965927,78.1228256 L76.6216277,78.1228256 L76.6216277,79.1397095 C76.6216277,86.2535095 70.8335494,92.0415878 63.7188721,92.0415878 C61.8579484,92.0415878 60.3497314,93.550682 60.3497314,95.4107284 C60.3497314,97.2716521 61.8579484,98.779869 63.7188721,98.779869 L63.7188721,98.779869 Z" id="Path" stroke-width="1.79999995"></path>
                <path d="M49.2394637,42.3713302 L38.9907837,18.2293319 C38.4626008,16.9852067 37.2412873,16.1771394 35.889244,16.1771394 C34.5380783,16.1771394 33.3167648,16.9852067 32.7885819,18.2293319 L22.5399016,42.3713302 C21.8125533,44.0839767 22.6118469,46.0615922 24.3244934,46.7889404 C24.7535324,46.9714355 25.2001189,47.0574187 25.6388093,47.0574187 C26.9504928,47.0574187 28.1972503,46.2870789 28.7421036,45.0043489 L30.7311248,40.3182601 L41.0482406,40.3182601 L43.037262,45.0043489 C43.7646102,46.7169954 45.7422257,47.5162887 47.4548722,46.7889404 C49.1675187,46.0615922 49.9668122,44.0839767 49.2394637,42.3713302 Z M33.5922623,33.5799789 L35.889244,28.1674194 L38.1871033,33.5799789 L33.5922623,33.5799789 Z" id="Shape" stroke-width="1.79999995"></path>
            </g>
        </g>
    </g>
</svg>