<?xml version="1.0" encoding="UTF-8"?>
<svg width="102px" height="96px" viewBox="0 0 102 96" version="1.1" xmlns="http://www.w3.org/2000/svg" xmlns:xlink="http://www.w3.org/1999/xlink">
    <!-- Generator: Sketch 53.2 (72643) - https://sketchapp.com -->
    <title>customer service</title>
    <desc>Created with Sketch.</desc>
    <g id="Page-1" stroke="none" stroke-width="1" fill="none" fill-rule="evenodd">
        <g id="customer-service" fill="#DD1962" fill-rule="nonzero">
            <path d="M87.4285714,36.3169811 C87.4285714,16.2113208 71.1267857,0 51,0 C30.8732143,0 14.5714286,16.2113208 14.5714286,36.2264151 C14.5714286,36.2264151 14.5714286,36.2264151 14.5714286,36.3169811 C6.46607143,36.7698113 0,43.4716981 0,51.6226415 L0,53.4339623 C0,61.9471698 6.92142857,68.8301887 15.4821429,68.8301887 L16.3017857,68.8301887 L22.7678571,79.0641509 C27.3214286,86.309434 35.0625,90.5660377 43.6232143,90.5660377 L44.8982143,90.5660377 C45.7178571,93.645283 48.5410714,96 51.9107143,96 C55.9178571,96 59.1964286,92.7396226 59.1964286,88.754717 C59.1964286,84.7698113 55.9178571,81.509434 51.9107143,81.509434 C48.5410714,81.509434 45.7178571,83.8641509 44.8982143,86.9433962 L43.6232143,86.9433962 C36.3375,86.9433962 29.6892857,83.2301887 25.8642857,77.0716981 L20.5821429,68.8301887 L21.8571429,68.8301887 C23.8607143,68.8301887 25.5,67.2 25.5,65.2075472 L25.5,39.8490566 C25.5,37.8566038 23.8607143,36.2264151 21.8571429,36.2264151 L18.2142857,36.2264151 C18.2142857,18.2037736 32.8767857,3.62264151 51,3.62264151 C69.1232143,3.62264151 83.7857143,18.2037736 83.7857143,36.2264151 L80.1428571,36.2264151 C78.1392857,36.2264151 76.5,37.8566038 76.5,39.8490566 L76.5,65.2075472 C76.5,67.2 78.1392857,68.8301887 80.1428571,68.8301887 L86.5178571,68.8301887 C95.0785714,68.8301887 102,61.9471698 102,53.4339623 L102,51.6226415 C102,43.4716981 95.5339286,36.7698113 87.4285714,36.3169811 Z M51.9107143,85.1320755 C53.9142857,85.1320755 55.5535714,86.7622642 55.5535714,88.754717 C55.5535714,90.7471698 53.9142857,92.3773585 51.9107143,92.3773585 C49.9071429,92.3773585 48.2678571,90.7471698 48.2678571,88.754717 C48.2678571,86.7622642 49.9071429,85.1320755 51.9107143,85.1320755 Z M21.8571429,39.8490566 L21.8571429,65.2075472 L15.4821429,65.2075472 C8.925,65.2075472 3.64285714,59.954717 3.64285714,53.4339623 L3.64285714,51.6226415 C3.64285714,45.1018868 8.925,39.8490566 15.4821429,39.8490566 L21.8571429,39.8490566 Z M98.3571429,53.4339623 C98.3571429,59.954717 93.075,65.2075472 86.5178571,65.2075472 L80.1428571,65.2075472 L80.1428571,39.8490566 L86.5178571,39.8490566 C93.075,39.8490566 98.3571429,45.1018868 98.3571429,51.6226415 L98.3571429,53.4339623 Z" id="Shape"></path>
            <path d="M66.1178571,13.6754717 C65.9357143,13.5849057 65.6625,13.4037736 65.3892857,13.2226415 C65.1160714,13.0415094 64.8428571,12.8603774 64.6607143,12.7698113 C63.8410714,12.2264151 62.6571429,12.4981132 62.2017857,13.4037736 C61.7464286,14.309434 61.9285714,15.3056604 62.8392857,15.8490566 C63.0214286,15.9396226 63.2946429,16.1207547 63.5678571,16.3018868 C63.8410714,16.4830189 64.1142857,16.6641509 64.3875,16.754717 C64.6607143,16.9358491 65.025,17.0264151 65.2982143,17.0264151 C65.9357143,17.0264151 66.4821429,16.754717 66.8464286,16.1207547 C67.3017857,15.3056604 67.0285714,14.2188679 66.1178571,13.6754717 Z" id="Path"></path>
            <path d="M51,9.05660377 C43.2589286,9.05660377 35.9732143,12.4075472 30.9642857,18.2037736 C30.3267857,18.9283019 30.4178571,20.1056604 31.1464286,20.7396226 C31.5107143,21.0113208 31.875,21.1924528 32.3303571,21.1924528 C32.8767857,21.1924528 33.3321429,21.0113208 33.6964286,20.5584906 C38.0678571,15.5773585 44.3517857,12.6792453 51,12.6792453 C52.6392857,12.6792453 54.2785714,12.8603774 55.9178571,13.2226415 C56.9196429,13.4037736 57.8303571,12.7698113 58.1035714,11.8641509 C58.3767857,10.9584906 57.6482143,9.96226415 56.7375,9.69056604 C54.825,9.23773585 52.9125,9.05660377 51,9.05660377 Z" id="Path"></path>
        </g>
    </g>
</svg>