<?xml version="1.0" encoding="utf-8"?>
<!-- Generator: Adobe Illustrator 22.1.0, SVG Export Plug-In . SVG Version: 6.00 Build 0)  -->
<svg version="1.1" id="Шар_1" xmlns="http://www.w3.org/2000/svg" xmlns:xlink="http://www.w3.org/1999/xlink" x="0px" y="0px"
	 viewBox="0 0 25 29" style="enable-background:new 0 0 25 29;" xml:space="preserve">
<style type="text/css">
	.st0{fill:#0B7CFE;stroke:#FFFFFF;stroke-width:0.3;}
</style>
<title>list</title>
<desc>Created with Sketch.</desc>
<g id="Page-1">
	<g id="CONNEX-SOLUTIONS-2" transform="translate(-1078.000000, -1723.000000)">
		<g id="Group-16" transform="translate(973.000000, 1367.000000)">
			<g id="Group-5" transform="translate(79.000000, 340.000000)">
				<g id="list" transform="translate(27.000000, 17.000000)">
					<path id="Path" class="st0" d="M22,2.9h-5.3V1c0-0.5-0.4-1-1-1H7.4c-0.5,0-1,0.4-1,1v5.2c0,0.5,0.4,1,1,1h6.1c0.5,0,1-0.4,1-1
						s-0.4-1-1-1H8.4V2h6.3v1.9c0,0.5,0.4,1,1,1H21V25H2V4.9h1.5c0.5,0,1-0.4,1-1s-0.4-1-1-1H1c-0.5,0-1,0.4-1,1V26c0,0.5,0.4,1,1,1
						H22c0.5,0,1-0.4,1-1V3.9C23,3.3,22.5,2.9,22,2.9z"/>
					<path id="Path_1_" class="st0" d="M16.1,12c-0.4-0.4-1-0.4-1.4,0l-4.6,4.6l-1.7-1.7c-0.4-0.4-1-0.4-1.4,0c-0.4,0.4-0.4,1,0,1.4
						l2.4,2.4c0.2,0.2,0.4,0.3,0.7,0.3c0.3,0,0.5-0.1,0.7-0.3l5.3-5.3C16.5,13,16.5,12.3,16.1,12z"/>
				</g>
			</g>
		</g>
	</g>
</g>
</svg>
