<?xml version="1.0" encoding="UTF-8"?>
<svg width="95px" height="95px" viewBox="0 0 95 95" version="1.1" xmlns="http://www.w3.org/2000/svg" xmlns:xlink="http://www.w3.org/1999/xlink">
    <!-- Generator: Sketch 53.2 (72643) - https://sketchapp.com -->
    <title>pie-chart</title>
    <desc>Created with Sketch.</desc>
    <g id="Page-1" stroke="none" stroke-width="1" fill="none" fill-rule="evenodd">
        <g id="CONNEX-SOLUTIONS-2" transform="translate(-707.000000, -1551.000000)" fill="#0B7CFE" fill-rule="nonzero" stroke="#FFFFFF" stroke-width="0.959999943">
            <g id="Group-16" transform="translate(708.000000, 1367.000000)">
                <g id="Group-5" transform="translate(0.000000, 110.000000)">
                    <g id="pie-chart" transform="translate(0.000000, 75.000000)">
                        <path d="M80.2783019,48.7811321 L44.0921384,48.7811321 L44.0921384,12.5949686 C44.0921384,11.1327044 42.922327,9.96289308 41.4600629,9.96289308 C18.6097484,9.96289308 0.00974842767,28.5628931 0.00974842767,51.4132075 C0.00974842767,74.263522 18.6097484,92.863522 41.4600629,92.863522 C64.3103774,92.863522 82.9103774,74.263522 82.9103774,51.4132075 C82.9103774,49.9704403 81.7210692,48.7811321 80.2783019,48.7811321 Z M41.4600629,87.5993711 C21.5147799,87.5993711 5.27389937,71.3584906 5.27389937,51.4132075 C5.27389937,32.345283 20.0915094,16.6698113 38.8279874,15.3245283 L38.8279874,51.4132075 C38.8279874,52.8754717 39.9977987,54.045283 41.4600629,54.045283 L77.5487421,54.045283 C76.2034591,72.781761 60.5279874,87.5993711 41.4600629,87.5993711 Z" id="Shape"></path>
                        <path d="M92.8537736,41.3138365 C92.8147799,31.2534591 89.1298742,21.563522 82.4814465,14.018239 C74.604717,5.1081761 63.2965409,0 51.4034591,0 C49.941195,0 48.7713836,1.16981132 48.7713836,2.63207547 L48.7713836,41.4503145 C48.7713836,42.9125786 49.941195,44.0823899 51.4034591,44.0823899 L90.2216981,44.0823899 L90.2216981,44.0823899 C91.6839623,44.0823899 92.8537736,42.9125786 92.8537736,41.4503145 C92.8537736,41.4113208 92.8537736,41.372327 92.8537736,41.3138365 Z M54.0355346,38.8377358 L54.0355346,5.38113208 C63.4330189,6.06352201 72.2455975,10.4113208 78.5235849,17.527673 C83.7877358,23.4742138 86.9072327,30.9610063 87.4921384,38.8377358 L54.0355346,38.8377358 Z" id="Shape"></path>
                    </g>
                </g>
            </g>
        </g>
    </g>
</svg>