<?xml version="1.0" encoding="UTF-8"?>
<svg width="372px" height="680px" viewBox="0 0 372 680" version="1.1" xmlns="http://www.w3.org/2000/svg" xmlns:xlink="http://www.w3.org/1999/xlink">
    <!-- Generator: Sketch 53.2 (72643) - https://sketchapp.com -->
    <title>reasons_shape</title>
    <desc>Created with Sketch.</desc>
    <defs>
        <path d="M392.941416,19.8643861 L639.463831,201.284707 C683.278232,233.52852 692.658046,295.185885 660.414233,339.000286 C655.042681,346.299402 648.689504,352.822294 641.534499,358.38436 L244.397254,667.105843 C201.447912,700.493254 139.564747,692.741778 106.177336,649.792436 C98.4905889,639.904256 92.7601644,628.640841 89.2931608,616.605806 L4.78355827,323.247011 C-6.01017982,285.77863 6.3143925,245.469996 36.2159799,220.44442 L271.340412,23.6614127 C306.155475,-5.47640515 356.376276,-7.04456422 392.941416,19.8643861 Z" id="path-1"></path>
    </defs>
    <g id="DESIGN" stroke="none" stroke-width="1" fill="none" fill-rule="evenodd">
        <g id="CONNEX-CAREER-3" transform="translate(0.000000, -569.000000)">
            <g id="IMPACT" transform="translate(-411.000000, 328.000000)">
                <g id="Group-3" transform="translate(469.250913, 582.214996) rotate(-240.000000) translate(-469.250913, -582.214996) translate(128.750913, 237.714996)">
                    <g id="reasons_shape" transform="translate(0.322694, 0.566469)">
                        <mask id="mask-2" fill="white">
                            <use xlink:href="#path-1"></use>
                        </mask>
                        <use id="Mask" fill="#FFD002" xlink:href="#path-1"></use>
                        <path d="M379.196007,120.211361 L579.656274,262.269776 C624.04118,293.723637 634.523863,355.203104 603.070002,399.58801 C595.771095,409.887582 586.560429,418.688136 575.939315,425.510684 L259.22367,628.95521 C213.453111,658.35625 152.51449,645.086134 123.113449,599.315576 C113.888099,584.953859 108.553255,568.441257 107.631954,551.396692 L96.1745404,339.428416 C94.7060133,312.259881 104.540786,285.693993 123.346474,266.031035 L251.059265,132.49637 C284.818201,97.1985115 339.345372,91.9707617 379.196007,120.211361 Z" id="Mask" fill="#FDC701" mask="url(#mask-2)"></path>
                    </g>
                </g>
            </g>
        </g>
    </g>
</svg>