<?xml version="1.0" encoding="UTF-8"?>
<svg width="306px" height="424px" viewBox="0 0 306 424" version="1.1" xmlns="http://www.w3.org/2000/svg" xmlns:xlink="http://www.w3.org/1999/xlink">
    <!-- Generator: Sketch 53.2 (72643) - https://sketchapp.com -->
    <title>Group 8</title>
    <desc>Created with Sketch.</desc>
    <g id="DESIGN" stroke="none" stroke-width="1" fill="none" fill-rule="evenodd">
        <g id="CONNEX-CAREER-3" transform="translate(-1134.000000, -442.000000)">
            <g id="IMPACT" transform="translate(-505.000000, 275.000000)">
                <g id="Group-8" transform="translate(1593.873008, 53.677639)">
                    <path d="M123.11922,221.537807 L373.19061,124.383381 C428.969017,102.713092 491.75359,130.363186 513.423878,186.141592 C517.535474,196.724666 519.958125,207.888218 520.603147,219.223589 L528.076915,350.564798 C531.476521,410.308205 485.800846,461.495731 426.057438,464.895338 C424.010765,465.0118 421.9612,465.070155 419.911216,465.070331 L162.359312,465.099821 C102.519258,465.104962 54.0051417,416.599182 54.0000004,356.759128 C54.0000002,356.756674 54,356.75422 54,356.751767 L54.006746,322.535495 C54.0059425,277.836626 81.4542903,237.724914 123.11922,221.537807 Z" id="Mask" fill="#F1055C" transform="translate(291.127512, 291.049910) rotate(-315.000000) translate(-291.127512, -291.049910) "></path>
                    <path d="M159.60679,266.015715 L346.874172,193.268414 C402.653317,171.600026 465.436947,199.252258 487.105335,255.031403 C491.216046,265.613269 493.638227,276.775416 494.283232,288.109338 L498.677146,365.318529 C502.077094,425.061917 456.401712,476.249705 396.658325,479.649654 C394.611446,479.76614 392.561673,479.824507 390.511482,479.824683 L183.985372,479.842427 C132.354416,479.846863 90.495659,437.995299 90.491223,386.364342 C90.4912228,386.362225 90.4912227,386.360108 90.4912227,386.357992 L90.4908747,367.01474 C90.4900707,322.314523 117.940051,282.201891 159.60679,266.015715 Z" id="Mask" fill="#D80458" transform="translate(294.673082, 332.864398) rotate(-315.000000) translate(-294.673082, -332.864398) "></path>
                </g>
            </g>
        </g>
    </g>
</svg>