<?xml version="1.0" encoding="utf-8"?>
<!-- Generator: Adobe Illustrator 23.0.2, SVG Export Plug-In . SVG Version: 6.00 Build 0)  -->
<svg version="1.1" id="Layer_1" xmlns="http://www.w3.org/2000/svg" xmlns:xlink="http://www.w3.org/1999/xlink" x="0px" y="0px"
	 viewBox="0 0 306 424" style="enable-background:new 0 0 306 424;" xml:space="preserve">
<style type="text/css">
	.st0{fill-rule:evenodd;clip-rule:evenodd;fill:#F1055C;}
	.st1{fill-rule:evenodd;clip-rule:evenodd;fill:#D80458;}
</style>
<title>Group 8</title>
<desc>Created with Sketch.</desc>
<g id="DESIGN">
	<g id="CONNEX-CAREER-3" transform="translate(-1134.000000, -442.000000)">
		<g id="IMPACT" transform="translate(-505.000000, 275.000000)">
			<g id="Group-8" transform="translate(1593.873008, 53.677639)">
				<path id="Mask" class="st0" d="M221.5,123.1L467,231.2c54.8,24.1,79.6,88.1,55.5,142.8c-4.6,10.4-10.8,20-18.3,28.5l-87.6,98.2
					c-39.8,44.6-108.3,48.5-153,8.7c-1.5-1.4-3-2.8-4.5-4.2L77,323.1c-42.3-42.3-42.3-110.9,0-153.2c0,0,0,0,0,0l24.2-24.2
					C132.8,114,180.6,105.1,221.5,123.1z"/>
				<path class="st1" d="M246.5,191l183.9,81c54.8,24.1,79.6,88.1,55.5,142.8c-4.6,10.4-10.8,20-18.3,28.5L416,500.9
					c-39.8,44.6-108.3,48.5-153,8.7c-1.5-1.4-3-2.8-4.5-4.2l-146-146c-36.5-36.5-36.5-95.7,0-132.2c0,0,0,0,0,0l13.7-13.7
					C157.8,181.9,205.6,172.9,246.5,191z"/>
			</g>
		</g>
	</g>
</g>
</svg>
