<?xml version="1.0" encoding="UTF-8"?>
<svg width="300px" height="636px" viewBox="0 0 300 636" version="1.1" xmlns="http://www.w3.org/2000/svg" xmlns:xlink="http://www.w3.org/1999/xlink">
    <!-- Generator: Sketch 53.2 (72643) - https://sketchapp.com -->
    <title>Path</title>
    <desc>Created with Sketch.</desc>
    <defs>
        <path d="M647.219341,37.9406643 C748.287398,212.995674 688.309123,436.837647 513.254112,537.905705 C482.297564,555.778476 416.022724,590.021286 416.756217,628.401781 C417.489709,666.782276 96.4843576,548.038937 13.2890721,403.940476 C-7.93949648,366.866881 -6.03064852,334.137664 38.8995475,308.171259 C131.705047,254.53639 456.921689,67.8185468 551.609015,12.2215558 C590.912866,-10.8562517 626.022971,0.798558212 647.219341,37.9406643 Z" id="path-1"></path>
    </defs>
    <g id="DESIGN" stroke="none" stroke-width="1" fill="none" fill-rule="evenodd">
        <g id="CONNEX-ABOUT-US-ALTERNATIVE" transform="translate(0.000000, -524.000000)">
            <g id="HERO" transform="translate(-398.000000, -8.025107)">
                <g id="Group-3" transform="translate(0.815951, 531.163201)">
                    <g id="Path" transform="translate(0.962514, 0.660694)">
                        <mask id="mask-2" fill="white">
                            <use xlink:href="#path-1"></use>
                        </mask>
                        <use id="Mask" fill="#330040" xlink:href="#path-1"></use>
                        <path d="M540.323645,3.11351491 C626.703673,152.728111 575.368391,344.082009 425.663085,430.514408 C399.189352,445.799025 342.512669,475.084699 343.131238,507.892236 C343.749807,540.699774 69.2974451,439.269824 -1.80722679,316.11292 C-19.9506193,284.427121 -18.311095,256.449711 20.1127684,234.243509 C99.4791219,188.375522 377.600931,28.6958706 458.5768,-18.849763 C492.18915,-38.5855249 522.2078,-28.6308546 540.323645,3.11351491 Z" fill="#40034F" mask="url(#mask-2)"></path>
                    </g>
                </g>
            </g>
        </g>
    </g>
</svg>