<?xml version="1.0" encoding="UTF-8"?>
<svg width="118px" height="104px" viewBox="0 0 118 104" version="1.1" xmlns="http://www.w3.org/2000/svg" xmlns:xlink="http://www.w3.org/1999/xlink">
    <!-- Generator: Sketch 53.2 (72643) - https://sketchapp.com -->
    <title>Group 4</title>
    <desc>Created with Sketch.</desc>
    <defs>
        <path d="M2.18234791,65.9636579 L23.8008415,15.9611098 C28.7451125,4.52524605 40.9650678,-1.90925591 53.1562447,0.503819251 L86.5014607,7.10404441 C100.817894,9.93778472 110.13361,23.8770031 107.308694,38.2381601 C106.29438,43.3946781 103.774627,48.1322592 100.069687,51.848773 L50.890857,101.181235 C40.6074297,111.496787 23.9346997,111.496787 13.6512723,101.181235 L7.73960088,95.2510959 C0.0704922662,87.5580294 -2.13306452,75.9450017 2.18234791,65.9636579 Z" id="path-1"></path>
    </defs>
    <g id="DESIGN" stroke="none" stroke-width="1" fill="none" fill-rule="evenodd">
        <g id="CONNEX-MOBILE-ABOUT-US" transform="translate(-10.000000, -280.000000)">
            <g id="IMPACT" transform="translate(-2.000000, 269.000000)">
                <g id="Group-4" transform="translate(71.265633, 66.619186) rotate(-345.000000) translate(-71.265633, -66.619186) translate(17.265633, 12.119186)">
                    <mask id="mask-2" fill="white">
                        <use xlink:href="#path-1"></use>
                    </mask>
                    <use id="Mask" fill="#FFD002" xlink:href="#path-1"></use>
                    <path d="M41.5548055,53.6280505 L56.196853,19.7616906 C61.1411239,8.32582689 73.3610792,1.89132493 85.5522561,4.3044001 L106.444701,8.43977114 C118.754833,10.8763919 126.765047,22.8621721 124.336015,35.2107605 C123.463846,39.6446455 121.297211,43.7183032 118.11148,46.9139858 L79.7986454,85.3465076 C71.4417105,93.7295492 57.8924418,93.7295492 49.5355068,85.3465076 L47.1120585,82.9154885 C39.4429498,75.222422 37.2393931,63.6093943 41.5548055,53.6280505 Z" id="Rectangle" fill="#FDC701" mask="url(#mask-2)"></path>
                </g>
            </g>
        </g>
    </g>
</svg>