<?xml version="1.0" encoding="UTF-8"?>
<svg width="24px" height="24px" viewBox="0 0 24 24" version="1.1" xmlns="http://www.w3.org/2000/svg" xmlns:xlink="http://www.w3.org/1999/xlink">
    <!-- Generator: Sketch 53.2 (72643) - https://sketchapp.com -->
    <title>in</title>
    <desc>Created with Sketch.</desc>
    <g id="Symbols" stroke="none" stroke-width="1" fill="none" fill-rule="evenodd">
        <g id="MOBILE-FOOTER" transform="translate(-104.000000, -88.000000)" fill="#FFFFFF">
            <g id="social" transform="translate(24.000000, 88.000000)">
                <g id="in" transform="translate(80.000000, 0.000000)">
                    <path d="M2,0 L22,0 C23.1045695,-2.02906125e-16 24,0.8954305 24,2 L24,22 C24,23.1045695 23.1045695,24 22,24 L2,24 C0.8954305,24 1.3527075e-16,23.1045695 0,22 L0,2 C-1.3527075e-16,0.8954305 0.8954305,2.02906125e-16 2,0 Z M8.6953125,18.4765625 L8.6953125,9.04296875 L6,9.04296875 L6,18.4765625 L8.6953125,18.4765625 Z M8.6953125,7.6953125 L8.6953125,5 L6,5 L6,7.6953125 L8.6953125,7.6953125 Z M18.1289062,18.4765625 L18.1289062,12.6226807 C18.1289062,10.6847229 16.5876999,9.044899 14.7597656,9.04296875 C13.9030915,9.04296875 13.444397,9.33145142 12.7382812,9.550972 L12.7382812,9.04296875 L10.0429688,9.04296875 L10.0429688,18.4765625 L12.7382812,18.4765625 L12.7382812,13.0859375 C12.7382812,12.3429718 13.3429718,11.7382812 14.0859375,11.7382812 C14.8289032,11.7382812 15.4335938,12.3429718 15.4335938,13.0859375 L15.4335938,18.4765625 L18.1289062,18.4765625 Z" id="Combined-Shape"></path>
                </g>
            </g>
        </g>
    </g>
</svg>