<?xml version="1.0" encoding="UTF-8"?>
<svg width="24px" height="24px" viewBox="0 0 24 24" version="1.1" xmlns="http://www.w3.org/2000/svg" xmlns:xlink="http://www.w3.org/1999/xlink">
    <!-- Generator: Sketch 53.2 (72643) - https://sketchapp.com -->
    <title>fb</title>
    <desc>Created with Sketch.</desc>
    <g id="Symbols" stroke="none" stroke-width="1" fill="none" fill-rule="evenodd">
        <g id="MOBILE-FOOTER" transform="translate(-64.000000, -88.000000)" fill="#FFFFFF">
            <g id="social" transform="translate(24.000000, 88.000000)">
                <g id="fb" transform="translate(40.000000, 0.000000)">
                    <path d="M15.5523607,24 L15.5523607,15.572082 L18.5280328,15.572082 L18.9755902,12.1160492 L15.5527377,12.1160492 L15.5527377,9.90993443 C15.5527377,8.90962295 15.8294918,8.22754098 17.2641639,8.22754098 L19.0943607,8.22678689 L19.0943607,5.1357377 C18.7780164,5.09463934 17.6932459,5 16.4282459,5 C13.7896557,5 11.9839672,6.61113115 11.9839672,9.56832787 L11.9839672,12.1171803 L9,12.1171803 L9,15.5735902 L11.9839672,15.5735902 L11.9839672,24 L2,24 C0.8954305,24 1.3527075e-16,23.1045695 0,22 L0,2 C-1.3527075e-16,0.8954305 0.8954305,2.02906125e-16 2,0 L22,0 C23.1045695,-2.02906125e-16 24,0.8954305 24,2 L24,22 C24,23.1045695 23.1045695,24 22,24 L15.5523607,24 Z" id="Combined-Shape"></path>
                </g>
            </g>
        </g>
    </g>
</svg>