<?xml version="1.0" encoding="UTF-8"?>
<svg width="24px" height="24px" viewBox="0 0 24 24" version="1.1" xmlns="http://www.w3.org/2000/svg" xmlns:xlink="http://www.w3.org/1999/xlink">
    <!-- Generator: Sketch 53.2 (72643) - https://sketchapp.com -->
    <title>twitter</title>
    <desc>Created with Sketch.</desc>
    <g id="Symbols" stroke="none" stroke-width="1" fill="none" fill-rule="evenodd">
        <g id="MOBILE-FOOTER" transform="translate(-144.000000, -88.000000)" fill="#FFFFFF">
            <g id="social" transform="translate(24.000000, 88.000000)">
                <g id="twitter" transform="translate(120.000000, 0.000000)">
                    <path d="M2,0 L22,0 C23.1045695,-2.02906125e-16 24,0.8954305 24,2 L24,22 C24,23.1045695 23.1045695,24 22,24 L2,24 C0.8954305,24 1.3527075e-16,23.1045695 0,22 L0,2 C-1.3527075e-16,0.8954305 0.8954305,2.02906125e-16 2,0 Z M20,7.90218045 C19.4111101,8.16940981 18.7792398,8.3506417 18.1153433,8.43155214 C18.7932268,8.01583526 19.3121296,7.35644998 19.5580646,6.57315552 C18.9221943,6.95813607 18.2203108,7.23768138 17.4724403,7.38922112 C16.8735635,6.73494963 16.021719,6.32742554 15.0768808,6.32742554 C13.2642243,6.32742554 11.7944964,7.83256856 11.7944964,9.68788618 C11.7944964,9.95101914 11.8234899,10.2080209 11.87949,10.4537777 C9.15200842,10.3134829 6.73346852,8.9752478 5.11477306,6.9417505 C4.83181835,7.43733364 4.67085077,8.01479108 4.67085077,8.6312044 C4.67085077,9.7974446 5.25074714,10.826469 6.13059172,11.4285048 C5.59268234,11.4100844 5.08677302,11.2585447 4.64387033,11.0066567 L4.64387033,11.0486381 C4.64387033,12.6766461 5.77566303,14.0353632 7.27637137,14.3446006 C7.00141667,14.4203705 6.71148155,14.4623518 6.41153335,14.4623518 C6.19958529,14.4623518 5.99461764,14.4408525 5.79364999,14.3998885 C6.21155917,15.7360888 7.423352,16.7077638 8.85909291,16.7344037 C7.73629369,17.6354494 6.32055281,18.1709523 4.78285095,18.1709523 C4.51790934,18.1709523 4.2569416,18.1545667 4,18.1248745 C5.4527344,19.0801907 7.17741696,19.6371929 9.03106704,19.6371929 C15.0689331,19.6371929 18.3693307,14.5156049 18.3693307,10.0739109 L18.3583241,9.63875625 C19.0031879,9.16772469 19.5610712,8.57591649 20,7.90218045 Z" id="Combined-Shape"></path>
                </g>
            </g>
        </g>
    </g>
</svg>