<?xml version="1.0" encoding="UTF-8"?>
<svg width="24px" height="24px" viewBox="0 0 24 24" version="1.1" xmlns="http://www.w3.org/2000/svg" xmlns:xlink="http://www.w3.org/1999/xlink">
    <!-- Generator: Sketch 53.2 (72643) - https://sketchapp.com -->
    <title>insta</title>
    <desc>Created with Sketch.</desc>
    <g id="Symbols" stroke="none" stroke-width="1" fill="none" fill-rule="evenodd">
        <g id="MOBILE-FOOTER" transform="translate(-224.000000, -88.000000)" fill="#FFFFFF">
            <g id="social" transform="translate(24.000000, 88.000000)">
                <g id="insta" transform="translate(200.000000, 0.000000)">
                    <path d="M2,0 L22,0 C23.1045695,-2.02906125e-16 24,0.8954305 24,2 L24,22 C24,23.1045695 23.1045695,24 22,24 L2,24 C0.8954305,24 1.3527075e-16,23.1045695 0,22 L0,2 C-1.3527075e-16,0.8954305 0.8954305,2.02906125e-16 2,0 Z M12,5 C8.14015942,5 5,8.14015942 5,12 C5,15.8598406 8.14015942,19 12,19 C15.8598406,19 19,15.8598406 19,12 C19,8.14015942 15.8598406,5 12,5 Z M12,16 C9.79440816,16 8,14.2055918 8,12 C8,9.79440816 9.79440816,8 12,8 C14.2055918,8 16,9.79440816 16,12 C16,14.2055918 14.2055918,16 12,16 Z M19.5,7 C20.3284271,7 21,6.32842712 21,5.5 C21,4.67157288 20.3284271,4 19.5,4 C18.6715729,4 18,4.67157288 18,5.5 C18,6.32842712 18.6715729,7 19.5,7 Z" id="Combined-Shape"></path>
                </g>
            </g>
        </g>
    </g>
</svg>