<?xml version="1.0" encoding="UTF-8"?>
<svg width="73px" height="180px" viewBox="0 0 73 180" version="1.1" xmlns="http://www.w3.org/2000/svg" xmlns:xlink="http://www.w3.org/1999/xlink">
    <!-- Generator: Sketch 53.2 (72643) - https://sketchapp.com -->
    <title>Group 6</title>
    <desc>Created with Sketch.</desc>
    <g id="DESIGN" stroke="none" stroke-width="1" fill="none" fill-rule="evenodd">
        <g id="CONNEX-BLOG-POST" transform="translate(0.000000, -616.000000)">
            <g id="Group-6" transform="translate(-206.913690, 565.784802)">
                <path d="M169.059558,12.383355 L267.700956,111.024754 C283.810084,127.133882 283.810084,153.251939 267.700956,169.361067 L169.059558,268.002465 C152.95043,284.111593 126.832373,284.111593 110.723245,268.002465 L12.081846,169.361067 C-4.02728201,153.251939 -4.02728201,127.133882 12.081846,111.024754 L110.723245,12.383355 C126.832373,-3.72577305 152.95043,-3.72577305 169.059558,12.383355 Z" id="Mask" fill="#F1055C"></path>
                <path d="M149.361067,12.081846 L218.303974,81.0247536 C234.413102,97.1338816 234.413102,123.251939 218.303974,139.361067 L149.361067,208.303974 C133.251939,224.413102 107.133882,224.413102 91.0247536,208.303974 L22.081846,139.361067 C5.97271799,123.251939 5.97271799,97.1338816 22.081846,81.0247536 L91.0247536,12.081846 C107.133882,-4.02728201 133.251939,-4.02728201 149.361067,12.081846 Z" id="Mask-Copy" fill="#D80458"></path>
            </g>
        </g>
    </g>
</svg>