<?xml version="1.0" encoding="UTF-8"?>
<svg width="586px" height="893px" viewBox="0 0 586 893" version="1.1" xmlns="http://www.w3.org/2000/svg" xmlns:xlink="http://www.w3.org/1999/xlink">
    <!-- Generator: Sketch 53.2 (72643) - https://sketchapp.com -->
    <title>Path</title>
    <desc>Created with Sketch.</desc>
    <defs>
        <path d="M881.800032,934.313836 L416.611885,1262.91815 L141.333132,1568.64618 C111.769082,1601.48038 61.1853018,1604.13137 28.3510975,1574.56732 C11.5392852,1559.42989 1.92240521,1537.88225 1.88167566,1515.25976 L0.0783795055,513.652171 C-0.0011671033,469.469462 35.7515098,433.587814 79.9342184,433.508268 C83.6902229,433.501506 87.4420407,433.759269 91.1618289,434.279644 C150.378025,442.563625 205.196686,418.706448 255.617814,362.708112 C290.679792,323.767841 345.211083,240.607416 419.211685,113.226839 L419.211653,113.226821 C482.308987,4.61453182 621.507139,-32.2826295 730.119428,30.8147044 C791.34954,66.3857879 832.517921,128.446874 841.479999,198.690092 L923.299924,839.98055 C927.982385,876.680875 912.018837,912.96757 881.800032,934.313836 Z" id="path-1"></path>
    </defs>
    <g id="DESIGN" stroke="none" stroke-width="1" fill="none" fill-rule="evenodd">
        <g id="CONNEX-BLOG-LISTING" transform="translate(0.000000, -299.000000)">
            <g id="Group" transform="translate(-232.796823, 798.633223) rotate(-285.000000) translate(232.796823, -798.633223) translate(-695.796823, 0.133223)">
                <g id="Path" transform="translate(0.559452, 0.777421)">
                    <mask id="mask-2" fill="white">
                        <use xlink:href="#path-1"></use>
                    </mask>
                    <use id="Mask" fill="#FFD002" xlink:href="#path-1"></use>
                    <path d="M532.244473,1064.20819 L33.5790257,1618.03227 C4.0149753,1650.86648 -46.5688046,1653.51746 -79.4030089,1623.95341 C-94.5992636,1610.27064 -103.979118,1591.2882 -105.615876,1570.90524 L-153.069353,979.9548 C-171.312594,752.76701 -59.1575738,534.883883 136.340609,417.719177 C145.692888,412.114244 154.451954,404.777219 162.617814,395.708112 C180.915455,375.386524 202.386406,348.431887 227.030668,314.844202 L227.030621,314.844168 C286.239365,234.148521 399.654282,216.729945 480.349929,275.938689 C526.561232,309.845266 554.008744,363.614087 554.363586,420.929133 L557.928074,996.676033 C558.082386,1021.60094 548.922814,1045.68501 532.244473,1064.20819 Z" fill="#F9B800" opacity="0.353631882" mask="url(#mask-2)"></path>
                </g>
            </g>
        </g>
    </g>
</svg>