<?xml version="1.0" encoding="UTF-8"?>
<svg width="23px" height="23px" viewBox="0 0 23 23" version="1.1" xmlns="http://www.w3.org/2000/svg" xmlns:xlink="http://www.w3.org/1999/xlink">
    <!-- Generator: Sketch 53.2 (72643) - https://sketchapp.com -->
    <title>facebook</title>
    <desc>Created with Sketch.</desc>
    <g id="DESIGN" stroke="none" stroke-width="1" fill="none" fill-rule="evenodd">
        <g id="CONNEX-BLOG-POST" transform="translate(-464.000000, -689.000000)" fill="#0B7CFE" fill-rule="nonzero">
            <g id="Group-4" transform="translate(417.000000, 657.000000)">
                <g id="Group" transform="translate(0.000000, 32.000000)">
                    <g id="facebook" transform="translate(47.000000, 0.000000)">
                        <path d="M21.6343279,0.00037704918 L1.26386885,0.00037704918 C0.566327869,0.00037704918 0,0.56557377 0,1.2642459 L0,21.6347049 C0,22.333377 0.566327869,22.8993279 1.26386885,22.8993279 L12.2307213,22.8993279 L12.2307213,14.0315082 L9.2467541,14.0315082 L9.2467541,10.5750984 L12.2307213,10.5750984 L12.2307213,8.0262459 C12.2307213,5.06904918 14.0364098,3.45791803 16.675,3.45791803 C17.94,3.45791803 19.0247705,3.55255738 19.3411148,3.59365574 L19.3411148,6.68470492 L17.510918,6.68545902 C16.0762459,6.68545902 15.7994918,7.36754098 15.7994918,8.36785246 L15.7994918,10.5739672 L19.2223443,10.5739672 L18.7747869,14.03 L15.7991148,14.03 L15.7991148,22.8981967 L21.6339508,22.8981967 C22.3322459,22.8981967 22.8989508,22.3314918 22.8989508,21.6347049 L22.8989508,1.2634918 C22.8985738,0.56557377 22.332623,0.00037704918 21.6343279,0.00037704918 Z" id="Path"></path>
                    </g>
                </g>
            </g>
        </g>
    </g>
</svg>