<?xml version="1.0" encoding="utf-8"?>
<!-- Generator: Adobe Illustrator 22.1.0, SVG Export Plug-In . SVG Version: 6.00 Build 0)  -->
<svg version="1.1" id="Шар_1" xmlns="http://www.w3.org/2000/svg" xmlns:xlink="http://www.w3.org/1999/xlink" x="0px" y="0px"
	 viewBox="0 0 597.9 576.6" style="enable-background:new 0 0 597.9 576.6;" xml:space="preserve">
<style type="text/css">
	.st0{fill:#F32571;}
	.st1{fill:#792C8B;}
	.st2{fill:#00D2AB;}
	.st3{fill:#00D2AB;stroke:#00D2AB;stroke-width:0.525;}
	.st4{fill:#792C8B;stroke:#792C8B;stroke-width:0.6757;}
	.st5{fill:#792C8B;stroke:#FFFFFF;stroke-width:0.6992;}
	.st6{fill:#792C8B;stroke:#FFFFFF;stroke-width:0.6757;}
	.st7{fill:#792C8B;stroke:#FFFFFF;stroke-width:0.525;}
	.st8{fill:#F32571;stroke:#F32571;stroke-width:0.6757;}
	.st9{fill:#DD1962;}
	.st10{fill:#DD1962;stroke:#FFFFFF;stroke-width:0.525;}
	.st11{fill:#00D2AB;stroke:#FFFFFF;stroke-width:0.525;}
	.st12{fill:#F32571;stroke:#F32571;stroke-width:0.525;}
	.st13{fill:#00D2AB;stroke:#00D2AB;stroke-width:0.6757;}
	.st14{fill:#F6FDFF;}
	.st15{fill:#00D2AB;stroke:#00D2AB;stroke-width:0.8465;}
	.st16{fill:#FDFDFD;}
	.st17{fill:#FCFCFC;}
	.st18{fill:#FBFBFB;}
	.st19{fill:#FAFAFA;}
	.st20{fill:#F9F9F9;}
	.st21{fill:#F8F8F8;}
	.st22{fill:#F7F7F7;}
	.st23{fill:#F6F6F6;}
	.st24{fill:#F5F5F5;}
	.st25{fill:#F4F4F4;}
	.st26{fill:#F3F3F3;}
	.st27{fill:#F2F1F1;}
	.st28{fill:#F1F0F0;}
	.st29{fill:#EFEFEF;}
	.st30{fill:#EEEDED;}
	.st31{fill:#EDECEC;}
	.st32{fill:#EBEAEA;}
	.st33{fill:#EAE9E9;}
	.st34{fill:#E8E7E7;}
	.st35{fill:#E6E5E5;}
	.st36{fill:#E4E3E3;}
	.st37{fill:#E2E1E1;}
	.st38{fill:#E0DFDF;}
	.st39{fill:#DDDCDC;}
	.st40{fill:#DBD9D9;}
	.st41{fill:#D8D6D6;}
	.st42{fill:#D4D2D2;}
</style>
<title>brain_illu</title>
<desc>Created with Sketch.</desc>
<g id="DESIGN">
	<g id="CONNEX-HOME-GRADIENT" transform="translate(-664.000000, -117.000000)">
		<g id="HEAD" transform="translate(131.000000, 117.000000)">
			<g id="brain_illu" transform="translate(533.000000, 0.000000)">
				<path id="Fill-230" class="st0" d="M416.6,493.6c11.6-2.3,22.9,5.3,25.2,16.9c2.3,11.6-5.3,22.9-16.9,25.2
					c-11.6,2.3-22.9-5.3-25.2-16.9C397.4,507.2,404.9,495.9,416.6,493.6z M417.6,498.6c-8.9,1.7-14.6,10.3-12.9,19.2
					c1.8,8.8,10.4,14.6,19.2,12.9c8.9-1.8,14.6-10.3,12.9-19.2C435,502.6,426.4,496.9,417.6,498.6L417.6,498.6z"/>
				<path id="Fill-231" class="st1" d="M286.5,260.8c16.3-4.4,33.1,5.3,37.5,21.6c4.4,16.3-5.3,33.1-21.6,37.5
					c-16.3,4.4-33.1-5.3-37.5-21.6C260.4,281.9,270.1,265.2,286.5,260.8z M288.4,268.2c-12.2,3.3-19.5,15.9-16.2,28.1
					c3.3,12.2,15.9,19.5,28.1,16.2c12.2-3.3,19.5-15.9,16.2-28.1C313.3,272.2,300.7,264.9,288.4,268.2L288.4,268.2z"/>
				<path id="Fill-232" class="st2" d="M335.8,185.9c12.9-3.4,26.1,4.2,29.6,17.1c3.4,12.9-4.2,26.1-17.1,29.5
					c-12.9,3.4-26.1-4.2-29.6-17C315.3,202.6,323,189.4,335.8,185.9z M337.4,191.8c-9.7,2.6-15.4,12.5-12.8,22.1
					c2.6,9.6,12.5,15.4,22.2,12.8c9.7-2.6,15.4-12.5,12.8-22.2C357,194.9,347.1,189.2,337.4,191.8L337.4,191.8z"/>
				<path id="Fill-233" class="st2" d="M150.3,138.3c13.8-5.2,29.2,1.9,34.4,15.7c5.2,13.8-1.9,29.2-15.7,34.4
					c-13.8,5.2-29.2-1.9-34.4-15.7C129.4,158.9,136.4,143.5,150.3,138.3z M154.4,144c-10.7,2.9-17.1,13.9-14.2,24.5
					c2.9,10.7,13.9,17,24.6,14.2c10.7-2.9,17-13.9,14.2-24.5C176.1,147.5,165.1,141.1,154.4,144L154.4,144z"/>
				<path id="Fill-234" class="st1" d="M245.2,83.6c24.3-6.5,49.3,7.9,55.8,32.2c6.5,24.3-7.9,49.2-32.2,55.7
					c-24.3,6.5-49.3-7.9-55.8-32.2C206.5,115.1,220.9,90.2,245.2,83.6z M248.2,94.6c-18.2,4.9-29,23.6-24.2,41.8
					c4.9,18.2,23.6,29,41.9,24.1c18.2-4.9,29-23.6,24.2-41.8C285.1,100.6,266.4,89.8,248.2,94.6L248.2,94.6z"/>
				<path id="Fill-235" class="st1" d="M528.5,322.3c32.7-19.7,34.3-50.8,20.7-73.3l10.5,2.1c4.7,3.6,10.9,5,17.1,3.4l0.1,0
					l10.5,2.1c-21.1,15.7-31.4,45-8.5,75.6l-20.9-4.1c-2.8-1-5.7-1.6-8.7-1.7L528.5,322.3"/>
				<g id="mic" transform="translate(537.117647, 336.808564)">
					<path id="Shape" class="st1" d="M12.1,0H8.3C5.5,0,3.2,2.3,3.2,5.1v12.8c0,0.4,0.3,0.6,0.6,0.6h12.7c0.3,0,0.6-0.3,0.6-0.6V5.1
						C17.1,2.3,14.8,0,12.1,0z M15.8,17.3H4.5V5.1c0-2.1,1.7-3.8,3.8-3.8h3.8c2.1,0,3.8,1.7,3.8,3.8V17.3z"/>
					<path id="Shape_1_" class="st1" d="M3.2,17.3v4.2c0,2.3,1.7,4.2,3.8,4.2h6.3c2.1,0,3.8-1.9,3.8-4.2v-4.2H3.2z M15.8,21.4
						c0,1.6-1.1,2.9-2.5,2.9H7c-1.4,0-2.5-1.3-2.5-2.9v-2.9h11.4V21.4L15.8,21.4z"/>
					<path id="Path" class="st1" d="M7.6,5.8H4.5C4.1,5.8,3.8,6,3.8,6.4S4.1,7,4.5,7h3.2C8,7,8.3,6.7,8.3,6.4S8,5.8,7.6,5.8z"/>
					<path id="Path_1_" class="st1" d="M7.6,8.3H4.5c-0.3,0-0.6,0.3-0.6,0.6s0.3,0.6,0.6,0.6h3.2c0.3,0,0.6-0.3,0.6-0.6
						C8.3,8.6,8,8.3,7.6,8.3z"/>
					<path id="Path_2_" class="st1" d="M15.8,5.8h-3.2c-0.3,0-0.6,0.3-0.6,0.6S12.3,7,12.7,7h3.2c0.3,0,0.6-0.3,0.6-0.6
						S16.2,5.8,15.8,5.8z"/>
					<path id="Path_3_" class="st1" d="M15.8,8.3h-3.2c-0.3,0-0.6,0.3-0.6,0.6s0.3,0.6,0.6,0.6h3.2c0.3,0,0.6-0.3,0.6-0.6
						C16.5,8.6,16.2,8.3,15.8,8.3z"/>
					<path id="Path_4_" class="st1" d="M7.6,10.9H4.5c-0.3,0-0.6,0.3-0.6,0.6c0,0.4,0.3,0.6,0.6,0.6h3.2c0.3,0,0.6-0.3,0.6-0.6
						C8.3,11.2,8,10.9,7.6,10.9z"/>
					<path id="Path_5_" class="st1" d="M15.8,10.9h-3.2c-0.3,0-0.6,0.3-0.6,0.6c0,0.4,0.3,0.6,0.6,0.6h3.2c0.3,0,0.6-0.3,0.6-0.6
						C16.5,11.2,16.2,10.9,15.8,10.9z"/>
					<path id="Path_6_" class="st1" d="M7.6,13.4H4.5c-0.3,0-0.6,0.3-0.6,0.6c0,0.4,0.3,0.6,0.6,0.6h3.2c0.3,0,0.6-0.3,0.6-0.6
						C8.3,13.7,8,13.4,7.6,13.4z"/>
					<path id="Path_7_" class="st1" d="M15.8,13.4h-3.2c-0.3,0-0.6,0.3-0.6,0.6c0,0.4,0.3,0.6,0.6,0.6h3.2c0.3,0,0.6-0.3,0.6-0.6
						C16.5,13.7,16.2,13.4,15.8,13.4z"/>
					<path id="Path_8_" class="st1" d="M19.6,13c-0.3,0-0.6,0.3-0.6,0.6v6.9c0,3.5-2.8,6.3-6.3,6.3H7.6c-3.5,0-6.3-2.8-6.3-6.3v-6.9
						C1.3,13.3,1,13,0.7,13S0,13.3,0,13.6v6.9c0,4.2,3.4,7.6,7.6,7.6h5.1c4.2,0,7.6-3.4,7.6-7.6v-6.9C20.3,13.3,20,13,19.6,13z"/>
					<path id="Path_9_" class="st1" d="M10.2,27.7c-0.3,0-0.6,0.3-0.6,0.6v7c0,0.4,0.3,0.6,0.6,0.6c0.3,0,0.6-0.3,0.6-0.6v-7
						C10.8,28,10.5,27.7,10.2,27.7z"/>
					<path id="Path_10_" class="st1" d="M15.2,35.2H5.1c-0.3,0-0.6,0.3-0.6,0.6c0,0.4,0.3,0.6,0.6,0.6h10.1c0.3,0,0.6-0.3,0.6-0.6
						C15.8,35.4,15.6,35.2,15.2,35.2z"/>
				</g>
				<path id="Fill-236" class="st2" d="M547.3,225.5c10-24.3-6.3-63.6-30.6-73.6l11.1-4.6c1.3-0.1,2.7-0.3,4-0.6
					c3.1-0.8,5.9-2.4,8.1-4.4l11.1-4.6c-10,24.3,6.3,63.6,30.6,73.6l-11.1,4.6c-1.3,0.1-2.7,0.3-4,0.6c-3.1,0.8-5.9,2.4-8.1,4.4
					L547.3,225.5"/>
				<path id="Fill-237" class="st1" d="M501,132.9c-5.3-25.7-33.1-51.2-70.6-43.5l12.3-16.9c2.3-2.3,4.2-4.9,5.7-7.8l12.3-16.9
					c4.2,38,37,56.6,63.2,53.7l-6.3,8.7c-5.4,2.9-9.2,8.1-10.2,14L501,132.9"/>
				<path id="Fill-238" class="st0" d="M390.7,72.9c-20.9-32-83.9-39-105.9-24.6l1.8-10.8c3.2-4.6,4.4-10.5,2.8-16.3l0-0.2l1.8-10.8
					C307.3,31,369.1,45,399.3,21.7L396,41.5c-1.4,3.6-2.1,7.6-2,11.6L390.7,72.9"/>
				<path id="Fill-239" class="st1" d="M258.9,49.9c-23.6-11.5-107.3,10.9-124,45.2l-5.8-18.7c-0.1-1.8-0.4-3.6-0.9-5.4
					c-0.7-2.5-1.7-4.8-2.9-7l-5.8-18.7c33.2,19,115-9.3,128.1-32l3.2,10.6c-0.3,2.5-0.2,5.1,0.5,7.6c0.8,3,2.3,5.7,4.3,7.9
					L258.9,49.9"/>
				<path id="Fill-240" class="st2" d="M70.3,274.9c14.8,14.3,31.6,21.9,57.1-4.5l-3.3,49.2c-21.7-29.5-39.4-24.1-56-11.9l0.5-8.2
					c2.6-3.7,3.5-8.5,2.3-13.3c-0.3-1.1-0.7-2.1-1.2-3.1L70.3,274.9"/>
				<path id="Fill-241" class="st0" d="M154,369.8c7.5-15.3,6.3-27.7-15.9-38.6l48.5-13c-13.8,20.5-8.5,31.8,5.6,41.3l-10,2.7
					c-3.1-0.8-6.5-0.8-9.8,0.1c-3.3,0.9-6.2,2.6-8.6,4.8L154,369.8"/>
				<path id="Fill-242" class="st1" d="M154.4,258.7c32.4-0.4,40.2-15.1,39.9-37.3l7.9,6.9c2.4,6.2,7.7,10.6,13.9,12l7.9,6.9
					c-22.1,2.9-35.5,12.7-31.3,44.8l-17.6-15.3c-1-1-2-1.8-3-2.6L154.4,258.7"/>
				<path id="Fill-243" class="st2" d="M397.4,129.3c14.7-14.4,19.1-29.2-2-50.6l24.4,1.8c0.6,0.1,1.1,0.1,1.7,0.1l24.4,1.8
					c-23.9,18.2-21.7,33.4-9.2,49.8l-10.4-0.7c-4.5-2.8-10.1-3.8-15.6-2.4c-1,0.3-2,0.6-2.9,1L397.4,129.3"/>
				<g id="support-_x28_1_x29_" transform="translate(402.500000, 135.940806)">
					<path id="Shape_2_" class="st3" d="M23.2,9.7c0-5.4-4.3-9.7-9.7-9.7S3.9,4.3,3.9,9.7c0,0,0,0,0,0C1.7,9.8,0,11.6,0,13.8v0.5
						c0,2.3,1.8,4.1,4.1,4.1h0.2L6,21.2c1.2,1.9,3.3,3.1,5.5,3.1h0.3c0.2,0.8,1,1.5,1.9,1.5c1.1,0,1.9-0.9,1.9-1.9s-0.9-1.9-1.9-1.9
						c-0.9,0-1.6,0.6-1.9,1.5h-0.3c-1.9,0-3.7-1-4.7-2.6l-1.4-2.2h0.3c0.5,0,1-0.4,1-1v-6.8c0-0.5-0.4-1-1-1h-1
						C4.8,4.9,8.7,1,13.5,1s8.7,3.9,8.7,8.7h-1c-0.5,0-1,0.4-1,1v6.8c0,0.5,0.4,1,1,1H23c2.3,0,4.1-1.8,4.1-4.1v-0.5
						C27.1,11.6,25.3,9.8,23.2,9.7z M13.8,22.8c0.5,0,1,0.4,1,1s-0.4,1-1,1s-1-0.4-1-1S13.2,22.8,13.8,22.8z M5.8,10.7v6.8H4.1
						c-1.7,0-3.1-1.4-3.1-3.2v-0.5c0-1.7,1.4-3.2,3.1-3.2H5.8z M26.1,14.3c0,1.7-1.4,3.2-3.1,3.2h-1.7v-6.8H23
						c1.7,0,3.1,1.4,3.1,3.2V14.3z"/>
					<path id="Path_11_" class="st2" d="M17.5,3.7c0,0-0.1-0.1-0.2-0.1c-0.1,0-0.1-0.1-0.2-0.1c-0.2-0.1-0.5-0.1-0.7,0.2
						s-0.1,0.5,0.2,0.7c0,0,0.1,0.1,0.2,0.1s0.1,0.1,0.2,0.1c0.1,0,0.2,0.1,0.2,0.1c0.2,0,0.3-0.1,0.4-0.2
						C17.9,4.1,17.8,3.8,17.5,3.7z"/>
					<path id="Path_12_" class="st2" d="M13.5,2.4c-2.1,0-4,0.9-5.3,2.4C8,5.1,8.1,5.4,8.3,5.6c0.1,0.1,0.2,0.1,0.3,0.1
						c0.1,0,0.3,0,0.4-0.2c1.2-1.3,2.8-2.1,4.6-2.1c0.4,0,0.9,0,1.3,0.1c0.3,0,0.5-0.1,0.6-0.4c0.1-0.2-0.1-0.5-0.4-0.6
						C14.5,2.5,14,2.4,13.5,2.4z"/>
				</g>
				<path id="Fill-244" class="st1" d="M396,165.3c-17.3-19.8-74.6-33.3-109-3.4l3.6-27.8c0.3-1.4,0.5-2.8,0.5-4.3l3.6-27.8
					c25.6,37.7,84.5,39.1,106.3,24.3l-1.3,10.4c-3.2,4.6-4.5,10.6-2.9,16.4c0.2,0.6,0.4,1.2,0.6,1.8L396,165.3"/>
				<g id="mail-_x28_2_x29_" transform="translate(236.764706, 113.622166)">
					<path id="Path_13_" class="st1" d="M32.5,22.9c-0.2,0-0.3-0.1-0.4-0.2l-7.5-7.2c-0.3-0.3-0.3-0.7,0-0.9c0.2-0.3,0.7-0.3,0.9,0
						l7.5,7.2c0.3,0.3,0.3,0.7,0,0.9C32.9,22.9,32.7,22.9,32.5,22.9z"/>
					<path id="Path_14_" class="st1" d="M7.6,22.9c-0.2,0-0.3-0.1-0.5-0.2c-0.2-0.3-0.2-0.7,0-0.9l7.5-7.2c0.3-0.3,0.7-0.2,0.9,0
						c0.2,0.3,0.2,0.7,0,0.9l-7.5,7.2C8,22.9,7.8,22.9,7.6,22.9z"/>
					<path id="Shape_3_" class="st4" d="M36.9,29.6H3.2c-1.8,0-3.2-1.5-3.2-3.3V3.5c0-1.8,1.5-3.3,3.2-3.3h33.7
						c1.8,0,3.2,1.5,3.2,3.3v22.8C40.2,28.1,38.7,29.6,36.9,29.6z M3.2,1.5c-1.1,0-1.9,0.9-1.9,2v22.8c0,1.1,0.9,2,1.9,2h33.7
						c1.1,0,1.9-0.9,1.9-2V3.5c0-1.1-0.9-2-1.9-2H3.2z"/>
					<path id="Path_15_" class="st4" d="M20.1,18.3c-0.9,0-1.7-0.3-2.4-0.9L1.1,2.4C0.8,2.1,0.8,1.7,1,1.4c0.2-0.3,0.6-0.3,0.9-0.1
						l16.6,15c0.8,0.7,2.2,0.7,3.1,0l16.6-15c0.3-0.2,0.7-0.2,0.9,0.1c0.2,0.3,0.2,0.7-0.1,0.9l-16.6,15
						C21.8,18,20.9,18.3,20.1,18.3z"/>
				</g>
				<path id="Fill-245" class="st2" d="M133.1,160.1c2.9-23.5-3.6-39.7-37.2-43.8l18.3-12.7c1.9-1,3.6-2.2,5.2-3.6l18.3-12.7
					c-7.8,32.9,5.1,44.7,28.1,50.1l-8.8,6.1c-0.8,0.1-1.7,0.3-2.5,0.5c-5.6,1.5-10,5.2-12.5,10L133.1,160.1"/>
				<g id="promotion" transform="translate(147.470588, 151.496222)">
					<path id="Path_16_" class="st2" d="M7.2,15.5c0.3-0.1,0.3-0.4,0.2-0.7c-0.1-0.2-0.5-0.3-0.7-0.2c-0.3,0.1-0.3,0.4-0.2,0.7
						C6.7,15.5,7,15.6,7.2,15.5L7.2,15.5z"/>
					<path id="Shape_4_" class="st2" d="M5.1,18.9l2.7,4.4c0.6,0.9,1.9,1.3,2.9,0.7c1-0.6,1.4-1.8,0.8-2.7l-1.6-2.6l1.4-0.8
						c0.3-0.1,0.3-0.4,0.2-0.7l-0.7-1.1c0.1,0,0.6-0.1,10.1-1.9c1.2-0.1,1.9-1.3,1.3-2.3l-1.8-2.9l1.1-1.6c0.1-0.2,0.1-0.4,0-0.5
						l-1.1-1.7C20.3,5.1,20.1,5,19.9,5l-2,0.1L16,1.9c-0.3-0.5-0.8-0.7-1.4-0.8c0,0,0,0,0,0c-0.5,0-1,0.3-1.3,0.7l-6.9,8.4l-4.5,2.5
						c-1.8,1-2.4,3.1-1.4,4.8C1.4,19,3.4,19.6,5.1,18.9L5.1,18.9z M10.5,21.8c0.3,0.5,0.1,1.1-0.4,1.4c-0.5,0.3-1.2,0.1-1.4-0.4
						L6,18.5l1.8-1C10.9,22.5,10.4,21.7,10.5,21.8z M9.3,17.8L8.8,17l0.9-0.5l0.5,0.9L9.3,17.8z M19.7,6l0.7,1.2l-0.7,0.9l-1.3-2.1
						L19.7,6z M14.1,2.4c0.1-0.2,0.4-0.2,0.5-0.2c0.1,0,0.3,0,0.5,0.3l6.1,10.1c0.2,0.3,0,0.7-0.4,0.8c-0.1,0-0.1,0-0.3,0L13.9,2.6
						C14.1,2.4,14.1,2.4,14.1,2.4L14.1,2.4z M13.2,3.4l6.1,10.1l-9.2,1.7l-2.8-4.6L13.2,3.4z M1.4,16.9c-0.2-0.4-0.4-0.8-0.4-1.3
						c0-0.9,0.5-1.7,1.3-2.2l4.1-2.3l2.6,4.3L5,17.8C3.8,18.5,2.1,18.1,1.4,16.9z"/>
					<path id="Path_17_" class="st2" d="M5.6,15.8c-0.1-0.2-0.5-0.3-0.7-0.2L4,16.1c-0.3,0.1-0.6,0.1-0.7-0.2
						c-0.1-0.2-0.5-0.3-0.7-0.2s-0.3,0.4-0.2,0.7c0.4,0.7,1.4,1,2.2,0.6l0.9-0.5C5.7,16.3,5.7,16,5.6,15.8L5.6,15.8z"/>
					<path id="Path_18_" class="st2" d="M26.3,2.2l-2.9,1.6c-0.3,0.1-0.3,0.4-0.2,0.7c0.1,0.2,0.5,0.3,0.7,0.2l2.9-1.6
						C27,2.9,27.1,2.6,27,2.4C26.9,2.1,26.5,2.1,26.3,2.2L26.3,2.2z"/>
					<path id="Path_19_" class="st2" d="M26,7.4l-2-0.5c-0.3-0.1-0.6,0.1-0.6,0.4c-0.1,0.3,0.1,0.5,0.4,0.6l2,0.5
						C26,8.4,26.3,8.3,26.3,8C26.4,7.7,26.2,7.5,26,7.4z"/>
					<path id="Path_20_" class="st2" d="M20.8,0.4l-0.5,1.9c-0.1,0.3,0.1,0.5,0.4,0.6c0.3,0.1,0.6-0.1,0.6-0.4l0.5-1.9
						c0.1-0.3-0.1-0.5-0.4-0.6C21.2-0.1,20.9,0.1,20.8,0.4L20.8,0.4z"/>
				</g>
				<path id="Fill-246" class="st1" d="M37.2,278.8c8.2-12.8,12.6-28-15.4-45.8l57-4.8c-24.6,22.3-17.7,36.5-7.5,47.7l-7.6,0.6
					c-3.6-2.2-8.1-2.9-12.5-1.8c-2.4,0.6-4.6,1.8-6.4,3.4L37.2,278.8"/>
				<g id="subject" transform="translate(27.058824, 174.491184)">
					<path id="Shape_5_" class="st5" d="M33.5,16.3h-5.7c-0.6,0-1.1,0.5-1.1,1.1c0,0.1,0,0.3,0.1,0.4c0.2,0.4,0.6,0.7,1.1,0.7h5.7
						c1.9,0,3.4,1.5,3.4,3.4v11.4c0,1.9-1.5,3.4-3.4,3.4h-13c-1.9,0-3.4-1.5-3.4-3.4V20.9c0-0.7,0.6-1.3,1.3-1.3h2.6
						c2,0,3.6-1.6,3.6-3.6V5.7c0-3.2-2.6-5.7-5.7-5.7h-13C2.6,0,0,2.6,0,5.7V18c0,3.2,2.6,5.7,5.7,5.7h9v9.8c0,3.2,2.6,5.7,5.7,5.7
						h13c3.2,0,5.7-2.6,5.7-5.7V22.1C39.2,18.9,36.7,16.3,33.5,16.3L33.5,16.3z M14.7,21.4h-9c-1.9,0-3.4-1.5-3.4-3.4V5.7
						c0-1.9,1.5-3.4,3.4-3.4h13c1.9,0,3.4,1.5,3.4,3.4V16c0,0.7-0.6,1.3-1.3,1.3h-2.6c-2,0-3.6,1.6-3.6,3.6V21.4z"/>
					<path id="Path_21_" class="st6" d="M21.7,33.7c3.7,0,6.7-3,6.7-6.7v-0.3h1v5.9c0,0.6,0.5,1.1,1.1,1.1c0.6,0,1.1-0.5,1.1-1.1
						v-5.9h0.5c0.6,0,1.1-0.5,1.1-1.1c0-0.6-0.5-1.1-1.1-1.1h-0.5v-2.9c0-0.6-0.5-1.1-1.1-1.1c-0.6,0-1.1,0.5-1.1,1.1v2.9H24
						c-0.6,0-1.1,0.5-1.1,1.1c0,0.6,0.5,1.1,1.1,1.1h2.2V27c0,2.4-2,4.4-4.4,4.4c-0.6,0-1.1,0.5-1.1,1.1
						C20.6,33.2,21.1,33.7,21.7,33.7L21.7,33.7z"/>
					<path id="Shape_6_" class="st6" d="M16.8,14.5l-3.5-8.2c-0.2-0.4-0.6-0.7-1.1-0.7c-0.5,0-0.9,0.3-1.1,0.7l-3.5,8.2
						c-0.2,0.6,0,1.3,0.6,1.5c0.1,0.1,0.3,0.1,0.4,0.1c0.4,0,0.9-0.3,1.1-0.7l0.7-1.6H14l0.7,1.6c0.2,0.6,0.9,0.9,1.5,0.6
						C16.8,15.7,17,15,16.8,14.5z M11.5,11.5l0.8-1.8l0.8,1.8H11.5z"/>
				</g>
				<path id="Fill-247" class="st0" d="M32.5,148.6c34.9-11.4,40.9-30.1,31.7-58.4L78.7,97c5.4,6.3,13.3,10,21.6,10l14.6,6.7
					c-27.6,11.2-38,27.9-24.2,61.9l-22.1-10.2c-4.1-3.2-9-5.4-14.1-6.6L32.5,148.6"/>
				<path id="Fill-248" class="st0" d="M453.8,198.6c49.1-11,53-39.6,47.3-65.2l8.8,4.6c3.8,6.2,10.8,9.9,18.2,9.4l8.8,4.6
					c-24.2,10.2-45.3,30-25.8,76.3L453.8,198.6"/>
				<path id="Fill-249" class="st1" d="M436.5,289.2c-41.6-28.2-99.6-7.1-116.8,18.3l-3-11.9c0.8-3.6,0.8-7.4-0.2-11.2
					c-0.9-3.5-2.7-6.7-5-9.2l-3-11.9c27.1,14.2,88.2,5.5,111.6-39l7.2,28.6c0.2,1.5,0.5,3,0.9,4.5c0.3,1.1,0.6,2.2,1,3.2
					L436.5,289.2"/>
				<g id="money-_x28_1_x29_" transform="translate(277.352941, 278.644836)">
					<path id="Path_22_" class="st6" d="M5.5,13.6c-0.4,0-0.8,0.4-0.8,0.8c0,0.4,0.4,0.8,0.8,0.8h3.1c0.4,0,0.8-0.4,0.8-0.8
						c0-0.4-0.4-0.8-0.8-0.8H5.5z"/>
					<path id="Path_23_" class="st6" d="M19.6,15.2h3.1c0.4,0,0.8-0.4,0.8-0.8c0-0.4-0.4-0.8-0.8-0.8h-3.1c-0.4,0-0.8,0.4-0.8,0.8
						C18.8,14.8,19.1,15.2,19.6,15.2z"/>
					<path id="Shape_7_" class="st7" d="M31.4,0H7.5C6.3,0,5.3,1,5.3,2.2v3.2H1.6C0.7,5.5,0,6.2,0,7.1v14.2C0,22.2,0.7,23,1.6,23
						h25.1c0.9,0,1.6-0.7,1.6-1.6v-3.8h3c1.2,0,2.2-1,2.2-2.2V2.2C33.6,1,32.6,0,31.4,0z M22.1,7.1c0.2,2.5,2.1,4.5,4.6,4.7v4.9
						c-2.5,0.2-4.4,2.2-4.6,4.6H6.2c-0.2-2.5-2.1-4.5-4.6-4.7v-4.9c2.5-0.2,4.4-2.2,4.6-4.6H22.1L22.1,7.1z M23.7,7.1h3v3
						C25.1,9.9,23.9,8.7,23.7,7.1z M4.6,7.1c-0.2,1.6-1.4,2.8-3,3v-3H4.6z M1.6,18.3c1.5,0.2,2.8,1.4,3,3h-3V18.3z M23.7,21.3
						c0.2-1.6,1.4-2.8,3-3v3H23.7z M32,15.3c0,0.3-0.3,0.6-0.6,0.6h-3V7.1c0-0.9-0.7-1.6-1.6-1.6H6.9V2.2c0-0.3,0.3-0.6,0.6-0.6
						h23.9c0.3,0,0.6,0.3,0.6,0.6V15.3z"/>
					<path id="Path_24_" class="st6" d="M13.7,15.2h1.4c0.4,0,0.7,0.3,0.7,0.7c0,0.4-0.3,0.7-0.7,0.7h-2.6c-0.5,0-0.8,0.4-0.8,0.8
						c0,0.5,0.4,0.8,0.8,0.8h1V19c0,0.5,0.4,0.8,0.8,0.8s0.8-0.4,0.8-0.8v-0.7c1.3-0.1,2.3-1.1,2.3-2.4c0-1.3-1.1-2.4-2.4-2.4h-1.4
						c-0.4,0-0.7-0.3-0.7-0.7c0-0.4,0.3-0.7,0.7-0.7h2.5c0.5,0,0.8-0.4,0.8-0.8s-0.4-0.8-0.8-0.8h-1V9.8c0-0.5-0.4-0.8-0.8-0.8
						s-0.8,0.4-0.8,0.8v0.7c-1.3,0.1-2.3,1.1-2.3,2.4C11.3,14.2,12.4,15.2,13.7,15.2z"/>
				</g>
				<path id="Fill-250" class="st2" d="M326.9,228c-18.8-15.1-69.3-10.8-85.8,9.6l-1.2-12.3c0.7-3,0.6-6.2-0.2-9.3
					c-0.3-1-0.6-1.9-1-2.8l-1.2-12.3c20.2,16.8,70.6,11.3,86-7.2l1.1,10.7c-0.8,3-0.9,6.2,0,9.4c0.3,1.2,0.7,2.3,1.3,3.4L326.9,228"
					/>
				<path id="Fill-251" class="st1" d="M263.6,0.9c14-3.8,28.4,4.6,32.2,18.6c3.8,14-4.6,28.4-18.6,32.2c-14,3.8-28.4-4.6-32.2-18.6
					C241.3,19.1,249.6,4.7,263.6,0.9z M265.3,7.2c-10.5,2.8-16.8,13.6-13.9,24.1c2.8,10.5,13.6,16.7,24.1,13.9
					c10.5-2.8,16.8-13.6,13.9-24.1C286.7,10.7,275.9,4.4,265.3,7.2L265.3,7.2z"/>
				<g id="settings" transform="translate(255.705882, 12.173804)">
					<path id="Path_25_" class="st1" d="M14.5,28.3l1.4-0.6c0.8-0.3,1.1-1.2,0.8-2l-0.4-0.9c0.7-0.5,1.3-1.2,1.9-1.9l0.9,0.4
						c0.4,0.2,0.8,0.2,1.1,0c0.4-0.2,0.7-0.4,0.8-0.8l0.6-1.4c0.3-0.8,0-1.6-0.8-2l-1.3-0.5c-0.3-0.1-0.6,0-0.7,0.3s0,0.6,0.3,0.8
						l1.3,0.5c0.2,0.1,0.3,0.3,0.2,0.4L20,22.1c0,0.1-0.1,0.2-0.2,0.2c-0.1,0-0.2,0-0.3,0l-1.3-0.5c-0.3-0.1-0.5,0-0.7,0.2
						c-0.6,0.9-1.3,1.6-2.2,2.2c-0.2,0.2-0.3,0.4-0.2,0.7l0.5,1.3c0.1,0.2,0,0.4-0.2,0.4L14,27.2c-0.1,0-0.2,0-0.3,0
						c-0.1,0-0.2-0.1-0.2-0.2l-0.5-1.3c-0.1-0.3-0.4-0.4-0.6-0.3c-1,0.2-2.1,0.2-3.1,0c-0.3-0.1-0.5,0.1-0.6,0.3L8.1,27
						c-0.1,0.2-0.3,0.3-0.4,0.2l-1.4-0.6c-0.1,0-0.2-0.1-0.2-0.2c0-0.1,0-0.2,0-0.3l0.5-1.3c0.1-0.3,0-0.5-0.2-0.7
						c-0.9-0.6-1.6-1.3-2.2-2.2c-0.2-0.2-0.4-0.3-0.7-0.2l-1.3,0.5c-0.1,0-0.2,0-0.3,0c-0.1,0-0.2-0.1-0.2-0.2l-0.6-1.4
						c0-0.1,0-0.2,0-0.3c0-0.1,0.1-0.2,0.2-0.2l1.3-0.5C2.9,19.5,3,19.3,3,19c-0.2-1-0.2-2.1,0-3.1c0.1-0.3-0.1-0.5-0.3-0.6
						l-1.3-0.5c-0.2-0.1-0.3-0.3-0.2-0.4l0.6-1.4c0.1-0.2,0.3-0.3,0.4-0.2l1.3,0.5c0.3,0.1,0.5,0,0.7-0.2c0.6-0.9,1.3-1.6,2.2-2.2
						c0.2-0.2,0.3-0.4,0.2-0.7L6.1,8.7c0-0.1,0-0.2,0-0.3c0-0.1,0.1-0.2,0.2-0.2l1.4-0.6c0.1,0,0.2,0,0.3,0c0.1,0,0.2,0.1,0.2,0.2
						l0.5,1.3c0.1,0.3,0.5,0.4,0.7,0.3C9.7,9.3,9.8,9,9.7,8.7L9.2,7.4C9,7,8.7,6.7,8.4,6.6C8.2,6.5,8,6.5,7.8,6.5
						c-0.2,0-0.4,0-0.6,0.1L5.8,7.2C5.5,7.3,5.2,7.6,5,8C4.9,8.3,4.9,8.8,5,9.1L5.4,10c-0.7,0.5-1.3,1.2-1.9,1.9l-0.9-0.4
						c-0.8-0.3-1.6,0-1.9,0.8l-0.6,1.4c-0.3,0.8,0,1.6,0.8,2l0.9,0.4c-0.1,0.9-0.1,1.8,0,2.7l-0.9,0.4c-0.4,0.2-0.7,0.4-0.8,0.8
						s-0.2,0.8,0,1.1l0.6,1.4c0.2,0.4,0.4,0.7,0.8,0.8c0.4,0.2,0.8,0.2,1.1,0L3.5,23c0.5,0.7,1.2,1.3,1.9,1.9L5,25.7
						c-0.2,0.4-0.2,0.8,0,1.1c0.2,0.4,0.4,0.7,0.8,0.8l1.4,0.6c0.8,0.3,1.6,0,1.9-0.8l0.4-0.9c0.9,0.1,1.8,0.1,2.6,0l0.4,0.9
						c0.2,0.4,0.4,0.7,0.8,0.8C13.7,28.4,14.1,28.4,14.5,28.3z"/>
					<path id="Path_26_" class="st1" d="M6.2,17.5c0,2.6,2.1,4.7,4.7,4.7c0,0,0,0,0,0c1.2,0,2.4-0.5,3.3-1.4s1.3-2.1,1.3-3.3
						c0-0.3-0.3-0.6-0.6-0.6h0c-0.3,0-0.6,0.3-0.6,0.6c0,0.9-0.4,1.8-1,2.5c-0.7,0.7-1.5,1.1-2.5,1.1c0,0,0,0,0,0
						c-1.9,0-3.5-1.6-3.5-3.5c0-2,1.6-3.6,3.5-3.6c0.3,0,0.6-0.3,0.6-0.6c0-0.3-0.3-0.6-0.6-0.6c0,0,0,0,0,0
						C8.3,12.7,6.2,14.9,6.2,17.5z"/>
					<path id="Shape_8_" class="st1" d="M20.5,0h-1.1c-0.7,0-1.2,0.6-1.2,1.3v0.6c-0.6,0.2-1.1,0.4-1.6,0.7l-0.4-0.4
						c-0.2-0.2-0.5-0.4-0.9-0.4s-0.6,0.1-0.9,0.4l-0.8,0.8c-0.2,0.2-0.4,0.5-0.4,0.9s0.1,0.6,0.4,0.9l0.4,0.4
						c-0.3,0.5-0.5,1-0.7,1.6h-0.6c-0.7,0-1.2,0.6-1.2,1.3V9c0,0.7,0.6,1.3,1.2,1.3h0.6c0.2,0.6,0.4,1.1,0.7,1.6l-0.4,0.4
						c-0.2,0.2-0.4,0.5-0.4,0.9c0,0.3,0.1,0.6,0.4,0.9l0.8,0.8c0.2,0.2,0.5,0.4,0.9,0.4s0.6-0.1,0.9-0.4l0.4-0.4
						c0.5,0.3,1,0.5,1.6,0.7v0.6c0,0.7,0.6,1.3,1.2,1.3h1.1c0.7,0,1.2-0.6,1.2-1.3v-0.6c0.6-0.2,1.1-0.4,1.6-0.7l0.4,0.4
						c0.2,0.2,0.5,0.4,0.9,0.4c0.3,0,0.6-0.1,0.9-0.4l0.8-0.8c0.5-0.5,0.5-1.3,0-1.8l-0.4-0.4c0.3-0.5,0.5-1,0.7-1.6h0.6
						c0.7,0,1.2-0.6,1.2-1.3V7.9c0-0.7-0.6-1.3-1.2-1.3h-0.6c-0.2-0.6-0.4-1.1-0.7-1.6l0.4-0.4c0.5-0.5,0.5-1.3,0-1.8l-0.8-0.8
						c-0.2-0.2-0.5-0.4-0.9-0.4c-0.3,0-0.6,0.1-0.9,0.4l-0.4,0.4c-0.5-0.3-1-0.5-1.6-0.7V1.3C21.8,0.6,21.2,0,20.5,0z M23.1,3.7
						c0.1,0.1,0.2,0.1,0.3,0.1c0.2,0,0.3-0.1,0.4-0.2l0.7-0.7c0,0,0,0,0.1,0c0,0,0,0,0.1,0l0.8,0.8c0,0,0,0.1,0,0.1l-0.7,0.7
						c-0.2,0.2-0.2,0.5-0.1,0.7c0.4,0.6,0.7,1.3,0.8,2.1c0.1,0.3,0.3,0.5,0.6,0.5h1c0.1,0,0.1,0,0.1,0.1V9c0,0.1,0,0.1-0.1,0.1h-1
						c-0.3,0-0.5,0.2-0.6,0.5c-0.1,0.7-0.4,1.4-0.8,2.1c-0.2,0.2-0.1,0.5,0.1,0.7l0.7,0.7c0,0,0,0.1,0,0.1l-0.8,0.8c0,0,0,0-0.1,0
						c0,0,0,0-0.1,0l-0.7-0.7c-0.2-0.2-0.5-0.2-0.7-0.1c-0.6,0.4-1.3,0.7-2,0.9c-0.3,0.1-0.5,0.3-0.5,0.6v1c0,0.1,0,0.1-0.1,0.1
						h-1.1c-0.1,0-0.1,0-0.1-0.1v-1c0-0.3-0.2-0.5-0.5-0.6c-0.7-0.1-1.4-0.4-2-0.9c-0.2-0.2-0.5-0.1-0.7,0.1L15.4,14c0,0,0,0-0.1,0
						s0,0-0.1,0l-0.8-0.8c0,0,0,0,0-0.1c0,0,0,0,0-0.1l0.7-0.7c0.2-0.2,0.2-0.5,0.1-0.7c-0.4-0.6-0.7-1.3-0.8-2.1
						c-0.1-0.3-0.3-0.5-0.6-0.5h-1c-0.1,0-0.1,0-0.1-0.1V7.9c0-0.1,0-0.1,0.1-0.1h1c0.3,0,0.5-0.2,0.6-0.5c0.1-0.7,0.4-1.4,0.8-2.1
						c0.2-0.2,0.1-0.5-0.1-0.7l-0.7-0.7c0,0,0,0,0-0.1s0,0,0-0.1l0.8-0.8c0,0,0,0,0.1,0s0,0,0.1,0l0.7,0.7c0.2,0.2,0.5,0.2,0.7,0.1
						c0.6-0.4,1.3-0.7,2-0.9c0.3-0.1,0.5-0.3,0.5-0.6v-1c0-0.1,0-0.1,0.1-0.1h1.1c0.1,0,0.1,0,0.1,0.1v1c0,0.3,0.2,0.5,0.5,0.6
						C21.8,3,22.5,3.3,23.1,3.7z"/>
					<path id="Shape_9_" class="st1" d="M16.6,8.5c0,1.9,1.5,3.4,3.4,3.4c1.9,0,3.4-1.5,3.4-3.4C23.4,6.6,21.8,5,20,5
						C18.1,5,16.6,6.6,16.6,8.5z M22.2,8.5c0,1.3-1,2.3-2.3,2.3c-1.2,0-2.3-1-2.3-2.3c0-1.3,1-2.3,2.3-2.3
						C21.2,6.2,22.2,7.2,22.2,8.5z"/>
				</g>
				<path id="Fill-252" class="st0" d="M412.8,15.1c20.4-5.5,41.4,6.6,46.8,27c5.5,20.4-6.6,41.3-27,46.8
					c-20.4,5.5-41.4-6.6-46.8-27C380.3,41.5,392.4,20.5,412.8,15.1z M415.3,24.3C400,28.4,390.9,44.1,395,59.4
					c4.1,15.3,19.8,24.3,35.1,20.3s24.4-19.8,20.3-35.1C446.3,29.2,430.6,20.2,415.3,24.3L415.3,24.3z"/>
				<path id="Fill-253" class="st2" d="M409,122.7c14-3.8,28.4,4.6,32.2,18.6c3.8,14-4.6,28.4-18.6,32.2c-14,3.8-28.4-4.6-32.2-18.6
					C386.6,140.8,394.9,126.4,409,122.7z M410.7,129c-10.5,2.8-16.8,13.6-13.9,24.1c2.8,10.5,13.6,16.7,24.1,13.9
					c10.5-2.8,16.8-13.6,13.9-24.1C432,132.4,421.2,126.2,410.7,129L410.7,129z"/>
				<path id="Fill-254" class="st1" d="M519.9,102.3c14-3.8,28.4,4.6,32.2,18.6c3.8,14-4.6,28.4-18.6,32.2
					c-14,3.8-28.4-4.6-32.2-18.6C497.6,120.4,505.9,106,519.9,102.3z M521.6,108.6c-10.5,2.8-16.8,13.6-13.9,24.1
					c2.8,10.5,13.6,16.7,24.1,13.9c10.5-2.8,16.8-13.6,13.9-24.1C542.9,112,532.1,105.8,521.6,108.6L521.6,108.6z"/>
				<g id="chat-_x28_1_x29_" transform="translate(515.470588, 119.032746)">
					<path id="Path_27_" class="st1" d="M17.7,0H1.4C0.6,0,0,0.6,0,1.4v9.5c0,0.7,0.6,1.3,1.4,1.3h1.1v3.5c0,0.2,0.1,0.4,0.4,0.5
						c0.1,0,0.1,0,0.2,0c0.1,0,0.3-0.1,0.4-0.2l4.1-3.9h0.8c0.3,0,0.6-0.2,0.6-0.6c0-0.3-0.3-0.6-0.6-0.6c0,0-1.1,0-1.1,0
						c-0.1,0-0.3,0.1-0.4,0.2l-3.2,3.1c0,0,0-2.8,0-2.8C3.6,11.3,3.3,11,3,11H1.4c-0.1,0-0.2-0.1-0.2-0.2V1.4c0-0.1,0.1-0.2,0.2-0.2
						h16.3c0.1,0,0.2,0.1,0.2,0.2V5c0,0.3,0.3,0.6,0.6,0.6c0.3,0,0.6-0.2,0.6-0.6V1.4C19.1,0.6,18.5,0,17.7,0z"/>
					<path id="Shape_10_" class="st1" d="M23,6.8H11.5c-0.8,0-1.4,0.6-1.4,1.3v6.5c0,0.7,0.6,1.3,1.4,1.3h7.2l2.9,2.8
						c0.1,0.1,0.3,0.2,0.4,0.2c0.1,0,0.1,0,0.2,0c0.2-0.1,0.4-0.3,0.4-0.5v-2.4H23c0.8,0,1.4-0.6,1.4-1.3V8.2
						C24.4,7.4,23.7,6.8,23,6.8z M23.2,14.6c0,0.1-0.1,0.2-0.2,0.2h-1c-0.3,0-0.5,0.2-0.6,0.5c0,0,0,1.7,0,1.7l-2.1-2c0,0,0,0,0,0
						c0,0,0,0,0,0c-0.1-0.1-0.2-0.1-0.4-0.1h-7.4c-0.1,0-0.2-0.1-0.2-0.2V8.2c0-0.1,0.1-0.2,0.2-0.2H23c0.1,0,0.2,0.1,0.2,0.2V14.6
						L23.2,14.6z"/>
					<path id="Path_28_" class="st1" d="M17.3,10.8c-0.3,0-0.6,0.2-0.6,0.6c0,0.3,0.3,0.6,0.6,0.6c0.3,0,0.6-0.2,0.6-0.6
						C17.8,11.1,17.6,10.8,17.3,10.8z"/>
					<path id="Path_29_" class="st1" d="M14.8,3.7H4.3C4,3.7,3.7,4,3.7,4.3S4,4.8,4.3,4.8h10.5c0.3,0,0.6-0.2,0.6-0.6
						S15.1,3.7,14.8,3.7z"/>
					<path id="Path_30_" class="st1" d="M8.3,7.4h-4C4,7.4,3.7,7.6,3.7,7.9c0,0.3,0.3,0.6,0.6,0.6h4c0.3,0,0.6-0.2,0.6-0.6
						C8.9,7.6,8.6,7.4,8.3,7.4z"/>
					<path id="Path_31_" class="st1" d="M14.6,10.8c-0.3,0-0.6,0.2-0.6,0.6c0,0.3,0.3,0.6,0.6,0.6c0.3,0,0.6-0.2,0.6-0.6
						C15.2,11.1,14.9,10.8,14.6,10.8z"/>
					<path id="Path_32_" class="st1" d="M19.9,10.8c-0.3,0-0.6,0.2-0.6,0.6c0,0.3,0.3,0.6,0.6,0.6c0.3,0,0.6-0.2,0.6-0.6
						C20.5,11.1,20.3,10.8,19.9,10.8z"/>
				</g>
				<path id="Fill-255" class="st2" d="M564.8,210.1c14-3.8,28.4,4.6,32.2,18.6c3.8,14-4.6,28.4-18.6,32.2
					c-14,3.8-28.4-4.6-32.2-18.6C542.5,228.3,550.8,213.9,564.8,210.1z M566.5,216.5c-10.5,2.8-16.8,13.6-13.9,24.1
					c2.8,10.5,13.6,16.7,24.1,13.9c10.5-2.8,16.8-13.6,13.9-24.1C587.9,219.9,577.1,213.6,566.5,216.5L566.5,216.5z"/>
				<path id="Fill-256" class="st0" d="M451.7,199.1c26.8-7.2,54.4,8.7,61.6,35.5c7.2,26.8-8.7,54.4-35.6,61.5
					c-26.8,7.2-54.4-8.7-61.6-35.5C409,233.8,424.9,206.3,451.7,199.1z M455,211.2c-20.1,5.4-32.1,26-26.7,46.2
					c5.4,20.1,26.1,32,46.2,26.6c20.1-5.4,32.1-26,26.7-46.1C495.8,217.8,475.1,205.8,455,211.2L455,211.2z"/>
				<g id="smartphone" transform="translate(449.176471, 224.539043)">
					<path id="Shape_11_" class="st8" d="M29.1,0h-26C1.4,0,0,1.4,0,3.1v42.5c0,1.7,1.4,3.1,3.2,3.1h26c1.8,0,3.2-1.4,3.2-3.1V3.1
						C32.3,1.4,30.9,0,29.1,0z M1.6,7.7h29.1v32.2H1.6V7.7z M3.2,1.5h26c0.9,0,1.6,0.7,1.6,1.5v3.6H1.6V3.1C1.6,2.2,2.3,1.5,3.2,1.5
						z M29.1,47.1h-26c-0.9,0-1.6-0.7-1.6-1.5V41h29.1v4.6C30.7,46.4,30,47.1,29.1,47.1z"/>
					<path id="Shape_12_" class="st0" d="M16.2,41.6c-1.4,0-2.6,1.1-2.6,2.5s1.2,2.5,2.6,2.5s2.6-1.1,2.6-2.5S17.6,41.6,16.2,41.6
						L16.2,41.6z M16.2,45.7c-0.9,0-1.5-0.7-1.5-1.5c0-0.8,0.7-1.5,1.5-1.5s1.5,0.7,1.5,1.5C17.7,45,17,45.7,16.2,45.7z"/>
					<path id="Path_33_" class="st0" d="M12.6,4.9h7.2c0.3,0,0.5-0.2,0.5-0.5c0-0.3-0.2-0.5-0.5-0.5h-7.2c-0.3,0-0.5,0.2-0.5,0.5
						C12,4.7,12.3,4.9,12.6,4.9z"/>
					<path id="Path_34_" class="st0" d="M10.7,4.9c0.1,0,0.3-0.1,0.4-0.2c0.1-0.1,0.2-0.2,0.2-0.4c0-0.1-0.1-0.3-0.2-0.4
						c-0.1-0.1-0.2-0.2-0.4-0.2c-0.1,0-0.3,0.1-0.4,0.2c-0.1,0.1-0.2,0.2-0.2,0.4c0,0.1,0.1,0.3,0.2,0.4C10.4,4.9,10.5,4.9,10.7,4.9
						z"/>
				</g>
				<path id="Fill-257" class="st1" d="M213.9,195.7c14-3.8,28.4,4.6,32.2,18.6c3.8,14-4.6,28.4-18.6,32.2
					c-14,3.8-28.4-4.6-32.2-18.6C191.5,213.9,199.8,199.5,213.9,195.7z M215.6,202.1c-10.5,2.8-16.8,13.6-13.9,24.1
					c2.8,10.5,13.6,16.7,24.1,13.9c10.5-2.8,16.8-13.6,13.9-24.1C236.9,205.5,226.1,199.3,215.6,202.1L215.6,202.1z"/>
				<path id="Fill-258" class="st0" d="M90.6,41.5c20.4-5.5,41.4,6.6,46.8,27c5.5,20.4-6.6,41.3-27,46.8c-20.4,5.5-41.4-6.6-46.8-27
					C58.1,67.9,70.2,46.9,90.6,41.5z M93.1,50.7c-15.3,4.1-24.4,19.8-20.3,35.1c4.1,15.3,19.8,24.3,35.1,20.3s24.4-19.8,20.3-35.1
					C124.1,55.7,108.4,46.6,93.1,50.7L93.1,50.7z"/>
				<path id="Fill-259" class="st1" d="M34.9,147.9c25.1-6.7,51,8.2,57.7,33.3c6.7,25.1-8.2,50.9-33.3,57.6
					c-25.1,6.7-50.9-8.2-57.7-33.3C-5.1,180.4,9.8,154.6,34.9,147.9z M38,159.2c-18.8,5-30,24.4-25,43.2c5.1,18.8,24.4,30,43.3,24.9
					c18.8-5,30-24.4,25-43.2C76.2,165.4,56.8,154.2,38,159.2L38,159.2z"/>
				<path id="Fill-260" class="st0" d="M145,260c20.4-5.5,41.4,6.6,46.8,27c5.5,20.4-6.6,41.3-27,46.8c-20.4,5.5-41.4-6.6-46.8-27
					C112.5,286.4,124.6,265.5,145,260z M147.5,269.2c-15.3,4.1-24.4,19.8-20.3,35.1c4.1,15.3,19.8,24.3,35.1,20.3
					c15.3-4.1,24.4-19.8,20.3-35.1C178.5,274.2,162.8,265.1,147.5,269.2L147.5,269.2z"/>
				<g id="support-_x28_2_x29_" transform="translate(138.000000, 282.702771)">
					<path id="Shape_13_" class="st9" d="M32.2,0H2.9C1.3,0,0,1.3,0,3v18.9c0,1.6,1.3,3,2.9,3H7v5.1c0,0.7,0.5,1.2,1.2,1.2
						c0.3,0,0.6-0.1,0.8-0.3l5.9-5.9h17.3c1.6,0,2.9-1.3,2.9-3V3C35.2,1.3,33.9,0,32.2,0z M33.8,21.8c0,1-0.8,1.8-1.7,1.8H14.7
						c-0.2,0-0.3,0.1-0.4,0.2l-6,6v-5.6c0-0.3-0.3-0.6-0.6-0.6H3.1c-1,0-1.7-0.8-1.7-1.8V3.1c0-1,0.8-1.8,1.7-1.8h29
						c1,0,1.7,0.8,1.7,1.8V21.8z"/>
					<path id="Combined-Shape" class="st10" d="M18.1,4.7c0.6,0,1.1,0.5,1.1,1.2v0.5c0.5,0.1,1,0.3,1.5,0.6l0.4-0.4
						c0.2-0.2,0.5-0.3,0.8-0.3s0.6,0.1,0.8,0.3l0.7,0.7c0.4,0.4,0.4,1.2,0,1.6L23,9.4c0.3,0.5,0.5,1,0.6,1.5h0.5
						c0.6,0,1.1,0.5,1.1,1.2v1c0,0.6-0.5,1.2-1.1,1.2h-0.5c-0.1,0.5-0.3,1-0.6,1.5l0.4,0.4c0.4,0.4,0.4,1.2,0,1.6l-0.7,0.7
						c-0.2,0.2-0.5,0.3-0.8,0.3s-0.6-0.1-0.8-0.3l-0.4-0.4c-0.5,0.3-1,0.5-1.5,0.6v0.5c0,0.6-0.5,1.2-1.1,1.2h-1
						c-0.6,0-1.1-0.5-1.1-1.2v-0.5c-0.5-0.1-1-0.3-1.5-0.6L14,18.5c-0.2,0.2-0.5,0.3-0.8,0.3c-0.3,0-0.6-0.1-0.8-0.3l-0.7-0.7
						c-0.2-0.2-0.3-0.5-0.3-0.8s0.1-0.6,0.3-0.8l0.4-0.4c-0.3-0.5-0.5-1-0.6-1.5h-0.5c-0.6,0-1.1-0.5-1.1-1.2v-1
						c0-0.6,0.5-1.2,1.1-1.2h0.5c0.1-0.5,0.3-1,0.6-1.5L11.7,9c-0.2-0.2-0.3-0.5-0.3-0.8c0-0.3,0.1-0.6,0.3-0.8l0.7-0.7
						c0.2-0.2,0.5-0.3,0.8-0.3c0.3,0,0.6,0.1,0.8,0.3L14.4,7c0.5-0.3,1-0.5,1.5-0.6V5.9c0-0.6,0.5-1.2,1.1-1.2H18.1z M20.5,8.2
						c-0.6-0.4-1.2-0.7-1.9-0.8c-0.3,0-0.4-0.3-0.4-0.5v-1c0,0,0-0.1-0.1-0.1h-1c0,0-0.1,0-0.1,0.1v0.9c0,0.3-0.2,0.5-0.4,0.5
						c-0.7,0.1-1.3,0.4-1.9,0.8c-0.2,0.1-0.5,0.1-0.7-0.1l-0.7-0.7c0,0,0,0-0.1,0s0,0-0.1,0l-0.7,0.7c0,0,0,0,0,0.1c0,0,0,0,0,0.1
						l0.7,0.7c0.2,0.2,0.2,0.5,0.1,0.7c-0.4,0.6-0.6,1.2-0.8,1.9c0,0.3-0.3,0.4-0.5,0.4h-1c0,0-0.1,0-0.1,0.1v1c0,0,0,0.1,0.1,0.1h1
						c0.3,0,0.5,0.2,0.5,0.4c0.1,0.7,0.4,1.3,0.8,1.9c0.1,0.2,0.1,0.5-0.1,0.7l-0.7,0.7c0,0,0,0,0,0.1s0,0,0,0.1l0.7,0.7
						c0,0,0,0,0.1,0s0,0,0.1,0L14,17c0.2-0.2,0.5-0.2,0.7-0.1c0.6,0.4,1.2,0.7,1.9,0.8c0.3,0,0.4,0.3,0.4,0.5v1c0,0,0,0.1,0.1,0.1h1
						c0,0,0.1,0,0.1-0.1v-1c0-0.3,0.2-0.5,0.4-0.5c0.7-0.1,1.3-0.4,1.9-0.8c0.2-0.1,0.5-0.1,0.7,0.1l0.7,0.7c0,0,0,0,0.1,0
						s0,0,0.1,0l0.7-0.7c0,0,0-0.1,0-0.1L22,16.2c-0.2-0.2-0.2-0.5-0.1-0.7c0.4-0.6,0.6-1.2,0.8-1.9c0-0.3,0.3-0.4,0.5-0.4h1
						c0,0,0.1,0,0.1-0.1v-1c0,0,0-0.1-0.1-0.1h-1c-0.3,0-0.5-0.2-0.5-0.4c-0.1-0.7-0.4-1.3-0.8-1.9C21.8,9.4,21.8,9.1,22,9l0.7-0.7
						c0,0,0-0.1,0-0.1l-0.7-0.7c0,0,0,0-0.1,0s0,0-0.1,0l-0.7,0.7c-0.1,0.1-0.2,0.2-0.4,0.2C20.7,8.3,20.6,8.2,20.5,8.2z M14.4,12.6
						c0-1.8,1.4-3.2,3.2-3.2c1.7,0,3.2,1.4,3.2,3.2s-1.4,3.2-3.2,3.2C15.8,15.8,14.4,14.3,14.4,12.6z M19.6,12.6
						c0-1.2-0.9-2.1-2.1-2.1c-1.2,0-2.1,0.9-2.1,2.1s0.9,2.1,2.1,2.1C18.7,14.7,19.6,13.7,19.6,12.6z"/>
				</g>
				<path id="Fill-261" class="st2" d="M49.8,269.6c11.5-3.1,23.3,3.7,26.3,15.2c3.1,11.5-3.7,23.2-15.2,26.3
					c-11.5,3.1-23.3-3.7-26.3-15.2C31.5,284.4,38.3,272.7,49.8,269.6z M51.2,274.8c-8.6,2.3-13.7,11.1-11.4,19.7
					c2.3,8.6,11.1,13.7,19.8,11.4c8.6-2.3,13.7-11.1,11.4-19.7C68.6,277.6,59.8,272.5,51.2,274.8L51.2,274.8z"/>
				<path id="Fill-262" class="st2" d="M170.8,355.9c14-3.8,28.4,4.6,32.2,18.6c3.8,14-4.6,28.4-18.6,32.2
					c-14,3.8-28.4-4.6-32.2-18.6C148.5,374.1,156.8,359.7,170.8,355.9z M172.5,362.3c-10.5,2.8-16.8,13.6-13.9,24.1
					c2.8,10.5,13.6,16.7,24.1,13.9c10.5-2.8,16.8-13.6,13.9-24.1C193.8,365.7,183,359.5,172.5,362.3L172.5,362.3z"/>
				<path id="Fill-263" class="st0" d="M378.3,445.6c9.3-1.8,16.3-3.5,21-4.8c4.3-1.3,10.8-3.6,19.5-7.1
					c-16.3,26.8-5.2,51.5,13.1,62.7l-7.9,2.3c-2.1-0.4-4.3-0.5-6.5,0c-3.3,0.6-6.1,2.2-8.3,4.4l-7.9,2.3
					C410.7,486,406.6,459.2,378.3,445.6z"/>
				<path id="Fill-264" class="st2" d="M532.5,389.7c-34.8-15.7-98.9,12-111.9,40.6l-5.2-12.9c0-1.5-0.1-3-0.4-4.6
					c-0.9-4.5-3.1-8.5-6-11.6l-5.2-12.9c29.1,11.8,94.7-12.3,109.1-47.6l6.9,17.2c0.1,0.9,0.2,1.9,0.4,2.8c0.9,4.6,2.8,8.7,5.5,12.1
					L532.5,389.7"/>
				<path id="Fill-265" class="st2" d="M385.9,386.6c17-3.4,33.5,7.7,36.9,24.7c3.4,17-7.7,33.5-24.7,36.8
					c-17,3.4-33.5-7.7-36.9-24.7C357.8,406.4,368.9,389.9,385.9,386.6z M387.4,394.4c-12.7,2.5-20.9,14.8-18.4,27.5
					c2.5,12.7,14.8,20.9,27.5,18.4c12.7-2.5,20.9-14.8,18.4-27.5C412.4,400.1,400.1,391.9,387.4,394.4L387.4,394.4z"/>
				<g id="selective" transform="translate(378.823529, 407.146096)">
					<path id="Shape_14_" class="st2" d="M26.9,0.8C26.6,0.3,26.2,0,25.6,0c-1.7,0-3,0-4,0c-1.5,0-5.9,0-7.8,0s-3.3,0-4,0
						C9.1,0,5.6,0,4.7,0C4.1,0,3,0,1.4,0c-0.5,0-1,0.3-1.2,0.8C0,1.2,0,1.8,0.3,2.2l9.4,14.3v8.1c0,0.2,0.1,0.5,0.3,0.6
						c0.1,0.1,0.2,0.1,0.4,0.1c0.1,0,0.2,0,0.3-0.1l6.4-2.9c0.3-0.1,0.4-0.4,0.4-0.7v-5.2l9.4-14.3C27.1,1.8,27.1,1.2,26.9,0.8z
						 M16.2,15.9c-0.1,0.1-0.1,0.3-0.1,0.4v5l-5,2.2V17h1.1c0.4,0,0.7-0.3,0.7-0.7c0-0.4-0.3-0.7-0.7-0.7h-1.5l-7-10.7h2.7
						c0.4,0,0.7-0.3,0.7-0.7S6.8,3.4,6.4,3.4H2.7l-1.3-2h24.2L16.2,15.9z"/>
					<path id="Path_35_" class="st11" d="M12.6,9.4h1.2c0.3,0,0.6,0.3,0.6,0.7c0,0.4-0.3,0.7-0.6,0.7h-2.2c-0.4,0-0.7,0.3-0.7,0.7
						c0,0.4,0.3,0.7,0.7,0.7h0.9v0.6c0,0.4,0.3,0.7,0.7,0.7c0.4,0,0.7-0.3,0.7-0.7v-0.6c1.1-0.1,2-1,2-2.1c0-1.2-0.9-2.2-2.1-2.2
						h-1.2c-0.3,0-0.6-0.3-0.6-0.7s0.3-0.7,0.6-0.7h2.2c0.4,0,0.7-0.3,0.7-0.7c0-0.4-0.3-0.7-0.7-0.7h-0.8V4.5
						c0-0.4-0.3-0.7-0.7-0.7c-0.4,0-0.7,0.3-0.7,0.7v0.6c-1.1,0.1-2,1-2,2.1C10.5,8.4,11.4,9.4,12.6,9.4z"/>
				</g>
				<path id="Fill-266" class="st1" d="M538.3,318.1c20.4-5.5,41.4,6.6,46.8,27c5.5,20.4-6.6,41.3-27,46.8
					c-20.4,5.5-41.4-6.6-46.8-27C505.8,344.5,517.9,323.6,538.3,318.1z M540.8,327.3c-15.3,4.1-24.4,19.8-20.3,35.1
					c4.1,15.3,19.8,24.3,35.1,20.3c15.3-4.1,24.4-19.8,20.3-35.1C571.8,332.3,556.1,323.3,540.8,327.3L540.8,327.3z"/>
				<path id="Fill-267" class="st0" d="M416,312.1c13.6-5.2,28.8,1.6,34,15.2c5.2,13.6-1.7,28.8-15.3,34c-13.6,5.2-28.8-1.7-34-15.2
					C395.6,332.5,402.4,317.3,416,312.1z M418.4,318.3c-10.2,3.9-15.3,15.3-11.4,25.5c3.9,10.2,15.3,15.3,25.5,11.4
					c10.2-3.9,15.3-15.3,11.4-25.5C440,319.5,428.6,314.4,418.4,318.3L418.4,318.3z"/>
				<path id="Fill-268" class="st1" d="M356.1,458.2c13.9-4.4,28.7,3.2,33.1,17c4.4,13.8-3.2,28.7-17,33.1
					c-13.9,4.4-28.7-3.2-33.1-17C334.6,477.5,342.3,462.6,356.1,458.2z M358.1,464.5c-10.4,3.3-16.1,14.4-12.8,24.8
					c3.3,10.4,14.5,16.1,24.9,12.8s16.1-14.4,12.8-24.8C379.6,466.8,368.5,461.1,358.1,464.5L358.1,464.5z"/>
				<g id="Group-2" transform="translate(350.411765, 472.073048)">
					<path id="Shape_15_" class="st4" d="M19.1,24.3c-1,0-2.2-0.2-3.5-0.7c-2.9-1.1-6-3.1-8.8-5.9C4,15,1.8,12,0.7,9.2
						c-1-2.5-1-4.6,0-5.6C0.9,3.4,1,3.3,1.2,3.1c0.9-0.9,1.9-2,3.3-1.9c0.9,0,1.8,0.6,2.7,1.7c2.7,3.3,1.5,4.5,0.1,5.8L7,9
						c-0.2,0.2-0.7,1.3,3.4,5.2c1.3,1.3,2.5,2.2,3.4,2.8c0.6,0.4,1.6,0.9,2,0.5l0.3-0.2c1.4-1.4,2.6-2.6,6,0.1
						c1.1,0.9,1.7,1.8,1.8,2.7c0.1,1.3-1,2.3-2,3.2c-0.2,0.1-0.3,0.3-0.4,0.4C20.8,24.1,20.1,24.3,19.1,24.3z M4.3,2
						c-1,0-1.8,0.9-2.6,1.7C1.6,3.8,1.4,4,1.3,4.1C0.6,4.8,0.6,6.7,1.5,8.9c1,2.7,3.1,5.7,5.8,8.3c2.7,2.7,5.8,4.7,8.5,5.7
						c2.2,0.8,4.2,0.9,4.9,0.2c0.1-0.1,0.3-0.3,0.5-0.4c0.8-0.8,1.7-1.6,1.7-2.6c0-0.7-0.5-1.4-1.5-2.1c-2.8-2.2-3.6-1.4-4.9-0.1
						l-0.3,0.3c-0.6,0.6-1.6,0.5-3-0.4c-1-0.6-2.1-1.6-3.5-2.9c-3.4-3.3-4.5-5.3-3.4-6.3l0.3-0.2c1.3-1.3,2.1-2-0.1-4.8
						C5.8,2.5,5.1,2,4.3,2C4.4,2,4.3,2,4.3,2z"/>
					<path id="Path_36_" class="st1" d="M14.3,1c5,0,9,3.9,9,8.8c0,0.3,0.2,0.5,0.5,0.5c0.3,0,0.5-0.2,0.5-0.5
						c0-5.4-4.5-9.8-10.1-9.8c-0.3,0-0.5,0.2-0.5,0.5S14,1,14.3,1z"/>
					<path id="Path_37_" class="st1" d="M14.3,4.1c3.3,0,5.9,2.6,5.9,5.7c0,0.3,0.2,0.5,0.5,0.5c0.3,0,0.5-0.2,0.5-0.5
						c0-3.7-3.1-6.8-7-6.8c-0.3,0-0.5,0.2-0.5,0.5S14,4.1,14.3,4.1z"/>
					<path id="Path_38_" class="st1" d="M14.3,7.2c1.5,0,2.7,1.2,2.7,2.7c0,0.3,0.2,0.5,0.5,0.5c0.3,0,0.5-0.2,0.5-0.5
						c0-2.1-1.7-3.7-3.8-3.7c-0.3,0-0.5,0.2-0.5,0.5C13.7,6.9,14,7.2,14.3,7.2z"/>
				</g>
				<path id="Fill-269" class="st0" d="M316.3,348c33.8,18,73.5-0.4,85.8-23.6l3.6,10.2c-0.3,3,0,6.2,1.2,9.2c1,2.7,2.6,5.1,4.6,7
					l3.6,10.2c-24.3-10.2-66.6,0.5-81.5,35.7l-6.9-19.5c-0.3-1.9-0.8-3.8-1.5-5.6c-0.5-1.4-1.2-2.8-1.9-4.1L316.3,348"/>
				<g id="social-engagement-customer-service-seo-care-talking-6" transform="translate(415.352941, 324.634761)">
					<path id="Shape_16_" class="st12" d="M10.8,0C9.2,0,7.5,0.4,6.1,1.3C3.2,2.9,1.4,6,1.3,9.4c0,0.1,0,0.4,0,0.7
						c0,0.2,0,0.2,0,0.3H0.4c0,0-0.1,0-0.1,0c-0.2,0-0.3,0.2-0.3,0.4v1.3V13v1.3c0,0.2,0.2,0.4,0.4,0.4h1.3c0.5,0,0.9-0.1,1.3-0.5
						c0.1-0.1,0.2-0.3,0.3-0.4h0.6c0.7,0,1.3-0.6,1.3-1.3c0-0.7-0.6-1.3-1.3-1.3H3.2C3.1,11.2,3.1,11,3,10.9
						c-0.2-0.2-0.5-0.4-0.9-0.4c0-0.1,0-0.2,0-0.4c0-0.4,0-0.8,0-0.7C2.2,6.3,3.8,3.5,6.5,2c2.7-1.6,6-1.6,8.7,0
						c2.6,1.5,4.3,4.3,4.4,7.3c0,0.1,0,0.2,0,0.3c-1.1,0.1-1.9,0.9-1.9,2v2c0,0.9,0.6,1.7,1.5,2c-0.1,3.6-2.7,6.1-6.3,6.9v-0.3
						c0-0.2-0.2-0.4-0.4-0.4h-0.6h-0.6h-0.6c-0.3,0-0.6,0.2-0.8,0.4c-0.2,0.2-0.2,0.5-0.2,0.8c0,0.3,0.1,0.6,0.2,0.9
						c0.2,0.2,0.5,0.4,0.8,0.4h0.6h0.6h0.6c0.2,0,0.4-0.2,0.4-0.4v-0.7c3.9-0.9,7-3.6,7.1-7.7c1-0.1,1.7-1,1.7-2v-2
						c0-0.9-0.5-1.6-1.3-1.9c0-0.1,0-0.3,0-0.5c-0.1-3.3-1.9-6.3-4.8-8C14.1,0.4,12.5,0,10.8,0L10.8,0z M19.6,10.4
						c0.7,0,1.2,0.5,1.2,1.2v2c0,0.7-0.5,1.2-1.2,1.2c-0.7,0-1.2-0.5-1.2-1.2v-2C18.4,10.9,19,10.4,19.6,10.4z M0.8,11.3h0.8
						c0,0,0.1,0,0.2,0c0.3,0,0.5,0.1,0.6,0.2c0.1,0.1,0.2,0.3,0.2,0.7V13c0,0.4-0.1,0.6-0.2,0.7c-0.1,0.1-0.3,0.2-0.7,0.2H0.8V13
						v-0.9V11.3L0.8,11.3z M3.4,12.1h0.5c0.3,0,0.5,0.2,0.5,0.5c0,0.3-0.2,0.5-0.5,0.5H3.4c0,0,0,0,0,0V12.1
						C3.4,12.2,3.4,12.1,3.4,12.1L3.4,12.1z M5.9,14.6c-0.2,0.1-0.3,0.2-0.3,0.4v5.7c0,0.2,0.2,0.4,0.4,0.4h1.2v1.2
						c0,0.3,0.4,0.5,0.7,0.3l1.8-1.5H14c0.2,0,0.4-0.2,0.4-0.4V15c0-0.2-0.2-0.4-0.4-0.4H6C6,14.6,5.9,14.6,5.9,14.6z M6.4,15.4h7.2
						v4.9H9.5c-0.1,0-0.2,0-0.3,0.1L8,21.4v-0.7c0-0.2-0.2-0.4-0.4-0.4H6.4V15.4L6.4,15.4z M8.4,17.4c-0.2,0-0.4,0.2-0.4,0.4
						c0,0.2,0.2,0.4,0.4,0.4c0.2,0,0.4-0.2,0.4-0.4C8.8,17.6,8.6,17.4,8.4,17.4z M10,17.4c-0.2,0-0.4,0.2-0.4,0.4
						c0,0.2,0.2,0.4,0.4,0.4c0.2,0,0.4-0.2,0.4-0.4C10.4,17.6,10.2,17.4,10,17.4z M11.6,17.4c-0.2,0-0.4,0.2-0.4,0.4
						c0,0.2,0.2,0.4,0.4,0.4c0.2,0,0.4-0.2,0.4-0.4C12,17.6,11.8,17.4,11.6,17.4z M10.6,22.6C10.7,22.6,10.7,22.6,10.6,22.6h0.6h0.6
						h0.2v0.3c0,0.1,0,0.1,0,0.2v0.1v0.5h-0.2h-0.6h-0.6c0,0,0,0-0.1-0.1c-0.1-0.1-0.1-0.2-0.1-0.4C10.5,22.9,10.5,22.8,10.6,22.6
						C10.6,22.6,10.6,22.6,10.6,22.6L10.6,22.6z"/>
				</g>
				<path id="Fill-270" class="st1" d="M335.6,391.7c-9.9,37,9.9,59.3,35.4,66.1l-9,5.8c-1.3,0.1-2.6,0.4-3.8,0.8
					c-4.8,1.5-8.6,4.7-11,8.7l-9,5.8c4.3-26-7.9-53.2-45.8-59.4l18-11.6c2.7-1.2,5.1-2.8,7.3-4.7L335.6,391.7"/>
				<path id="Fill-271" class="st2" d="M269.7,407.4c-25.6-28.5-54.9-24.1-74.5-6.5l0-10.7c2.3-4.5,2.8-9.8,1.2-14.9
					c-0.3-0.9-0.7-1.8-1.1-2.7l0-10.7c19.5,17.7,48.7,22.4,74.6-5.9l-0.1,21.4c-0.4,2.8-0.5,5.7,0,8.6L269.7,407.4"/>
				<g id="smartphone_1_" transform="translate(169.117647, 370.624685)">
					<path id="Shape_17_" class="st13" d="M13.7,0H1.5C0.7,0,0,0.7,0,1.5v20.1C0,22.3,0.7,23,1.5,23h12.2c0.8,0,1.5-0.7,1.5-1.5V1.5
						C15.2,0.7,14.6,0,13.7,0z M0.8,3.7h13.7v15.2H0.8V3.7z M1.5,0.7h12.2c0.4,0,0.7,0.3,0.7,0.7v1.7H0.8V1.5
						C0.8,1.1,1.1,0.7,1.5,0.7z M13.7,22.3H1.5c-0.4,0-0.7-0.3-0.7-0.7v-2.2h13.7v2.2C14.5,21.9,14.1,22.3,13.7,22.3z"/>
					<rect id="Rectangle" x="12.3" y="4.9" class="st14" width="4.9" height="6.2"/>
					<path id="Path_39_" class="st15" d="M17.6,9.9h-6.4c0,0,0,0,0,0l-3,2.6V9.9c0,0,0,0,0,0H6.1V6.5h11.5V9.9z"/>
					<path id="Shape_18_" class="st2" d="M7.6,19.7c-0.7,0-1.2,0.5-1.2,1.2c0,0.7,0.6,1.2,1.2,1.2s1.2-0.5,1.2-1.2
						S8.3,19.7,7.6,19.7L7.6,19.7z M7.6,21.6c-0.4,0-0.7-0.3-0.7-0.7c0-0.4,0.3-0.7,0.7-0.7c0.4,0,0.7,0.3,0.7,0.7
						C8.3,21.3,8,21.6,7.6,21.6z"/>
					<path id="Path_40_" class="st2" d="M5.9,2.3h3.4c0.1,0,0.2-0.1,0.2-0.2c0-0.1-0.1-0.2-0.2-0.2H5.9c-0.1,0-0.2,0.1-0.2,0.2
						C5.7,2.2,5.8,2.3,5.9,2.3z"/>
					<path id="Path_41_" class="st2" d="M5,2.3c0.1,0,0.1,0,0.2-0.1c0,0,0.1-0.1,0.1-0.2c0-0.1,0-0.1-0.1-0.2c0,0-0.1-0.1-0.2-0.1
						c-0.1,0-0.1,0-0.2,0.1c0,0-0.1,0.1-0.1,0.2c0,0.1,0,0.1,0.1,0.2C4.9,2.3,5,2.3,5,2.3z"/>
				</g>
				<path id="Fill-272" class="st1" d="M286.5,345.4c20.1-6.5,41.7,4.5,48.3,24.7c6.5,20.1-4.5,41.7-24.7,48.2
					c-20.1,6.5-41.7-4.5-48.3-24.7C255.3,373.5,266.3,351.9,286.5,345.4z M289.4,354.5c-15.1,4.9-23.4,21.1-18.5,36.1
					c4.9,15.1,21.1,23.4,36.2,18.5c15.1-4.9,23.4-21.1,18.5-36.1C320.7,357.9,304.5,349.6,289.4,354.5L289.4,354.5z"/>
			</g>
		</g>
	</g>
</g>
<g id="DESIGN_1_">
	<g id="CONNEX-HOME-GRADIENT_1_" transform="translate(-771.000000, -655.000000)">
		<g id="HEAD_1_" transform="translate(131.000000, 117.000000)">
			<g id="brain_shadow" transform="translate(640.000000, 538.000000)">
				<path id="Fill-202" class="st16" d="M299.5,576.6c124.1,0,225.2-6.8,225.2-15.1c0-8.3-101.2-15.1-225.2-15.1
					c-124.1,0-225.2,6.8-225.2,15.1C74.2,569.8,175.4,576.6,299.5,576.6"/>
				<path id="Fill-203" class="st17" d="M306.6,546.9c120.1,0,217.4,6.5,217.4,14.6c0,8.1-97.3,14.6-217.4,14.6
					s-217.4-6.5-217.4-14.6C89.2,553.4,186.5,546.9,306.6,546.9"/>
				<path id="Fill-204" class="st18" d="M312.8,547.4c115.7,0,209.5,6.3,209.5,14.1c0,7.8-93.8,14.1-209.5,14.1
					s-209.5-6.3-209.5-14.1C103.3,553.7,197.1,547.4,312.8,547.4"/>
				<path id="Fill-205" class="st18" d="M318.4,547.9c111.4,0,201.6,6.1,201.6,13.5c0,7.5-90.3,13.5-201.6,13.5
					s-201.6-6.1-201.6-13.5C116.7,554,207,547.9,318.4,547.9"/>
				<path id="Fill-206" class="st19" d="M323.3,548.5c107,0,193.8,5.8,193.8,13c0,7.2-86.7,13-193.8,13c-107,0-193.8-5.8-193.8-13
					C129.6,554.3,216.3,548.5,323.3,548.5"/>
				<path id="Fill-207" class="st20" d="M327.9,549c102.7,0,185.9,5.6,185.9,12.5c0,6.9-83.2,12.5-185.9,12.5S142,568.4,142,561.5
					C142,554.6,225.2,549,327.9,549"/>
				<path id="Fill-208" class="st21" d="M332,549.5c98.3,0,178,5.4,178,12c0,6.6-79.7,12-178,12c-98.3,0-178-5.4-178-12
					C154,554.9,233.7,549.5,332,549.5"/>
				<path id="Fill-209" class="st22" d="M335.8,550c94,0,170.1,5.1,170.1,11.4s-76.2,11.4-170.1,11.4s-170.1-5.1-170.1-11.4
					S241.9,550,335.8,550"/>
				<path id="Fill-210" class="st23" d="M339.4,550.6c89.6,0,162.3,4.9,162.3,10.9c0,6-72.6,10.9-162.3,10.9s-162.3-4.9-162.3-10.9
					C177.1,555.4,249.8,550.6,339.4,550.6"/>
				<path id="Fill-211" class="st24" d="M342.7,551.1c85.3,0,154.4,4.6,154.4,10.4s-69.1,10.4-154.4,10.4s-154.4-4.6-154.4-10.4
					S257.4,551.1,342.7,551.1"/>
				<path id="Fill-212" class="st25" d="M345.8,551.6c80.9,0,146.5,4.4,146.5,9.8c0,5.4-65.6,9.8-146.5,9.8
					c-80.9,0-146.5-4.4-146.5-9.8C199.3,556,264.9,551.6,345.8,551.6"/>
				<path id="Fill-213" class="st26" d="M348.7,552.2c76.6,0,138.7,4.2,138.7,9.3s-62.1,9.3-138.7,9.3c-76.6,0-138.7-4.2-138.7-9.3
					S272.2,552.2,348.7,552.2"/>
				<path id="Fill-214" class="st27" d="M351.5,552.7c72.2,0,130.8,3.9,130.8,8.8c0,4.9-58.6,8.8-130.8,8.8
					c-72.2,0-130.8-3.9-130.8-8.8C220.7,556.6,279.3,552.7,351.5,552.7"/>
				<path id="Fill-215" class="st28" d="M354.1,553.2c67.9,0,122.9,3.7,122.9,8.3s-55,8.3-122.9,8.3s-122.9-3.7-122.9-8.3
					S286.2,553.2,354.1,553.2"/>
				<path id="Fill-216" class="st29" d="M356.6,553.7c63.5,0,115,3.5,115,7.7c0,4.3-51.5,7.7-115,7.7c-63.5,0-115-3.5-115-7.7
					C241.6,557.2,293.1,553.7,356.6,553.7"/>
				<path id="Fill-217" class="st30" d="M359,554.3c59.2,0,107.2,3.2,107.2,7.2s-48,7.2-107.2,7.2s-107.2-3.2-107.2-7.2
					S299.8,554.3,359,554.3"/>
				<path id="Fill-218" class="st31" d="M361.2,554.8c54.8,0,99.3,3,99.3,6.7s-44.5,6.7-99.3,6.7s-99.3-3-99.3-6.7
					S306.4,554.8,361.2,554.8"/>
				<path id="Fill-219" class="st32" d="M363.4,555.3c50.5,0,91.4,2.7,91.4,6.1s-40.9,6.1-91.4,6.1s-91.4-2.7-91.4-6.1
					S312.9,555.3,363.4,555.3"/>
				<path id="Fill-220" class="st33" d="M365.5,555.9c46.1,0,83.5,2.5,83.5,5.6c0,3.1-37.4,5.6-83.5,5.6c-46.1,0-83.5-2.5-83.5-5.6
					C281.9,558.4,319.3,555.9,365.5,555.9"/>
				<path id="Fill-221" class="st34" d="M367.4,556.4c41.8,0,75.7,2.3,75.7,5.1c0,2.8-33.9,5.1-75.7,5.1c-41.8,0-75.7-2.3-75.7-5.1
					C291.8,558.7,325.6,556.4,367.4,556.4"/>
				<path id="Fill-222" class="st35" d="M369.4,556.9c37.4,0,67.8,2,67.8,4.6c0,2.5-30.4,4.6-67.8,4.6c-37.4,0-67.8-2-67.8-4.6
					C301.6,559,331.9,556.9,369.4,556.9"/>
				<path id="Fill-223" class="st36" d="M371.2,557.4c33.1,0,59.9,1.8,59.9,4c0,2.2-26.8,4-59.9,4s-59.9-1.8-59.9-4
					C311.3,559.2,338.1,557.4,371.2,557.4"/>
				<path id="Fill-224" class="st37" d="M373,558c28.8,0,52.1,1.6,52.1,3.5S401.7,565,373,565c-28.8,0-52.1-1.6-52.1-3.5
					S344.2,558,373,558"/>
				<path id="Fill-225" class="st38" d="M374.7,558.5c24.4,0,44.2,1.3,44.2,3s-19.8,3-44.2,3s-44.2-1.3-44.2-3
					S350.3,558.5,374.7,558.5"/>
				<path id="Fill-226" class="st39" d="M376.3,559c20.1,0,36.3,1.1,36.3,2.4s-16.3,2.4-36.3,2.4c-20.1,0-36.3-1.1-36.3-2.4
					S356.3,559,376.3,559"/>
				<path id="Fill-227" class="st40" d="M377.9,559.6c15.7,0,28.4,0.9,28.4,1.9c0,1.1-12.7,1.9-28.4,1.9c-15.7,0-28.4-0.9-28.4-1.9
					C349.5,560.4,362.2,559.6,377.9,559.6"/>
				<path id="Fill-228" class="st41" d="M379.5,560.1c11.4,0,20.6,0.6,20.6,1.4s-9.2,1.4-20.6,1.4c-11.4,0-20.6-0.6-20.6-1.4
					S368.1,560.1,379.5,560.1"/>
				<path id="Fill-229" class="st42" d="M381,560.6c7,0,12.7,0.4,12.7,0.9c0,0.5-5.7,0.9-12.7,0.9c-7,0-12.7-0.4-12.7-0.9
					C368.3,561,374,560.6,381,560.6"/>
			</g>
		</g>
	</g>
</g>
</svg>
