<?xml version="1.0" encoding="utf-8"?>
<!-- Generator: Adobe Illustrator 22.1.0, SVG Export Plug-In . SVG Version: 6.00 Build 0)  -->
<svg version="1.1" id="Шар_1" xmlns="http://www.w3.org/2000/svg" xmlns:xlink="http://www.w3.org/1999/xlink" x="0px" y="0px"
	 viewBox="0 0 1311 995" style="enable-background:new 0 0 1311 995;" xml:space="preserve">
<style type="text/css">
	.st0{opacity:0.625;}
	.st1{fill:#F6F6F6;}
</style>
<title>bg shape</title>
<desc>Created with Sketch.</desc>
<g id="DESIGN" class="st0">
	<g id="CONNEX-HOME-GRADIENT" transform="translate(-129.000000, -4304.000000)">
		<g id="CONNECT" transform="translate(0.000000, 4176.000000)">
			<path id="bg-shape" class="st1" d="M1546.7,1341.9l-599,160.5c-28.3,7.6-58.5,2.4-82.6-14.2l-692.5-477.1
				c-45.5-31.3-56.9-93.6-25.6-139.1c0.9-1.3,1.8-2.6,2.8-3.8l408.4-536.9c13.4-17.6,32.3-30.3,53.7-36.1l610.6-163.6
				c34.5-9.2,71.3,0.6,96.6,25.9l430.1,429.8c25.3,25.3,35.2,62.1,25.9,96.6l-157.6,587.3
				C1608.2,1305.7,1581.2,1332.7,1546.7,1341.9z"/>
		</g>
	</g>
</g>
</svg>
