<?xml version="1.0" encoding="utf-8"?>
<!-- Generator: Adobe Illustrator 22.1.0, SVG Export Plug-In . SVG Version: 6.00 Build 0)  -->
<svg version="1.1" xmlns="http://www.w3.org/2000/svg" xmlns:xlink="http://www.w3.org/1999/xlink" x="0px" y="0px"
	 viewBox="0 0 66 73" style="enable-background:new 0 0 66 73;" xml:space="preserve">
<style type="text/css">
	.st0{fill:#6635FF;stroke:#6635FF;stroke-width:0.5;}

    .dot1 {
      -webkit-animation: pulse 1s infinite; /* Safari 4+ */
      -moz-animation:    pulse 1s infinite; /* Fx 5+ */
      -o-animation:      pulse 1s infinite; /* Opera 12+ */
      animation:         pulse 1s infinite; /* IE 10+, Fx 29+ */
    }

    .dot2 {
      -webkit-animation: pulse 1s infinite 0.2s; /* Safari 4+ */
      -moz-animation:    pulse 1s infinite 0.2s; /* Fx 5+ */
      -o-animation:      pulse 1s infinite 0.2s; /* Opera 12+ */
      animation:         pulse 1s infinite 0.2s; /* IE 10+, Fx 29+ */
    }

    .dot3 {
      -webkit-animation: pulse 1s infinite 0.4s; /* Safari 4+ */
      -moz-animation:    pulse 1s infinite 0.4s; /* Fx 5+ */
      -o-animation:      pulse 1s infinite 0.4s; /* Opera 12+ */
      animation:         pulse 1s infinite 0.4s; /* IE 10+, Fx 29+ */
    }

    @-webkit-keyframes pulse {
      0%   { opacity: 0; }
      100% { opacity: 1; }
    }
    @-moz-keyframes pulse {
      0%   { opacity: 0; }
      100% { opacity: 1; }
    }
    @-o-keyframes pulse {
      0%   { opacity: 0; }
      100% { opacity: 1; }
    }
    @keyframes pulse {
      0%   { opacity: 0; }
      100% { opacity: 1; }
    }
</style>

<g id="layer_1">
	<title>social-engagement-customer-service-seo-care-talking-6</title>
	<desc>Created with Sketch.</desc>
	<g id="CONNEX-HOME-GRADIENT" transform="translate(-450.000000, -1590.000000)">
		<g id="SOLUTIONS" transform="translate(304.000000, 1447.000000)">
			<g id="social-engagement-customer-service-seo-care-talking-6" transform="translate(147.000000, 0.000000)">
				<path id="Shape" class="st0" d="M32,144c-4.9,0-9.7,1.2-14.1,3.7C9.4,152.6,4,161.6,3.9,171.4c0,0.3,0,1.1,0,2.1
					c0,0.5,0,0.6,0,1H1.2c-0.1,0-0.1,0-0.2,0c-0.5,0.1-1,0.6-1,1.2v3.8v2.5v3.8c0,0.6,0.6,1.2,1.2,1.2H5c1.5,0,2.8-0.4,3.7-1.3
					c0.4-0.4,0.7-0.8,0.9-1.3h1.9c2.1,0,3.7-1.6,3.7-3.7c0-2-1.7-3.8-3.7-3.8h-2c-0.2-0.4-0.4-0.9-0.7-1.2c-0.7-0.7-1.5-1.1-2.5-1.3
					c0-0.4,0-0.5,0-1c0-1,0-2.2,0-2.1c0.2-8.9,5-17.1,12.9-21.6c8-4.6,17.8-4.6,25.8,0c7.7,4.4,12.6,12.5,12.9,21.3
					c0,0.1,0,0.5,0,0.9c-3.1,0.2-5.7,2.7-5.7,5.8v5.8c0,2.7,1.9,5,4.4,5.7c-0.2,10.5-8.1,17.7-18.5,20.1v-0.7c0-0.6-0.6-1.2-1.2-1.2
					H35h-1.8h-1.7c-0.9,0-1.8,0.6-2.3,1.3s-0.7,1.5-0.7,2.4c0,0.9,0.2,1.8,0.7,2.5c0.5,0.7,1.3,1.3,2.3,1.3h1.7H35h1.8
					c0.6,0,1.2-0.6,1.2-1.2v-1.9c11.4-2.5,20.6-10.6,20.9-22.4c2.9-0.4,5.1-2.9,5.1-5.8v-5.8c0-2.5-1.6-4.6-3.9-5.5c0-0.3,0-1,0-1.3
					c-0.3-9.6-5.6-18.5-14.1-23.3C41.7,145.2,36.9,144,32,144L32,144z M58.1,174.3c2,0,3.6,1.5,3.6,3.5v5.8c0,2-1.5,3.6-3.6,3.6
					s-3.6-1.6-3.6-3.6v-5.8C54.4,175.8,56.1,174.3,58.1,174.3z M2.4,176.8h2.4c0.1,0,0.3,0,0.4,0c0.9,0,1.5,0.3,1.9,0.6
					c0.4,0.4,0.6,1,0.6,2.1v2.5c0,1.1-0.2,1.6-0.6,2c-0.4,0.4-1,0.7-2.1,0.7H2.4V182v-2.5V176.8L2.4,176.8z M10.1,179.4h1.4
					c0.8,0,1.3,0.6,1.3,1.4c0,0.8-0.5,1.3-1.3,1.3h-1.4c0,0,0,0,0-0.1v-2.5C10.1,179.4,10.1,179.4,10.1,179.4L10.1,179.4z
					 M17.4,186.6c-0.5,0.2-0.8,0.7-0.8,1.2v16.6c0,0.6,0.6,1.2,1.2,1.2h3.6v3.6c0,0.9,1.2,1.4,1.9,0.9l5.3-4.4h12.9
					c0.6,0,1.2-0.6,1.2-1.2v-16.6c0-0.6-0.6-1.2-1.2-1.2H17.8C17.7,186.6,17.5,186.6,17.4,186.6z M19,189h21.3v14.2H28.2
					c-0.3,0-0.5,0.1-0.7,0.2l-3.8,3.1v-2.1c0-0.6-0.6-1.2-1.2-1.2H19V189L19,189z M31.5,209.9C31.5,209.9,31.5,209.9,31.5,209.9h1.8
					H35h0.6v0.7c0,0.1,0,0.3,0,0.4v0.1v1.4H35h-1.8h-1.7c0,0-0.1-0.1-0.3-0.3c-0.2-0.2-0.3-0.6-0.3-1.1c0-0.5,0.1-0.9,0.3-1.1
					C31.3,210,31.4,209.9,31.5,209.9L31.5,209.9z"/>
			</g>
		</g>
	</g>
</g>
<g id="dots">
	<circle class="st0 dot1" cx="25.9" cy="53.5" r="1.2"/>
	<circle class="st0 dot2" cx="30.6" cy="53.5" r="1.2"/>
	<circle class="st0 dot3" cx="35.4" cy="53.5" r="1.2"/>
</g>
</svg>
