<?xml version="1.0" encoding="utf-8"?>
<!-- Generator: Adobe Illustrator 23.0.2, SVG Export Plug-In . SVG Version: 6.00 Build 0)  -->
<svg version="1.1" id="Layer_1" xmlns="http://www.w3.org/2000/svg" xmlns:xlink="http://www.w3.org/1999/xlink" x="0px" y="0px"
	 viewBox="0 0 360 350" style="enable-background:new 0 0 360 350;" xml:space="preserve">
<style type="text/css">
	.st0{fill-rule:evenodd;clip-rule:evenodd;fill:#00D2AB;}
</style>
<title>Combined Shape</title>
<desc>Created with Sketch.</desc>
<g id="DESIGN">
	<g id="CONNEX-MOBILE-HOME" transform="translate(0.000000, -558.000000)">
		<g id="WELCOME" transform="translate(0.000000, 548.000000)">
			<g id="Group-4" transform="translate(0.000000, 0.000000)">
				<path id="Combined-Shape" class="st0" d="M285.9,327.1H114.4c-14.1,0-29.3,0-45.6,0c-0.5,0-0.9,0-1.4,0H40
					c-22.1,0-40-11.7-40-26v-44.5c0,0,0,0,0,0L0,92.3h0.1C1,84.4,5.7,76.7,14.3,70.4c10.5-7.8,25.6-12.2,41.3-12.2
					c162.1,0.1,175.5,0.1,203.3-0.2c55.6-0.5,101.2,0.8,101.1-41.4c-0.1-27.7,6.9,32.1,7,172.7c0,1.4-2.3,1-4.3,0.8
					c1.9,26.3,4.2,80.3,4.3,160.8c0,2.5-7.1,6.4-7.1,9c-0.3-18.6-21.5-32.7-55.2-32.8C299.1,327.2,292.9,327.2,285.9,327.1z"/>
			</g>
		</g>
	</g>
</g>
</svg>
