<?xml version="1.0" encoding="UTF-8"?>
<svg width="360px" height="528px" viewBox="0 0 360 528" version="1.1" xmlns="http://www.w3.org/2000/svg" xmlns:xlink="http://www.w3.org/1999/xlink">
    <!-- Generator: Sketch 53.2 (72643) - https://sketchapp.com -->
    <title>Combined Shape</title>
    <desc>Created with Sketch.</desc>
    <g id="DESIGN" stroke="none" stroke-width="1" fill="none" fill-rule="evenodd">
        <g id="CONNEX-MOBILE-HOME" transform="translate(0.000000, -558.000000)" fill="#00D2AB">
            <g id="WELCOME" transform="translate(0.000000, 548.000000)">
                <g id="Group-4" transform="translate(0.000000, 0.000000)">
                    <path d="M285.871548,487.508535 L114.405257,487.508535 C100.269897,487.522136 85.0984278,487.538094 68.7940869,487.556538 C68.3231963,487.557071 67.8554495,487.540904 67.3914583,487.508535 L40,487.508535 C17.90861,487.508535 2.705415e-15,469.599925 0,447.508535 L0,379.10054 C4.13825808e-12,379.10054 4.13825808e-12,379.10054 4.13825808e-12,379.10054 L0,126.508535 L0.144397857,126.508535 C1.00117825,114.41287 5.67459683,102.505316 14.2681586,92.7952146 C24.8168588,80.875948 39.8467531,74.0782947 55.6115279,74.0966207 C217.760832,74.2851027 231.135108,74.1880701 258.938168,73.805512 C314.557233,73.0402176 360.095369,75.0775444 359.999776,10.1377505 C359.937165,-32.3962187 366.921755,59.4417068 366.953546,275.651527 C366.953867,277.838851 364.667423,277.183468 362.68633,276.922674 C364.635876,317.27514 366.935336,400.31407 366.953546,524.160062 C366.954113,528.019384 359.835707,534.029021 359.836304,537.970783 C359.585992,509.448207 338.351655,487.715767 304.622368,487.570948 C299.054443,487.547042 292.911062,487.526097 285.87154,487.508535 Z" id="Combined-Shape"></path>
                </g>
            </g>
        </g>
    </g>
</svg>