<?xml version="1.0" encoding="UTF-8"?>
<svg width="300px" height="579px" viewBox="0 0 300 579" version="1.1" xmlns="http://www.w3.org/2000/svg" xmlns:xlink="http://www.w3.org/1999/xlink">
    <!-- Generator: Sketch 53.2 (72643) - https://sketchapp.com -->
    <title>shapes</title>
    <desc>Created with Sketch.</desc>
    <g id="DESIGN" stroke="none" stroke-width="1" fill="none" fill-rule="evenodd">
        <g id="CONNEX-OUR-EDGE" transform="translate(0.000000, -451.000000)">
            <g id="HERO" transform="translate(-237.037176, 73.000000)">
                <g id="shapes" transform="translate(0.079728, 377.181424)">
                    <path d="M257.955312,579.566213 C252.419459,579.569394 246.294724,579.645881 235.99113,579.742736 C235.778572,507.366998 235.434094,314.20973 234.957696,0.270934466 C359.09876,66.7419253 434.924709,107.494789 462.435543,122.529526 C503.701795,145.081631 544.395866,157.956068 534.698489,213.785333 C525.001111,269.614597 366.052357,376.758216 286.130672,454.67162 C261.399925,478.78093 257.923253,511.97647 257.940378,522.603558 C257.979706,547.008819 257.952423,567.118236 257.955312,579.566213 Z" id="Path" fill="#693AF9"></path>
                    <path d="M239.439049,500.082546 C235.225465,500.469622 220.568334,490.953755 212.73164,491.743841 C207.929402,436.329966 190.74543,271.491845 161.179723,-2.77052341 C274.364873,62.2888761 340.339332,100.188544 359.103098,110.92848 C387.248748,127.038385 428.183,140.112656 422.84842,176.818848 C417.513839,213.525041 298.717276,327.252174 242.877869,392.474898 C225.599076,412.657239 225.081063,438.321463 225.775465,446.458983 C227.370168,465.146913 238.638736,490.549518 239.439049,500.082546 Z" id="Path" fill="#5E2FF0" opacity="0.700195312"></path>
                </g>
            </g>
        </g>
    </g>
</svg>