<?xml version="1.0" encoding="UTF-8"?>
<svg width="65px" height="61px" viewBox="0 0 65 61" version="1.1" xmlns="http://www.w3.org/2000/svg" xmlns:xlink="http://www.w3.org/1999/xlink">
    <!-- Generator: Sketch 53.2 (72643) - https://sketchapp.com -->
    <title>promotion</title>
    <desc>Created with Sketch.</desc>
    <g id="Page-1" stroke="none" stroke-width="1" fill="none" fill-rule="evenodd">
        <g id="CONNEX-SOLUTIONS-1" transform="translate(-885.000000, -2796.000000)" fill="#FFFFFF" fill-rule="nonzero">
            <g id="Group-14" transform="translate(240.000000, 2651.000000)">
                <g id="Group-11">
                    <g id="promotion" transform="translate(645.000000, 145.000000)">
                        <path d="M17.388115,38.7676224 C17.9951096,38.4207635 18.2028961,37.650894 17.8527832,37.0495409 C17.5021743,36.4486791 16.7255783,36.2423325 16.1185837,36.5891913 C15.5115891,36.9365415 15.3033066,37.7064111 15.6539155,38.3072729 C16.0040283,38.908626 16.7811203,39.1149726 17.388115,38.7676224 L17.388115,38.7676224 Z" id="Path"></path>
                        <path d="M12.1855164,47.4484294 L18.5787964,58.4196843 C19.9584199,60.7897229 23.0618286,61.6671876 25.5160904,60.2615737 C27.9445649,58.8711904 28.7791824,55.7971166 27.3742676,53.3892477 L23.5656738,46.8529719 L26.8639756,44.966374 C27.4709702,44.6185325 27.6792527,43.8496456 27.3286438,43.2482925 L25.6777573,40.4154479 C25.8746338,40.3776176 27.1689605,40.1260712 49.9942398,35.6901095 C52.8159714,35.5382974 54.5065308,32.4809278 53.0812836,30.0367026 L48.8620757,22.796883 L51.558342,18.7510149 C51.8231582,18.3530606 51.8390274,17.8416157 51.5985107,17.4289224 L49.0594482,13.0720603 C48.8189316,12.659367 48.3621978,12.4176466 47.8836441,12.4456508 L42.9994202,12.73601 L38.3155442,4.69831672 C37.6371384,3.53393199 36.4216614,2.82891437 35.0648499,2.81221005 C35.0484848,2.81171878 35.0326157,2.81171878 35.0162505,2.81171878 C33.7050629,2.81171878 32.5148774,3.45827162 31.8096924,4.55141753 L15.2254487,25.4818459 L4.44385525,31.648663 C0.203323301,34.0732361 -1.26556396,39.4628141 1.1911773,43.6752335 C3.43566895,47.5270377 8.16764838,49.0422116 12.1855164,47.4484294 L12.1855164,47.4484294 Z M25.1758957,54.6474711 C25.8771133,55.8491946 25.4620361,57.3869685 24.2455674,58.0831428 C23.0251313,58.7822649 21.4709473,58.3528673 20.7776641,57.1624436 L14.4300079,46.2688144 L18.8277436,43.7533505 C26.1741638,56.3611309 25.0578689,54.4455461 25.1758957,54.6474711 Z M22.2961426,44.6740496 L21.0266113,42.4956186 L23.2254791,41.2378866 L24.4950103,43.4163176 L22.2961426,44.6740496 Z M47.2528457,15.0028753 L49.0073777,18.0135712 L47.4427795,20.36101 L44.4187164,15.1713918 L47.2528457,15.0028753 Z M33.9331817,5.930501 C34.2738723,5.37827806 34.814415,5.32128708 35.0336075,5.3271827 C35.2503204,5.32963918 35.7903672,5.39645619 36.1161804,5.95555728 L50.8824158,31.2944346 C51.3634492,32.1193299 50.7787705,33.1564675 49.8142242,33.18005 C49.6411514,33.1839804 49.5613098,33.2149324 49.1179658,33.2969797 L33.4982681,6.49402378 C33.826065,6.07641753 33.8682175,6.03613086 33.9331817,5.930501 L33.9331817,5.930501 Z M31.8087006,8.62627261 L46.4841843,33.8089159 L24.335823,38.1127175 L17.6013565,26.5568139 L31.8087006,8.62627261 Z M3.39004517,42.4175016 C2.8326416,41.4619201 2.53807074,40.3771263 2.53807074,39.2795587 C2.53807074,37.0362758 3.7550354,34.9472616 5.7133865,33.8270941 L15.6082916,28.1673003 L21.9559478,39.0594556 L12.0610428,44.7197407 C9.02954102,46.4530525 5.1401138,45.4203366 3.39004517,42.4175016 Z" id="Shape"></path>
                        <path d="M13.4550476,39.5650049 C13.1044388,38.9636518 12.3278427,38.7573051 11.7208481,39.1046552 L9.52198025,40.3623872 C8.91597751,40.7092461 8.13789361,40.5024082 7.78778076,39.9020377 C7.4371719,39.3006846 6.6605759,39.0943379 6.05358127,39.4416881 C5.44658664,39.7890384 5.23830417,40.5584165 5.58891303,41.1597696 C6.63379666,42.9530203 8.96457669,43.5853253 10.7915115,42.5408183 L12.9903794,41.2830863 C13.597374,40.9357361 13.8056565,40.1668492 13.4550476,39.5650049 L13.4550476,39.5650049 Z" id="Path"></path>
                        <path d="M63.11306,5.50208605 L56.0388946,9.40203766 C55.426445,9.74005313 55.2057647,10.5059923 55.5469512,11.1127497 C55.887146,11.7190158 56.6597748,11.9386276 57.2737122,11.6001208 L64.3473816,7.70016911 C64.9603271,7.36215364 65.1805115,6.5962145 64.839325,5.98945718 C64.4986343,5.38220847 63.7255097,5.16407059 63.11306,5.50208605 L63.11306,5.50208605 Z" id="Path"></path>
                        <path d="M62.3711777,18.5284552 L57.4661255,17.2265062 C56.7887115,17.0466897 56.0924531,17.444644 55.9109497,18.1157619 C55.7294463,18.7868799 56.1316299,19.4761758 56.8090439,19.6559923 L61.714592,20.9579413 C62.3959732,21.1392317 63.0887603,20.7348905 63.2692719,20.0686856 C63.4507751,19.3975676 63.0485916,18.7077803 62.3711777,18.5284552 Z" id="Path"></path>
                        <path d="M50.0448227,0.932490272 L48.7291718,5.79244529 C48.5476685,6.46356314 48.949356,7.15285925 49.62677,7.33316694 C50.303688,7.51249198 50.9999466,7.11552033 51.1819458,6.44391108 L52.4971008,1.58395619 C52.6786041,0.91283821 52.2769165,0.223050965 51.5995025,0.0432345361 C50.9225845,-0.136581893 50.226326,0.261372423 50.0448227,0.932490272 L50.0448227,0.932490272 Z" id="Path"></path>
                    </g>
                </g>
            </g>
        </g>
    </g>
</svg>