<?xml version="1.0" encoding="UTF-8"?>
<svg width="42px" height="62px" viewBox="0 0 42 62" version="1.1" xmlns="http://www.w3.org/2000/svg" xmlns:xlink="http://www.w3.org/1999/xlink">
    <!-- Generator: Sketch 53.2 (72643) - https://sketchapp.com -->
    <title>smartphone</title>
    <desc>Created with Sketch.</desc>
    <g id="Page-1" stroke="none" stroke-width="1" fill="none" fill-rule="evenodd">
        <g id="CONNEX-SOLUTIONS-1" transform="translate(-1094.000000, -2731.000000)" fill="#FFFFFF" fill-rule="nonzero">
            <g id="Group-14" transform="translate(240.000000, 2651.000000)">
                <g id="Group-11">
                    <g id="smartphone" transform="translate(855.000000, 81.000000)">
                        <path d="M35.906208,0 L3.92857696,0 C1.77146005,0 0.0167279145,1.70334038 0.0167279145,3.79712474 L0.0167279145,56.1790275 C0.0167279145,58.272685 1.77159074,59.9761522 3.92870764,59.9761522 L35.906208,59.9761522 C38.0633249,59.9761522 39.8181877,58.2728118 39.8181877,56.1790275 L39.8181877,3.79712474 C39.8180571,1.70334038 38.0633249,0 35.906208,0 Z M1.97703044,9.54367865 L37.8578852,9.54367865 L37.8578852,49.2079915 L1.97703044,49.2079915 L1.97703044,9.54367865 Z M3.92857696,1.90274841 L35.906208,1.90274841 C36.9822834,1.90274841 37.8578852,2.75251586 37.8578852,3.79712474 L37.8578852,8.2751797 L1.97703044,8.2751797 L1.97703044,3.79712474 C1.97703044,2.75251586 2.85250155,1.90274841 3.92857696,1.90274841 Z M35.906208,58.073277 L3.92857696,58.073277 C2.85250155,58.073277 1.97689976,57.2235095 1.97689976,56.1789006 L1.97689976,50.4763636 L37.8577545,50.4763636 L37.8577545,56.1789006 C37.8577545,57.2235095 36.9822834,58.073277 35.906208,58.073277 Z" id="Shape" stroke="#FFFFFF" stroke-width="0.540000007"></path>
                        <path d="M19.9174578,51.3173784 C18.1473046,51.3173784 16.7072664,52.7152643 16.7072664,54.4334461 C16.7072664,56.1516279 18.1474353,57.5493869 19.9174578,57.5493869 C21.6874803,57.5493869 23.1276492,56.1515011 23.1276492,54.4334461 C23.1276492,52.7153911 21.687611,51.3173784 19.9174578,51.3173784 L19.9174578,51.3173784 Z M19.9174578,56.2808879 C18.8679119,56.2808879 18.0141348,55.4520507 18.0141348,54.4334461 C18.0141348,53.4147146 18.8679119,52.5858774 19.9174578,52.5858774 C20.9670038,52.5858774 21.8207809,53.4147146 21.8207809,54.4334461 C21.8207809,55.4520507 20.9670038,56.2808879 19.9174578,56.2808879 Z" id="Shape"></path>
                        <path d="M15.4741054,6.04376321 L24.3608102,6.04376321 C24.7217673,6.04376321 25.0142444,5.7597463 25.0142444,5.40951374 C25.0142444,5.05928118 24.7217673,4.77526427 24.3608102,4.77526427 L15.4741054,4.77526427 C15.1131484,4.77526427 14.8206712,5.05928118 14.8206712,5.40951374 C14.8206712,5.7597463 15.1131484,6.04376321 15.4741054,6.04376321 Z" id="Path"></path>
                        <path d="M13.1221344,6.04376321 C13.2933342,6.04376321 13.4619202,5.97653277 13.583459,5.85856237 C13.7049977,5.73932347 13.7755686,5.5769556 13.7755686,5.40951374 C13.7755686,5.24207188 13.7049977,5.07970402 13.583459,4.96046512 C13.4617895,4.84249471 13.2932035,4.77526427 13.1221344,4.77526427 C12.9496278,4.77526427 12.782218,4.84249471 12.6595031,4.96046512 C12.5379643,5.07843552 12.4687003,5.24207188 12.4687003,5.40951374 C12.4687003,5.5769556 12.5379643,5.73932347 12.6595031,5.85856237 C12.7810418,5.97653277 12.9496278,6.04376321 13.1221344,6.04376321 Z" id="Path"></path>
                    </g>
                </g>
            </g>
        </g>
    </g>
</svg>