<?xml version="1.0" encoding="utf-8"?>
<!-- Generator: Adobe Illustrator 23.0.2, SVG Export Plug-In . SVG Version: 6.00 Build 0)  -->
<svg version="1.1" id="Layer_1" xmlns="http://www.w3.org/2000/svg" xmlns:xlink="http://www.w3.org/1999/xlink" x="0px" y="0px"
	 viewBox="0 0 68 62" style="enable-background:new 0 0 68 62;" xml:space="preserve">
<style type="text/css">
	.st0{fill:#792C8B;}
	.st1{fill-rule:evenodd;clip-rule:evenodd;fill:#792C8B;}
</style>
<title>Orion_message-app</title>
<desc>Created with Sketch.</desc>
<g id="DESIGN">
	<g id="Artboard" transform="translate(-1225.000000, -853.000000)">
		<g id="Orion_message-app" transform="translate(1227.000000, 855.000000)">
			<g id="Path">
				<path class="st0" d="M18.8,59.7c-0.2,0-0.4,0-0.6-0.1c-0.6-0.3-1-0.9-1-1.5V46.6H4.9c-1.7,0-3.4-0.7-4.6-1.9
					C-1,43.4-1.6,41.8-1.6,40V4.9c0-3.6,2.9-6.5,6.5-6.5h54.2c3.6,0,6.5,2.9,6.5,6.5V40c0,1.7-0.7,3.4-1.9,4.6
					c-1.2,1.2-2.9,1.9-4.6,1.9H32.7L20,59.2C19.7,59.5,19.3,59.7,18.8,59.7z M4.9,1.6c-1.8,0-3.2,1.4-3.2,3.2V40
					c0,0.9,0.3,1.7,0.9,2.3c0.6,0.6,1.4,0.9,2.3,0.9h13.9c0.9,0,1.6,0.7,1.6,1.7V54l10.4-10.3c0.3-0.3,0.7-0.5,1.2-0.5h27.1
					c0.9,0,1.7-0.3,2.3-0.9c0.6-0.6,0.9-1.4,0.9-2.3V4.9c0-1.8-1.5-3.2-3.2-3.2H4.9z"/>
			</g>
			<g id="Oval">
				<ellipse class="st1" cx="32" cy="22.5" rx="1.9" ry="1.9"/>
				<path class="st0" d="M32,25.4c-1.6,0-3-1.3-3-3s1.3-3,3-3s3,1.3,3,3S33.6,25.4,32,25.4z M32,21.7c-0.4,0-0.8,0.3-0.8,0.8
					s0.4,0.8,0.8,0.8c0.4,0,0.8-0.3,0.8-0.8S32.4,21.7,32,21.7z"/>
			</g>
			<g>
				<ellipse class="st1" cx="16.9" cy="22.5" rx="1.9" ry="1.9"/>
				<path class="st0" d="M16.9,25.4c-1.6,0-3-1.3-3-3s1.3-3,3-3s3,1.3,3,3S18.6,25.4,16.9,25.4z M16.9,21.7c-0.4,0-0.8,0.3-0.8,0.8
					s0.4,0.8,0.8,0.8c0.4,0,0.8-0.3,0.8-0.8S17.4,21.7,16.9,21.7z"/>
			</g>
			<g>
				<ellipse class="st1" cx="47.1" cy="22.5" rx="1.9" ry="1.9"/>
				<path class="st0" d="M47.1,25.4c-1.6,0-3-1.3-3-3s1.3-3,3-3s3,1.3,3,3S48.7,25.4,47.1,25.4z M47.1,21.7c-0.4,0-0.8,0.3-0.8,0.8
					s0.4,0.8,0.8,0.8c0.4,0,0.8-0.3,0.8-0.8S47.5,21.7,47.1,21.7z"/>
			</g>
		</g>
	</g>
</g>
</svg>
