<?xml version="1.0" encoding="UTF-8"?>
<svg width="31px" height="28px" viewBox="0 0 31 28" version="1.1" xmlns="http://www.w3.org/2000/svg" xmlns:xlink="http://www.w3.org/1999/xlink">
    <!-- Generator: Sketch 53.2 (72643) - https://sketchapp.com -->
    <title>writing and content</title>
    <desc>Created with Sketch.</desc>
    <g id="Page-1" stroke="none" stroke-width="1" fill="none" fill-rule="evenodd">
        <g id="CONNEX-SOLUTIONS-2" transform="translate(-996.000000, -1834.000000)" fill="#FFFFFF" fill-rule="nonzero" stroke="#FFFFFF" stroke-width="0.3">
            <g id="Group-16" transform="translate(973.000000, 1367.000000)">
                <g id="Group-5" transform="translate(0.000000, 450.000000)">
                    <g id="writing-and-content" transform="translate(24.000000, 18.000000)">
                        <ellipse id="Oval" cx="3.02081445" cy="2.96881277" rx="1" ry="1"></ellipse>
                        <ellipse id="Oval" cx="5.4375" cy="2.96881277" rx="1" ry="1"></ellipse>
                        <ellipse id="Oval" cx="7.85418555" cy="2.96881277" rx="1" ry="1"></ellipse>
                        <path d="M6.64581445,11.8198766 L19.9375,11.8198766 C20.2714531,11.8198766 20.5416855,11.5559489 20.5416855,11.2297872 C20.5416855,10.9036255 20.2714531,10.6396979 19.9375,10.6396979 L6.64581445,10.6396979 C6.31186133,10.6396979 6.04162891,10.9036255 6.04162891,11.2297872 C6.04162891,11.5559489 6.31191797,11.8198766 6.64581445,11.8198766 Z" id="Path"></path>
                        <path d="M13.8958145,17.7205489 L6.64581445,17.7205489 C6.31186133,17.7205489 6.04162891,17.9844766 6.04162891,18.3106383 C6.04162891,18.6368 6.31186133,18.9007277 6.64581445,18.9007277 L13.8958145,18.9007277 C14.2297676,18.9007277 14.5,18.6368 14.5,18.3106383 C14.5,17.9844766 14.2297676,17.7205489 13.8958145,17.7205489 Z" id="Path"></path>
                        <path d="M26.6871934,7.09927234 C26.6521895,7.09927234 26.6182617,7.10784681 26.5833711,7.10945106 L26.5833711,2.3787234 C26.5833711,1.07700851 25.4989297,0.0184212766 24.1666855,0.0184212766 L2.41668555,0.0184212766 C1.08444141,0.0184212766 0,1.07700851 0,2.3787234 L0,23.6212766 C0,24.9229915 1.08444141,25.9815787 2.41668555,25.9815787 L24.1666855,25.9815787 C25.4989297,25.9815787 26.5833711,24.9230468 26.5833711,23.6212766 L26.5833711,12.6539787 L28.3226914,10.9555149 C28.3226914,10.9555149 28.3226914,10.9555149 28.3226914,10.9549617 C28.7533867,10.5343149 29,9.95230213 29,9.35817447 C29,8.11233191 27.9627969,7.09927234 26.6871934,7.09927234 Z M1.20831445,2.3787234 C1.20831445,1.72817021 1.74996875,1.1986 2.41662891,1.1986 L24.1666289,1.1986 C24.8334023,1.1986 25.375,1.72817021 25.375,2.3787234 L25.375,4.73902553 L1.20831445,4.73902553 L1.20831445,2.3787234 Z M25.375,23.6212766 C25.375,24.2718298 24.8333457,24.8014 24.1666855,24.8014 L2.41668555,24.8014 C1.74996875,24.8014 1.20837109,24.2718298 1.20837109,23.6212766 L1.20837109,5.91914894 L25.375,5.91914894 L25.375,7.50238298 C25.2603027,7.57938723 25.1505898,7.66408085 25.0516953,7.76083404 L18.4779844,14.1801787 L6.64581445,14.1801787 C6.31186133,14.1801787 6.04162891,14.4441064 6.04162891,14.7702681 C6.04162891,15.0964298 6.31186133,15.3603574 6.64581445,15.3603574 L17.5086367,15.3603574 L16.9284668,18.1949106 C16.8883652,18.3885277 16.9508965,18.5885064 17.0936875,18.7279106 C17.2081582,18.8397106 17.3627305,18.900783 17.5208711,18.900783 C17.5598398,18.900783 17.5999414,18.8967447 17.6388535,18.8892766 L20.6585352,18.2991872 C20.7765176,18.2761191 20.8839082,18.2202468 20.9676797,18.1378213 L25.375,13.8339915 L25.375,23.6212766 Z M20.2431328,17.1771489 L18.2914102,17.5586298 L18.6820039,15.6501191 L24.1664023,10.2936766 L25.7289473,11.819766 L20.2431328,17.1771489 Z M27.4683242,10.1210809 L26.5833145,10.9854426 L25.0206562,9.45924255 L25.9059492,8.59460426 C26.1112715,8.39462553 26.3956641,8.27939574 26.6871367,8.27939574 C27.2960234,8.27939574 27.7916289,8.7634383 27.7916289,9.35811915 C27.7916855,9.64168511 27.6736465,9.91999574 27.4683242,10.1210809 Z" id="Shape"></path>
                    </g>
                </g>
            </g>
        </g>
    </g>
</svg>