<?xml version="1.0" encoding="UTF-8"?>
<svg width="34px" height="34px" viewBox="0 0 34 34" version="1.1" xmlns="http://www.w3.org/2000/svg" xmlns:xlink="http://www.w3.org/1999/xlink">
    <!-- Generator: Sketch 53.2 (72643) - https://sketchapp.com -->
    <title>subject</title>
    <desc>Created with Sketch.</desc>
    <g id="Page-1" stroke="none" stroke-width="1" fill="none" fill-rule="evenodd">
        <g id="CONNEX-SOLUTIONS-1" transform="translate(-1095.000000, -1493.000000)" fill="#C2D1E4" fill-rule="nonzero">
            <g id="Group-16" transform="translate(960.000000, 1369.000000)">
                <g id="Group-5" transform="translate(112.000000, 110.000000)">
                    <g id="subject" transform="translate(24.000000, 15.000000)">
                        <path d="M27.3125,13.3012695 L22.6621094,13.3012695 C22.1442871,13.3012695 21.7246094,13.7211914 21.7246094,14.2387695 C21.7246094,14.361084 21.7487793,14.4775391 21.7912598,14.5847168 C21.9289551,14.9311524 22.2666016,15.1762695 22.6621094,15.1762695 L27.3125,15.1762695 C28.8632813,15.1762695 30.125,16.4379882 30.125,17.9887695 L30.125,27.3125 C30.125,28.8632812 28.8632813,30.125 27.3125,30.125 L16.7141113,30.125 C15.1633301,30.125 13.9016113,28.8632812 13.9016113,27.3125 L13.9016113,17.029541 C13.9016113,16.454834 14.3691406,15.9873047 14.9438476,15.9873047 L17.0561524,15.9873047 C18.6647949,15.9873047 19.9733887,14.6787109 19.9733887,13.0700684 L19.9733887,4.6875 C19.9733887,2.10278319 17.8706055,0 15.2858887,0 L4.6875,0 C2.10278319,0 1.13686838e-13,2.10278319 1.13686838e-13,4.6875 L1.13686838e-13,14.6608887 C1.13686838e-13,17.2456055 2.10278319,19.3483887 4.6875,19.3483887 L12.0266113,19.3483887 L12.0266113,27.3125 C12.0266113,29.8972168 14.1293945,32 16.7141113,32 L27.3125,32 C29.8972168,32 32,29.8972168 32,27.3125 L32,17.9887695 C32,15.4042969 29.8972168,13.3012695 27.3125,13.3012695 L27.3125,13.3012695 Z M12.0266113,17.4733887 L4.6875,17.4733887 C3.13671875,17.4733887 1.875,16.2116699 1.875,14.6608887 L1.875,4.6875 C1.875,3.13671875 3.13671875,1.875 4.6875,1.875 L15.2858887,1.875 C16.8366699,1.875 18.0983887,3.13671875 18.0983887,4.6875 L18.0983887,13.0700684 C18.0983887,13.6447754 17.6308594,14.1123047 17.0561524,14.1123047 L14.9438476,14.1123047 C13.3352051,14.1123047 12.0266113,15.4208984 12.0266113,17.029541 L12.0266113,17.4733887 Z" id="Shape" stroke="#FFFFFF" stroke-width="0.574907958"></path>
                        <path d="M17.7304688,27.4865722 C20.7441406,27.4865722 23.1958008,25.0349121 23.1958008,22.0214844 L23.1958008,21.7385254 L24.050293,21.7385254 L24.050293,26.5490722 C24.050293,27.0668945 24.4699707,27.4865722 24.987793,27.4865722 C25.5056152,27.4865722 25.925293,27.0668945 25.925293,26.5490722 L25.925293,21.7385254 L26.2961426,21.7385254 C26.8139649,21.7385254 27.2336426,21.3188476 27.2336426,20.8010254 C27.2336426,20.2834472 26.8139649,19.8635254 26.2961426,19.8635254 L25.925293,19.8635254 L25.925293,17.4775391 C25.925293,16.9597168 25.5056152,16.5400391 24.987793,16.5400391 C24.4699707,16.5400391 24.050293,16.9597168 24.050293,17.4775391 L24.050293,19.8635254 L19.560791,19.8635254 C19.0429688,19.8635254 18.623291,20.2834473 18.623291,20.8010254 C18.623291,21.3188476 19.0429688,21.7385254 19.560791,21.7385254 L21.3208008,21.7385254 L21.3208008,22.0214844 C21.3208008,24.0009766 19.7102051,25.6115723 17.7304688,25.6115723 C17.2126465,25.6115723 16.7929688,26.0314941 16.7929688,26.5490723 C16.7929688,27.0668945 17.2126465,27.4865723 17.7304688,27.4865723 L17.7304688,27.4865722 Z" id="Path"></path>
                        <path d="M13.701416,11.7902832 L10.8496094,5.07250975 C10.7026368,4.72631837 10.362793,4.50146487 9.98657225,4.50146487 C9.61059569,4.50146487 9.27075194,4.72631837 9.12377931,5.07250975 L6.27197263,11.7902832 C6.06958006,12.2668457 6.29199219,12.8171387 6.76855469,13.0195312 C6.88793944,13.0703125 7.012207,13.0942382 7.13427738,13.0942382 C7.49926756,13.0942382 7.84619138,12.8798828 7.99780275,12.5229492 L8.5512695,11.2189941 L11.4221191,11.2189941 L11.9755859,12.5229492 C12.1779785,12.9995117 12.7282715,13.2219238 13.204834,13.0195312 C13.6813965,12.8171387 13.9038086,12.2668457 13.701416,11.7902832 Z M9.34741212,9.34399412 L9.98657225,7.83789062 L10.6259766,9.34399412 L9.34741212,9.34399412 Z" id="Shape"></path>
                    </g>
                </g>
            </g>
        </g>
    </g>
</svg>