<?xml version="1.0" encoding="UTF-8"?>
<svg width="25px" height="29px" viewBox="0 0 25 29" version="1.1" xmlns="http://www.w3.org/2000/svg" xmlns:xlink="http://www.w3.org/1999/xlink">
    <!-- Generator: Sketch 53.2 (72643) - https://sketchapp.com -->
    <title>list</title>
    <desc>Created with Sketch.</desc>
    <g id="Page-1" stroke="none" stroke-width="1" fill="none" fill-rule="evenodd">
        <g id="CONNEX-SOLUTIONS-2" transform="translate(-1078.000000, -1723.000000)" fill="#C2D1E4" fill-rule="nonzero" stroke="#FFFFFF" stroke-width="0.3">
            <g id="Group-16" transform="translate(973.000000, 1367.000000)">
                <g id="Group-5" transform="translate(79.000000, 340.000000)">
                    <g id="list" transform="translate(27.000000, 17.000000)">
                        <path d="M21.9878897,2.87632653 L16.6598321,2.87632653 L16.6598321,0.991836735 C16.6598321,0.446326531 16.2130695,0 15.6670264,0 L7.37158273,0 C6.82553957,0 6.37877698,0.446326531 6.37877698,0.991836735 L6.37877698,6.21 C6.37877698,6.7555102 6.82553957,7.20183673 7.37158273,7.20183673 L13.5049161,7.20183673 C14.0509592,7.20183673 14.4977218,6.7555102 14.4977218,6.21 C14.4977218,5.6644898 14.0509592,5.21816327 13.5049161,5.21816327 L8.36438849,5.21816327 L8.36438849,1.98367347 L14.6797362,1.98367347 L14.6797362,3.86816327 C14.6797362,4.41367347 15.1264988,4.86 15.672542,4.86 L21.0005995,4.86 L21.0005995,24.9942857 L2.03800959,24.9942857 L2.03800959,4.86 L3.55479616,4.86 C4.10083933,4.86 4.54760192,4.41367347 4.54760192,3.86816327 C4.54760192,3.32265306 4.10083933,2.87632653 3.55479616,2.87632653 L1.04520384,2.87632653 C0.499160671,2.87632653 0.0523980815,3.32265306 0.0523980815,3.86816327 L0.0523980815,25.9861224 C0.0523980815,26.5316327 0.499160671,26.9779592 1.04520384,26.9779592 L21.9878897,26.9779592 C22.5339329,26.9779592 22.9806954,26.5316327 22.9806954,25.9861224 L22.9806954,3.86816327 C22.9806954,3.32265306 22.5339329,2.87632653 21.9878897,2.87632653 Z" id="Path"></path>
                        <path d="M16.0917266,11.9571429 C15.7056355,11.5659184 15.0768585,11.5659184 14.6852518,11.9516327 L10.0576739,16.5361224 L8.36438849,14.8334694 C7.97829736,14.4422449 7.34952038,14.4422449 6.95791367,14.8279592 C6.56630695,15.2136735 6.56630695,15.8418367 6.95239808,16.2330612 L9.34616307,18.6410204 C9.53920863,18.8338776 9.79292566,18.9330612 10.0521583,18.9330612 C10.3058753,18.9330612 10.5595923,18.8393878 10.7526379,18.6465306 L16.086211,13.3622449 C16.4778177,12.9765306 16.4778177,12.3483673 16.0917266,11.9571429 Z" id="Path"></path>
                    </g>
                </g>
            </g>
        </g>
    </g>
</svg>