<?xml version="1.0" encoding="UTF-8"?>
<svg width="37px" height="33px" viewBox="0 0 37 33" version="1.1" xmlns="http://www.w3.org/2000/svg" xmlns:xlink="http://www.w3.org/1999/xlink">
    <!-- Generator: Sketch 53.2 (72643) - https://sketchapp.com -->
    <title>technical support</title>
    <desc>Created with Sketch.</desc>
    <g id="Page-1" stroke="none" stroke-width="1" fill="none" fill-rule="evenodd">
        <g id="CONNEX-SOLUTIONS-1" transform="translate(-995.000000, -1613.000000)" fill-rule="nonzero" stroke="#FFFFFF">
            <g id="technical-support" transform="translate(996.000000, 1614.000000)">
                <path d="M17.9453446,5.23647438 L16.9877052,5.23647438 C16.4022054,5.23647438 15.9258666,5.71264604 15.9258666,6.29794038 L15.9258666,6.78899241 C15.4495278,6.91795557 14.9930364,7.10644018 14.5663162,7.35444626 L14.2189859,7.00723775 C14.0205114,6.80883289 13.7525708,6.6947501 13.4697446,6.6947501 C13.1869185,6.6947501 12.9189779,6.80387277 12.7205034,7.00723775 L12.0456901,7.68181428 C11.8472156,7.88021914 11.7330927,8.1480657 11.7330927,8.43079262 C11.7330927,8.71351955 11.8422537,8.98136611 12.0456901,9.17977097 L12.3930204,9.52697947 C12.1449273,9.95354992 11.9563765,10.4098811 11.8273681,10.8860528 L11.3361437,10.8860528 C10.7506439,10.8860528 10.2743051,11.3622244 10.2743051,11.9475188 L10.2743051,12.9048222 C10.2743051,13.4901165 10.7506439,13.9662882 11.3361437,13.9662882 L11.8273681,13.9662882 C11.9563765,14.4424599 12.1449273,14.8987911 12.3930204,15.3253615 L12.0456901,15.67257 C11.8472156,15.8709749 11.7330927,16.1388214 11.7330927,16.4215484 C11.7330927,16.7042753 11.8422537,16.9721218 12.0456901,17.1705267 L12.7205034,17.8451032 C12.9189779,18.0435081 13.1869185,18.1575909 13.4697446,18.1575909 C13.7525708,18.1575909 14.0205114,18.0484682 14.2189859,17.8451032 L14.5663162,17.4978947 C14.9930364,17.7459008 15.4495278,17.9343854 15.9258666,18.0633486 L15.9258666,18.5544006 C15.9258666,19.1396949 16.4022054,19.6158666 16.9877052,19.6158666 L17.9453446,19.6158666 C18.5308444,19.6158666 19.0071832,19.1396949 19.0071832,18.5544006 L19.0071832,18.0633486 C19.483522,17.9343854 19.9400134,17.7459008 20.3667336,17.4978947 L20.7140639,17.8451032 C20.9125384,18.0435081 21.180479,18.1575909 21.4633052,18.1575909 C21.7461313,18.1575909 22.0140719,18.0484682 22.2125464,17.8451032 L22.8873597,17.1705267 C23.2991943,16.7588366 23.2991943,16.0842601 22.8873597,15.67257 L22.5400294,15.3253615 C22.7881225,14.8987911 22.9766733,14.4424599 23.1056817,13.9662882 L23.5969061,13.9662882 C24.1824059,13.9662882 24.6587447,13.4901165 24.6587447,12.9048222 L24.6587447,11.9475188 C24.6587447,11.3622244 24.1824059,10.8860528 23.5969061,10.8860528 L23.1056817,10.8860528 C22.9766733,10.4098811 22.7881225,9.95354992 22.5400294,9.52697947 L22.8873597,9.17977097 C23.2991943,8.76808088 23.2991943,8.09350436 22.8873597,7.68181428 L22.2125464,7.00723775 C22.0140719,6.80883289 21.7461313,6.6947501 21.4633052,6.6947501 C21.180479,6.6947501 20.9125384,6.80387277 20.7140639,7.00723775 L20.3667336,7.35444626 C19.9400134,7.10644018 19.483522,6.91795557 19.0071832,6.78899241 L19.0071832,6.29794038 C19.0022214,5.71264604 18.5258826,5.23647438 17.9453446,5.23647438 Z" id="Combined-Shape" stroke-width="0.9"></path>
                <path d="M32.0832443,0.0344444444 L2.91675569,0.0344444444 C1.30657194,0.0363281422 0.00186920508,1.35113714 0,2.97379342 L0,21.7850347 C0.00186920508,23.4074219 1.30657194,24.7222309 2.91675569,24.7241146 L6.99989322,24.7241146 L6.99989322,29.7715712 C7.00016023,30.4209028 7.5227356,30.9469879 8.16680908,30.9469879 C8.47629549,30.9469879 8.77269743,30.8232031 8.99139404,30.6028125 L14.8249054,24.7241146 L32.0832443,24.7241146 C33.6934281,24.7222309 34.9981308,23.4074219 35,21.7850347 L35,2.97379342 C34.9981308,1.35113714 33.6934281,0.0363281422 32.0832443,0.0344444444 Z" id="Shape" stroke-width="1.5"></path>
                <path d="M14.5514307,12.4187303 C14.5514307,14.0258097 15.8613624,15.3352817 17.4690058,15.3352817 C19.0766493,15.3352817 20.386581,14.0258097 20.386581,12.4187303 C20.386581,10.8116509 19.0766493,9.50217887 17.4690058,9.50217887 C15.8613624,9.50217887 14.5514307,10.8116509 14.5514307,12.4187303 Z" id="Shape" stroke-width="0.9"></path>
            </g>
        </g>
    </g>
</svg>