<?xml version="1.0" encoding="UTF-8"?>
<svg width="34px" height="31px" viewBox="0 0 34 31" version="1.1" xmlns="http://www.w3.org/2000/svg" xmlns:xlink="http://www.w3.org/1999/xlink">
    <!-- Generator: Sketch 53.2 (72643) - https://sketchapp.com -->
    <title>sales</title>
    <desc>Created with Sketch.</desc>
    <g id="Page-1" stroke="none" stroke-width="1" fill="none" fill-rule="evenodd">
        <g id="CONNEX-SOLUTIONS-1" transform="translate(-1096.000000, -1734.000000)" fill-rule="nonzero">
            <g id="selective" transform="translate(1097.000000, 1735.000000)">
                <g id="sales">
                    <path d="M31.7896082,0.86363039 C31.502433,0.330899426 30.9446598,1.44108312e-14 30.3337732,1.44108312e-14 C28.3641237,1.60120346e-15 26.8023368,1.60120346e-15 25.6484124,1.44108312e-14 C23.9175258,3.44258744e-14 18.6391753,3.44258744e-14 16.3941443,1.44108312e-14 C14.1491134,-4.80361038e-15 12.4905567,-4.80361038e-15 11.6473402,1.44108312e-14 C10.8041237,3.44258744e-14 6.68041237,3.44258744e-14 5.56898969,1.44108312e-14 C4.82804124,1.06746897e-15 3.53797938,1.06746897e-15 1.69880412,1.44108312e-14 C1.08791753,1.44108312e-14 0.53014433,0.330899426 0.242969072,0.86363039 C-0.0441237113,1.39627987 -0.0108041237,2.03827854 0.330061856,2.53906846 L11.3977732,18.7993408 L11.3977732,28.0298947 C11.3977732,28.3046529 11.5378969,28.5609146 11.7705567,28.7114123 C11.9068866,28.7996576 12.0643299,28.8447173 12.2225979,28.8447173 C12.334268,28.8447173 12.4463505,28.8223096 12.5518351,28.776924 L20.1394639,25.5125006 C20.4403299,25.3830253 20.6348866,25.0896891 20.6348866,24.7654713 L20.6348866,18.7992593 L31.7025155,2.53898698 C32.0433814,2.03827854 32.0767835,1.39627987 31.7896082,0.86363039 Z" id="Shape" stroke="#FFFFFF" stroke-width="1.5"></path>
                    <path d="M14.880703,10.7333074 L16.3430688,10.7333074 C16.7568114,10.7333074 17.0920855,11.0680493 17.0920855,11.4811351 C17.0920855,11.8942208 16.7568114,12.2289628 16.3430688,12.2289628 L13.7179438,12.2289628 C13.2471333,12.2289628 12.8619248,12.6135599 12.8619248,13.083623 C12.8619248,13.5536862 13.2471333,13.9382833 13.7179438,13.9382833 L14.7594336,13.9382833 L14.7594336,14.6291336 C14.7594336,15.0991968 15.1446422,15.4837939 15.6154527,15.4837939 C16.0862631,15.4837939 16.4714717,15.0991968 16.4714717,14.6291336 L16.4714717,13.9382833 C17.7697672,13.8741837 18.8041236,12.7987363 18.8041236,11.4882572 C18.8041236,10.1350452 17.6984323,9.03110903 16.3430688,9.03110903 L14.880703,9.03110903 C14.4669605,9.03110903 14.1316863,8.69636711 14.1316863,8.28328132 C14.1316863,7.87019554 14.4669605,7.53545361 14.880703,7.53545361 L17.4558936,7.53545361 C17.9267041,7.53545361 18.3119126,7.1508565 18.3119126,6.68079337 C18.3119126,6.21073023 17.9267041,5.82613312 17.4558936,5.82613312 L16.4643382,5.82613312 L16.4643382,5.15664927 C16.4643382,4.68658613 16.0791296,4.30198902 15.6083192,4.30198902 C15.1375087,4.30198902 14.7523001,4.68658613 14.7523001,5.15664927 L14.7523001,5.83325529 C13.4540046,5.89735481 12.4196483,6.97280228 12.4196483,8.28328132 C12.4267818,9.6293712 13.5253395,10.7333074 14.880703,10.7333074 Z" id="Path" fill="#FFFFFF"></path>
                </g>
            </g>
        </g>
    </g>
</svg>