<?xml version="1.0" encoding="UTF-8"?>
<svg width="19px" height="47px" viewBox="0 0 19 47" version="1.1" xmlns="http://www.w3.org/2000/svg" xmlns:xlink="http://www.w3.org/1999/xlink">
    <!-- Generator: sketchtool 53.2 (72643) - https://sketchapp.com -->
    <title>09640E94-EBA4-4BEC-A4D2-79BCE3B383D7</title>
    <desc>Created with sketchtool.</desc>
    <g id="Page-1" stroke="none" stroke-width="1" fill="none" fill-rule="evenodd">
        <g id="CONNEX-SOLUTIONS-V2" transform="translate(-1416.000000, -1376.000000)" fill="#FFFFFF">
            <g id="Group-16" transform="translate(960.000000, 1369.000000)">
                <g id="Group-5" transform="translate(33.000000, 0.000000)">
                    <g id="ribbon_cutout" transform="translate(413.000000, 7.000000)">
                        <path d="M14.8584765,41 C12.0119065,41 10.3985756,41 10.018484,41 L10,23.5 L10,6 C11.900806,6 13.5202982,6 14.8584765,6 C23.6882269,6 29,13.8350169 29,23.5 C29,33.1649831 23.6882269,41 14.8584765,41 Z M10,47 L10,41 L15.1538462,41 C12.0950383,41 10,43.6862915 10,47 Z M10,0 C10,3.3137085 12.0950383,6 15.1538462,6 L10,6 L10,0 Z"></path>
                    </g>
                </g>
            </g>
        </g>
    </g>
</svg>