<?xml version="1.0" encoding="UTF-8"?>
<svg width="279px" height="444px" viewBox="0 0 279 444" version="1.1" xmlns="http://www.w3.org/2000/svg" xmlns:xlink="http://www.w3.org/1999/xlink">
    <!-- Generator: Sketch 53.2 (72643) - https://sketchapp.com -->
    <title>services shape</title>
    <desc>Created with Sketch.</desc>
    <defs>
        <path d="M9.65166603,187.932359 C-9.26124887,71.9461715 2.6703617,9.54821785 45.4464977,0.738498559 L239.964672,167.507795 L315.424061,332.476177 C320.873739,345.112395 322.9717,358.940735 321.515182,372.624724 C316.838802,416.559329 277.431813,448.384407 233.497208,443.708028 C151.736584,435.005462 107.012746,429.548675 99.3256961,427.337667 C82.5040456,422.499294 66.2782201,407.83906 61.3795866,396.830484 C-1.26225384,270.021345 24.6703308,280.036495 9.65166603,187.932359 Z" id="path-1"></path>
        <path d="M11.7632624,202.87609 C-2.57486778,115.065548 -5.68045601,62.6863512 2.44649773,45.7384986 C49.1131644,77.0718319 83.1380512,104.177002 104.521158,127.054008 C118.262938,141.755838 153.145033,189.925962 209.167442,271.564382 C221.787485,289.954886 226.157085,312.77891 221.222101,334.530278 C211.446291,377.617998 168.591933,404.622637 125.504213,394.846827 C98.3878881,388.694632 83.1129957,385.124146 79.6795355,384.135369 C66.9479684,380.468897 54.6652056,369.366987 50.9555807,361.031973 C3.52132813,265.018592 23.1491103,272.606065 11.7632624,202.87609 Z" id="path-3"></path>
    </defs>
    <g id="Page-1" stroke="none" stroke-width="1" fill="none" fill-rule="evenodd">
        <g id="CONNEX_SOLUTIONS_HERO_2-Copy" transform="translate(0.000000, -705.000000)">
            <g id="SERVICES" transform="translate(-45.000000, 704.000000)">
                <g id="HEADLINE">
                    <g id="shape" transform="translate(0.623799, 0.059851)">
                        <g id="Mask-Copy" transform="translate(0.929703, 0.201651)">
                            <g id="services-shape">
                                <g>
                                    <mask id="mask-2" fill="white">
                                        <use xlink:href="#path-1"></use>
                                    </mask>
                                    <use id="Mask" fill="#08E1F2" xlink:href="#path-1"></use>
                                    <mask id="mask-4" fill="white">
                                        <use xlink:href="#path-3"></use>
                                    </mask>
                                    <use id="Mask-Copy" fill="#07D4E9" opacity="0.502162388" xlink:href="#path-3"></use>
                                </g>
                            </g>
                        </g>
                    </g>
                </g>
            </g>
        </g>
    </g>
</svg>