<?xml version="1.0" encoding="UTF-8"?>
<svg width="279px" height="498px" viewBox="0 0 279 498" version="1.1" xmlns="http://www.w3.org/2000/svg" xmlns:xlink="http://www.w3.org/1999/xlink">
    <!-- Generator: Sketch 53.2 (72643) - https://sketchapp.com -->
    <title>shape</title>
    <desc>Created with Sketch.</desc>
    <defs>
        <path d="M242.56395,285.802256 C329.837803,252.756734 308.198136,235.306032 449.338992,226.150887 C461.322016,224.88894 482.131064,231.6108 494.732042,243.759591 C499.805289,248.650783 528.887728,279.945658 581.979362,337.644218 L581.979362,337.644218 C611.896335,370.157181 609.79187,420.766643 577.278908,450.683617 C560.966059,465.693971 539.156181,473.262581 517.051833,471.58402 C390.623108,461.98327 290.637206,452.144659 217.094128,442.068187 C192.279315,438.668196 -21.884336,415.781777 -47.7215297,431.490572 C-106.932671,407.295151 77.7087857,348.2233 242.56395,285.802256 Z" id="path-1"></path>
        <path d="M189.861878,195.344923 C259.850739,168.861605 242.496908,154.876276 355.684162,147.539167 C365.293892,146.527819 381.981611,151.914847 392.086908,161.651121 C395.169978,164.621606 409.309811,179.74359 434.506404,207.017074 L434.506405,207.017074 C464.48824,239.470234 462.484835,290.083799 430.031674,320.065634 C413.60355,335.242747 391.57219,342.849807 369.279568,341.042319 C286.901177,334.363071 220.286811,327.542114 169.436472,320.579448 C149.536348,317.85463 -22.2111961,299.513014 -42.9312135,312.102344 C-90.4153132,292.711668 57.657045,245.370349 189.861878,195.344923 Z" id="path-3"></path>
    </defs>
    <g id="DESIGN" stroke="none" stroke-width="1" fill="none" fill-rule="evenodd">
        <g id="CONNEX-SOLUTIONS-1" transform="translate(0.000000, -665.000000)">
            <g id="SERVICES" transform="translate(-419.000000, 537.000000)">
                <g id="HEADLINE" transform="translate(181.000000, 0.000000)">
                    <g id="shape" transform="translate(0.623799, 0.059851)">
                        <g id="Mask-Copy" transform="translate(0.929703, 0.201651)">
                            <g transform="translate(0.000000, 0.000000)">
                                <g transform="translate(0.000000, 0.000000)">
                                    <mask id="mask-2" fill="white">
                                        <use xlink:href="#path-1"></use>
                                    </mask>
                                    <use id="Mask" fill="#08E1F2" transform="translate(272.039926, 348.906955) scale(1, -1) rotate(-60.000000) translate(-272.039926, -348.906955) " xlink:href="#path-1"></use>
                                    <mask id="mask-4" fill="white">
                                        <use xlink:href="#path-3"></use>
                                    </mask>
                                    <use fill="#07D4E9" opacity="0.502162388" transform="translate(213.500000, 245.918243) scale(1, -1) rotate(-60.000000) translate(-213.500000, -245.918243) " xlink:href="#path-3"></use>
                                </g>
                            </g>
                        </g>
                    </g>
                </g>
            </g>
        </g>
    </g>
</svg>