<?xml version="1.0" encoding="UTF-8"?>
<svg width="78px" height="78px" viewBox="0 0 78 78" version="1.1" xmlns="http://www.w3.org/2000/svg" xmlns:xlink="http://www.w3.org/1999/xlink">
    <!-- Generator: Sketch 53.2 (72643) - https://sketchapp.com -->
    <title>teamwork</title>
    <desc>Created with Sketch.</desc>
    <g id="Page-1" stroke="none" stroke-width="1" fill="none" fill-rule="evenodd">
        <g id="CONNEX-SOLUTIONS-2" transform="translate(-695.000000, -1560.000000)" fill="#0B7CFE" fill-rule="nonzero">
            <g id="Group-16" transform="translate(695.000000, 1367.000000)">
                <g id="Group-5">
                    <g id="teamwork" transform="translate(0.000000, 193.000000)">
                        <path d="M50.8884492,29.332875 C48.5047266,28.5422109 46.1638125,27.6283008 43.875,26.5948008 L43.875,26.5184766 C47.8386797,24.6335273 50.3671289,20.6392266 50.3750508,16.2500508 L50.3750508,11.3750508 C50.3750508,5.09269922 45.2821992,0 39,0 C32.7178008,0 27.6249492,5.09269922 27.6249492,11.3750508 L27.6249492,16.2500508 C27.6327188,20.6390742 30.161168,24.633375 34.125,26.5184766 L34.125,26.5948008 C31.8361875,27.6284531 29.4951211,28.5423633 27.1115508,29.332875 C21.1933008,31.3055742 21.1250508,35.5696758 21.1250508,35.7500508 L24.375,35.7939258 C24.375,35.7061758 24.5375508,33.6164766 28.1385,32.4172266 C30.9868711,31.4856445 33.7720195,30.370793 36.4764258,29.0795273 C37.0274531,28.8042422 37.3754063,28.2410273 37.3751016,27.6251016 L37.3751016,25.4330273 C37.3754063,24.7445859 36.9418359,24.1306406 36.2928516,23.9006016 C33.0512813,22.7519297 30.8823633,19.6890586 30.8750508,16.2500508 L30.8750508,11.3750508 C30.8750508,6.88776563 34.5127148,3.25010156 39,3.25010156 C43.4872852,3.25010156 47.1249492,6.88776563 47.1249492,11.3750508 L47.1249492,16.2500508 C47.1177891,19.6890586 44.9487187,22.7519297 41.7071484,23.9006016 C41.0581641,24.1304883 40.6245938,24.7444336 40.6248984,25.4330273 L40.6248984,27.6251016 C40.6215469,28.2439219 40.969957,28.8109453 41.5235742,29.0876016 C44.2276758,30.376125 47.0122148,31.4882344 49.8598242,32.4172266 C53.4624492,33.6163242 53.625,35.7061758 53.625,35.7939258 L55.2500508,35.7500508 L56.8751016,35.7500508 C56.8749492,35.5696758 56.8066992,31.3055742 50.8884492,29.332875 Z" id="Path"></path>
                        <path d="M29.7635508,61.8328242 C27.3798281,61.0421602 25.0389141,60.12825 22.7501016,59.09475 L22.7501016,59.0184258 C26.7137812,57.1333242 29.2422305,53.1391758 29.25,48.75 L29.25,43.875 C29.25,37.5928008 24.1573008,32.4999492 17.8749492,32.4999492 C11.59275,32.4999492 6.49989844,37.5926484 6.49989844,43.875 L6.49989844,48.75 C6.50766797,53.1391758 9.03611719,57.1334766 12.9999492,59.0184258 L12.9999492,59.09475 C10.7111367,60.1284023 8.37007031,61.0423125 5.9865,61.8328242 C0.06825,63.8056758 0,68.069625 0,68.25 L0,78 L3.24994922,78 L3.24994922,68.293875 C3.24994922,68.206125 3.4125,66.1164258 7.01344922,64.92525 C9.86182031,63.993668 12.6469687,62.8788164 15.351375,61.5875508 C15.9049922,61.3108945 16.2534023,60.7438711 16.2500508,60.1250508 L16.2500508,57.9329766 C16.2503555,57.2445352 15.8167852,56.6305898 15.1678008,56.4005508 C11.9262305,55.2518789 9.75716016,52.1890078 9.75,48.75 L9.75,43.875 C9.75,39.3877148 13.3876641,35.7500508 17.8749492,35.7500508 C22.3622344,35.7500508 25.9998984,39.3877148 25.9998984,43.875 L25.9998984,48.75 C25.9927383,52.1890078 23.823668,55.2518789 20.5820977,56.4005508 C19.9331133,56.6304375 19.499543,57.2443828 19.4998477,57.9329766 L19.4998477,60.1250508 C19.4964961,60.7438711 19.8449062,61.3108945 20.3985234,61.5875508 C23.103082,62.8760742 25.8882305,63.9883359 28.7364492,64.9171758 C32.3373984,66.1164258 32.4999492,68.206125 32.4999492,68.25 L32.4999492,78 L35.7498987,78 L35.7498984,68.25 C35.7500508,68.069625 35.6818008,63.8056758 29.7635508,61.8328242 Z" id="Path"></path>
                        <path d="M78,78 L78,68.25 C78,68.069625 77.93175,63.8056758 72.0135,61.8328242 C69.6297773,61.0421602 67.2888633,60.12825 65.0000508,59.09475 L65.0000508,59.0184258 C68.9637305,57.1334766 71.4921797,53.1391758 71.5001016,48.75 L71.5001016,43.875 C71.5001016,37.5928008 66.4074023,32.4999492 60.1250508,32.4999492 C53.8426992,32.4999492 48.75,37.5928008 48.75,43.875 L48.75,48.75 C48.7577695,53.1391758 51.2862188,57.1334766 55.2500508,59.0184258 L55.2500508,59.09475 C52.9612383,60.1284023 50.6201719,61.0423125 48.2366016,61.8328242 C42.3183516,63.8055234 42.2501016,68.069625 42.2501016,68.25 L42.2501016,78 L45.5000508,78 L45.5000508,68.293875 C45.5000508,68.206125 45.6626016,66.1164258 49.2635508,64.92525 C52.1119219,63.993668 54.8970703,62.8788164 57.6014766,61.5875508 C58.1550938,61.3108945 58.5035039,60.7438711 58.5001523,60.1250508 L58.5001523,57.9329766 C58.500457,57.2445352 58.0668867,56.6305898 57.4179023,56.4005508 C54.176332,55.2518789 52.0074141,52.1890078 52.0001016,48.75 L52.0001016,43.875 C52.0001016,39.3877148 55.6377656,35.7500508 60.1250508,35.7500508 C64.6123359,35.7500508 68.25,39.3877148 68.25,43.875 L68.25,48.75 C68.2428398,52.1890078 66.0737695,55.2518789 62.8321992,56.4005508 C62.1832148,56.6304375 61.7496445,57.2443828 61.7499492,57.9329766 L61.7499492,60.1250508 C61.7465977,60.7438711 62.0950078,61.3108945 62.648625,61.5875508 C65.3531836,62.8760742 68.138332,63.9883359 70.9865508,64.9171758 C74.5875,66.1164258 74.7500508,68.206125 74.7500508,68.25 L74.7500508,78 L78,78 Z" id="Path"></path>
                        <rect id="Rectangle" x="37.3749492" y="43.875" width="3.24994922" height="3.24994922"></rect>
                        <rect id="Rectangle" x="37.3749492" y="37.3749492" width="3.24994922" height="3.24994922"></rect>
                        <rect id="Rectangle" x="37.3749492" y="50.3750508" width="3.24994922" height="3.24994922"></rect>
                        <rect id="Rectangle" x="50.3750508" y="69.8750508" width="3.24994922" height="8.12494922"></rect>
                        <rect id="Rectangle" x="66.6249492" y="69.8750508" width="3.24994922" height="8.12494922"></rect>
                        <rect id="Rectangle" x="24.375" y="69.8750508" width="3.24994922" height="8.12494922"></rect>
                        <rect id="Rectangle" x="8.12494922" y="69.8750508" width="3.24994922" height="8.12494922"></rect>
                    </g>
                </g>
            </g>
        </g>
    </g>
</svg>