<?xml version="1.0" encoding="UTF-8"?>
<svg width="80px" height="94px" viewBox="0 0 80 94" version="1.1" xmlns="http://www.w3.org/2000/svg" xmlns:xlink="http://www.w3.org/1999/xlink">
    <!-- Generator: Sketch 53.2 (72643) - https://sketchapp.com -->
    <title>security</title>
    <desc>Created with Sketch.</desc>
    <g id="Page-1" stroke="none" stroke-width="1" fill="none" fill-rule="evenodd">
        <g id="CONNEX-SOLUTIONS-2" transform="translate(-713.000000, -1547.000000)" fill="#0B7CFE" fill-rule="nonzero" stroke="#FFFFFF" stroke-width="1.3499999">
            <g id="Group" transform="translate(-419.000000, 1389.000000)">
                <g id="Group-13">
                    <g id="content-(1)" transform="translate(954.000000, 159.000000)">
                        <g id="security" transform="translate(179.000000, 0.000000)">
                            <path d="M77.5371713,23.6080558 C77.489768,21.132614 77.4445193,18.7941023 77.4445193,16.5317581 C77.4445193,14.7593674 75.9978564,13.3224558 74.2124751,13.3224558 C60.3900994,13.3224558 49.8661326,9.3780093 41.0939337,0.908874419 C39.8390387,-0.30295814 37.8420663,-0.302530233 36.5876022,0.908874419 C27.8162652,9.3780093 17.2940221,13.3224558 3.47250829,13.3224558 C1.68755801,13.3224558 0.240464088,14.7593674 0.240464088,16.5317581 C0.240464088,18.7945302 0.195646409,21.1338977 0.147812155,23.6097674 C-0.29519337,46.6465674 -0.901955801,78.1965767 37.7821657,91.5109023 C38.1251934,91.6290047 38.4828729,91.6880558 38.8405525,91.6880558 C39.198232,91.6880558 39.5563425,91.6290047 39.8989392,91.5109023 C78.5860773,78.1961488 77.9801768,46.6452837 77.5371713,23.6080558 Z M38.8409834,85.0730419 C5.66426519,73.1057674 6.16587845,46.8900465 6.61103867,23.7321488 C6.63775691,22.342307 6.66361326,20.9952558 6.68171271,19.6747349 C19.6271271,19.1321488 29.9791492,15.2369116 38.8409834,7.57138605 C47.7036796,15.2369116 58.0574254,19.1325767 71.0037017,19.6747349 C71.0218011,20.9948279 71.0476575,22.3410233 71.0743757,23.7300093 C71.519105,46.8887628 72.0202873,73.1053395 38.8409834,85.0730419 Z" id="Shape"></path>
                            <path d="M49.9708508,34.6955535 L34.3712818,50.1845023 L27.7145635,43.5746233 C26.4523425,42.3217116 24.4058122,42.3217116 23.1440221,43.5746233 C21.8818011,44.8283907 21.8818011,46.860093 23.1440221,48.1134326 L32.086011,56.9925023 C32.7169061,57.6189581 33.5443094,57.932186 34.3712818,57.932186 C35.1982541,57.932186 36.0256575,57.6189581 36.6565525,56.9925023 L54.5409613,39.2343628 C55.8036133,37.9810233 55.8036133,35.948893 54.5413923,34.6959814 C53.2796022,33.4426419 51.2330718,33.442214 49.9708508,34.6955535 Z" id="Path"></path>
                        </g>
                    </g>
                </g>
            </g>
        </g>
    </g>
</svg>