<?xml version="1.0" encoding="UTF-8"?>
<svg width="124px" height="110px" viewBox="0 0 124 110" version="1.1" xmlns="http://www.w3.org/2000/svg" xmlns:xlink="http://www.w3.org/1999/xlink">
    <!-- Generator: sketchtool 53.2 (72643) - https://sketchapp.com -->
    <title>AA91519C-8B78-435E-B252-A3E55E43088C</title>
    <desc>Created with sketchtool.</desc>
    <g id="Page-1" stroke="none" stroke-width="1" fill="none" fill-rule="evenodd">
        <g id="CONNEX-SOLUTIONS-V2" transform="translate(-540.000000, -1494.000000)" fill="#DD1962" fill-rule="nonzero" stroke="#FFFFFF">
            <g id="technical_detail" transform="translate(541.000000, 1495.000000)">
                <path d="M111.833023,0.12 L10.166977,0.12 C4.55433649,0.12656256 0.00651551484,4.70718744 0,10.3603126 L0,75.89625 C0.00651551484,81.5484374 4.55433649,86.1290626 10.166977,86.1356251 L24.3996278,86.1356251 L24.3996278,103.720313 C24.4005585,105.9825 26.2221069,107.815313 28.4671631,107.815313 C29.5459443,107.815313 30.5791168,107.384063 31.3414307,106.61625 L51.6753846,86.1356251 L111.833023,86.1356251 C117.445664,86.1290626 121.993484,81.5484374 122,75.89625 L122,10.3603126 C121.993484,4.70718744 117.445664,0.12656256 111.833023,0.12 Z M117.933395,75.89625 C117.933395,79.2890626 115.202469,82.0396874 111.833023,82.0396874 L50.833023,82.0396874 C50.2940978,82.0406251 49.7765809,82.25625 49.3958892,82.6396874 L28.4662324,103.720313 L28.4662324,84.0881251 C28.4662324,82.9565626 27.5559234,82.0396874 26.4333954,82.0396874 L10.166977,82.0396874 C6.79753119,82.0396874 4.06660455,79.2890626 4.06660455,75.89625 L4.06660455,10.3603126 C4.06660455,6.96656256 6.79753119,4.21593744 10.166977,4.21593744 L111.833023,4.21593744 C115.202469,4.21593744 117.933395,6.96656256 117.933395,10.3603126 L117.933395,75.89625 Z" id="Shape"></path>
                <path d="M62.5523442,19.2432011 C64.5759335,19.2432011 66.2363144,20.9021217 66.2536101,22.9412116 L66.2536101,24.6519735 C67.9139911,25.1012646 69.5051895,25.7579206 70.9926141,26.6219418 L72.2033086,25.4123122 C72.895134,24.7038148 73.8290983,24.3236455 74.8149495,24.3236455 C75.8008007,24.3236455 76.734765,24.7210952 77.4265904,25.4123122 L79.7787968,27.7624497 C81.2143345,29.1967249 81.2143345,31.5468624 79.7787968,32.9811376 L78.5681023,34.1907672 C79.4328841,35.6768836 80.0901182,37.2666825 80.5398047,38.9256032 L82.2520726,38.9256032 C84.2929575,38.9256032 85.9533385,40.5845238 85.9533385,42.6236138 L85.9533385,45.9587354 C85.9533385,47.9978254 84.2929575,49.656746 82.2520726,49.656746 L80.5398047,49.656746 C80.0901182,51.3156667 79.4328841,52.9054656 78.5681023,54.391582 L79.7787968,55.6012116 C81.2143345,57.0354868 81.2143345,59.3856243 79.7787968,60.8198995 L77.4265904,63.170037 C76.734765,63.8785344 75.8008007,64.2587037 74.8149495,64.2587037 C73.8290983,64.2587037 72.895134,63.861254 72.2033086,63.170037 L70.9926141,61.9604074 C69.5051895,62.8244286 67.9139911,63.4810847 66.2536101,63.9303757 L66.2536101,65.6411376 C66.2536101,67.6802275 64.5932291,69.3391481 62.5523442,69.3391481 L59.2142866,69.3391481 C57.1734016,69.3391481 55.5130206,67.6802275 55.5130206,65.6411376 L55.5130206,63.9303757 C53.8526397,63.4810847 52.2614412,62.8244286 50.7740166,61.9604074 L49.5633222,63.170037 C48.8714967,63.8785344 47.9375324,64.2587037 46.9516812,64.2587037 C45.96583,64.2587037 45.0318657,63.861254 44.3400403,63.170037 L41.987834,60.8198995 C41.2787129,60.1286825 40.8982089,59.1955397 40.8982089,58.2105556 C40.8982089,57.2255714 41.2960085,56.2924286 41.987834,55.6012116 L43.1985284,54.391582 C42.3337467,52.9054656 41.6765125,51.3156667 41.226826,49.656746 L39.5145581,49.656746 C37.4736732,49.656746 35.8132922,47.9978254 35.8132922,45.9587354 L35.8132922,42.6236138 C35.8132922,40.5845238 37.4736732,38.9256032 39.5145581,38.9256032 L41.226826,38.9256032 C41.6765125,37.2666825 42.3337467,35.6768836 43.1985284,34.1907672 L41.987834,32.9811376 C41.2787129,32.2899206 40.8982089,31.3567778 40.8982089,30.3717937 C40.8982089,29.3868095 41.2960085,28.4536667 41.987834,27.7624497 L44.3400403,25.4123122 C45.0318657,24.7038148 45.96583,24.3236455 46.9516812,24.3236455 C47.9375324,24.3236455 48.8714967,24.7210952 49.5633222,25.4123122 L50.7740166,26.6219418 C52.2614412,25.7579206 53.8526397,25.1012646 55.5130206,24.6519735 L55.5130206,22.9412116 C55.5130206,20.9021217 57.1734016,19.2432011 59.2142866,19.2432011 L62.5523442,19.2432011 Z M70.2834931,30.1989894 C68.4328601,28.9547989 66.3746795,28.1080582 64.1954295,27.6760476 C63.3825346,27.5205238 62.8117787,26.8120265 62.8117787,25.9998466 L62.8117787,22.9412116 C62.8117787,22.7856878 62.6907092,22.6647249 62.5350485,22.6647249 L59.1969909,22.6647249 C59.0413302,22.6647249 58.9202608,22.7856878 58.9202608,22.9412116 L58.9202608,25.9652857 C58.9202608,26.7774656 58.3322092,27.485963 57.53661,27.6414868 C55.3573599,28.0734974 53.2991793,28.9202381 51.4485464,30.1644286 C50.7740166,30.631 49.8573479,30.5273175 49.286592,29.9570635 L47.1246376,27.7970106 C47.0554551,27.7278889 46.9862725,27.7106085 46.9343856,27.7106085 C46.8824987,27.7106085 46.8133162,27.7278889 46.7441336,27.7970106 L44.3919272,30.1471481 C44.3227447,30.2162698 44.3054491,30.2853915 44.3054491,30.3372328 C44.3054491,30.3890741 44.3227447,30.4581958 44.3919272,30.5273175 L46.5538816,32.6873704 C47.1246376,33.2576243 47.2111158,34.1734868 46.7614293,34.8474233 C45.5161435,36.6964286 44.6686574,38.7527989 44.2362665,40.9301323 C44.0806058,41.7423122 43.3714848,42.3125661 42.5585899,42.3125661 L39.4972625,42.3125661 C39.3416018,42.3125661 39.2205323,42.4335291 39.2205323,42.5890529 L39.2205323,45.9241746 C39.2205323,46.0796984 39.3416018,46.2006614 39.4972625,46.2006614 L42.5585899,46.2006614 C43.3714848,46.2006614 44.0806058,46.7881958 44.2362665,47.5830952 C44.6686574,49.7604286 45.5161435,51.8167989 46.7614293,53.6658042 C47.2284114,54.3397407 47.1246376,55.2556032 46.5538816,55.8258571 L44.3919272,57.9859101 C44.3227447,58.0550317 44.3054491,58.1241534 44.3054491,58.1759947 C44.3054491,58.227836 44.3227447,58.2969577 44.3919272,58.3660794 L46.7441336,60.7162169 C46.8133162,60.7853386 46.8824987,60.802619 46.9343856,60.802619 C46.9862725,60.802619 47.0554551,60.7853386 47.1246376,60.7162169 L49.286592,58.556164 C49.8573479,57.9859101 50.7740166,57.8995079 51.4485464,58.3487989 C53.2991793,59.5929894 55.3573599,60.4397302 57.53661,60.8717407 C58.3495048,61.0272646 58.9202608,61.7357619 58.9202608,62.5479418 L58.9202608,65.6065767 C58.9202608,65.7621005 59.0413302,65.8830635 59.1969909,65.8830635 L62.5350485,65.8830635 C62.6907092,65.8830635 62.8117787,65.7621005 62.8117787,65.6065767 L62.8117787,62.5479418 C62.8117787,61.7357619 63.3998303,61.0272646 64.1954295,60.8717407 C66.3746795,60.4397302 68.4328601,59.5929894 70.2834931,58.3487989 C70.9580228,57.8822275 71.8746915,57.9859101 72.4454475,58.556164 L74.6074019,60.7507778 C74.6765844,60.8198995 74.7457669,60.8371799 74.7976538,60.8371799 C74.8495408,60.8371799 74.9187233,60.8198995 74.9879058,60.7507778 L77.3401122,58.4006402 C77.443886,58.2969577 77.443886,58.1241534 77.3401122,58.0204709 L75.1781578,55.860418 C74.6074019,55.290164 74.5209237,54.3743016 74.9706102,53.7003651 C76.2158959,51.8513598 77.0633821,49.7949894 77.4957729,47.6176561 C77.6514336,46.8054762 78.3605547,46.2352222 79.1734495,46.2352222 L82.234777,46.2352222 C82.3904377,46.2352222 82.5115071,46.1142593 82.5115071,45.9587354 L82.5115071,42.6236138 C82.5115071,42.4680899 82.3904377,42.347127 82.234777,42.347127 L79.1734495,42.347127 C78.3605547,42.347127 77.6514336,41.7595926 77.4957729,40.9646931 C77.0633821,38.7873598 76.2158959,36.7309894 74.9706102,34.8819841 C74.503628,34.2080476 74.6074019,33.2921852 75.1781578,32.7219312 L77.3401122,30.5618783 C77.443886,30.4581958 77.443886,30.2853915 77.3401122,30.181709 L74.9879058,27.8315714 C74.9187233,27.7624497 74.8495408,27.7451693 74.7976538,27.7451693 C74.7457669,27.7451693 74.6765844,27.7624497 74.6074019,27.8315714 L72.4454475,29.9916243 C72.1168304,30.3199524 71.6844395,30.4927566 71.234753,30.4927566 C70.9061359,30.4927566 70.5775189,30.3890741 70.2834931,30.1989894 Z M50.7221297,44.265254 C50.7221297,38.6663968 55.2881774,34.1043651 60.8919632,34.1043651 C66.495749,34.1043651 71.0617967,38.6663968 71.0617967,44.265254 C71.0617967,49.8641111 66.495749,54.4261429 60.8919632,54.4261429 C55.2881774,54.4261429 50.7221297,49.8641111 50.7221297,44.265254 Z M67.6199653,44.265254 C67.6199653,40.5672434 64.5932291,37.5258889 60.8746675,37.5258889 C57.156106,37.5258889 54.1293698,40.549963 54.1293698,44.265254 C54.1293698,47.980545 57.156106,51.004619 60.8746675,51.004619 C64.5932291,51.004619 67.6199653,47.980545 67.6199653,44.265254 Z" id="Combined-Shape"></path>
            </g>
        </g>
    </g>
</svg>