<?xml version="1.0" encoding="UTF-8"?>
<svg width="56px" height="42px" viewBox="0 0 56 42" version="1.1" xmlns="http://www.w3.org/2000/svg" xmlns:xlink="http://www.w3.org/1999/xlink">
    <!-- Generator: Sketch 53.2 (72643) - https://sketchapp.com -->
    <title>mail (2)</title>
    <desc>Created with Sketch.</desc>
    <g id="Page-1" stroke="none" stroke-width="1" fill="none" fill-rule="evenodd">
        <g id="CONNEX-SOLUTIONS-1" transform="translate(-495.000000, -2812.000000)" fill="#FFFFFF" fill-rule="nonzero">
            <g id="Group-14" transform="translate(240.000000, 2651.000000)">
                <g id="Group-11">
                    <g id="Group-9" transform="translate(197.000000, 70.000000)">
                        <g id="Group">
                            <g id="mail-(2)" transform="translate(59.000000, 92.000000)">
                                <path d="M44.0743085,30.8189169 C43.8584043,30.8189169 43.6425,30.73791 43.4739894,30.5740961 L33.373883,20.8568726 C33.0210638,20.5184439 33.0035106,19.9477956 33.335266,19.5859649 C33.6670213,19.2205339 34.2199468,19.2043326 34.5762766,19.5463616 L44.676383,29.263585 C45.0292021,29.6020137 45.0467553,30.1726621 44.715,30.5344928 C44.5412234,30.7235088 44.3095213,30.8189169 44.0743085,30.8189169 Z" id="Path"></path>
                                <path d="M10.3598936,30.8189169 C10.1264362,30.8189169 9.89297872,30.7235088 9.71920213,30.5344928 C9.38744681,30.1726621 9.405,29.6020137 9.75781915,29.263585 L19.8614362,19.5463616 C20.2160106,19.2079329 20.7724468,19.2223341 21.1024468,19.5859649 C21.4342021,19.9477956 21.4166489,20.5184439 21.0638298,20.8568726 L10.9602128,30.5740961 C10.7917021,30.73791 10.5757979,30.8189169 10.3598936,30.8189169 Z" id="Path"></path>
                                <path d="M50.0476596,39.8538825 L4.38829787,39.8538825 C1.96946809,39.8538825 0,37.8359115 0,35.3535011 L0,4.66630053 C0,2.18389016 1.96946809,0.165919146 4.38829787,0.165919146 L50.0476596,0.165919146 C52.4664894,0.165919146 54.4359574,2.18389016 54.4359574,4.66630053 L54.4359574,35.3535011 C54.4359574,37.8359115 52.4664894,39.8538825 50.0476596,39.8538825 Z M4.38829787,1.9660717 C2.93664894,1.9660717 1.75531915,3.17757437 1.75531915,4.66630053 L1.75531915,35.3535011 C1.75531915,36.8422273 2.93664894,38.05373 4.38829787,38.05373 L50.0476596,38.05373 C51.4993085,38.05373 52.6806383,36.8422273 52.6806383,35.3535011 L52.6806383,4.66630053 C52.6806383,3.17757437 51.4993085,1.9660717 50.0476596,1.9660717 L4.38829787,1.9660717 Z" id="Shape" stroke="#FFFFFF" stroke-width="0.588000053"></path>
                                <path d="M27.2179787,24.5327841 C26.0506915,24.5327841 24.8834043,24.1349504 23.9952128,23.3410831 L1.45691489,3.17757437 C1.09180851,2.85174676 1.05319149,2.28289855 1.37090426,1.90666667 C1.69212766,1.53223494 2.24505319,1.49803204 2.61015957,1.82025934 L25.1484574,21.981968 C26.2701064,22.9846529 28.1658511,22.9846529 29.2857447,21.981968 L51.7959574,1.85266209 C52.1593085,1.52683448 52.712234,1.56283753 53.0352128,1.93906941 C53.3529255,2.3153013 53.3160638,2.88234935 52.9509574,3.20997712 L30.4407447,23.339283 C29.5507979,24.1349504 28.385266,24.5327841 27.2179787,24.5327841 Z" id="Path" stroke="#FFFFFF" stroke-width="0.588000053"></path>
                            </g>
                        </g>
                    </g>
                </g>
            </g>
        </g>
    </g>
</svg>