<?xml version="1.0" encoding="UTF-8"?>
<svg width="372px" height="377px" viewBox="0 0 372 377" version="1.1" xmlns="http://www.w3.org/2000/svg" xmlns:xlink="http://www.w3.org/1999/xlink">
    <!-- Generator: sketchtool 53.2 (72643) - https://sketchapp.com -->
    <title>A3473D8F-EA0E-4AF2-8B27-3E96C236DD85</title>
    <desc>Created with sketchtool.</desc>
    <defs>
        <path d="M86.1216484,125.573942 C121.575738,83.6291433 128.603628,-12.8891726 207.924588,1.43690012 C287.245547,15.7629729 285.671145,38.5056002 343.037257,119.593404 C343.037257,119.593404 343.037257,119.593404 343.037257,119.593404 L343.037257,119.593404 C395.088668,193.168801 377.640028,295.009451 304.064631,347.060862 C273.595991,368.616105 236.659215,379.07589 199.412685,376.696279 C173.114531,375.0162 150.036314,373.2047 130.178031,371.261838 C-1.99111624,358.330896 -3.75503064,303.724663 1.4642863,253.159236 C6.68360324,202.593809 50.6675593,167.518741 86.1216484,125.573942 Z" id="path-1"></path>
        <path d="M158.082623,81.6115731 C179.112038,56.6894645 183.280596,-0.658288248 230.329425,7.85375498 C277.378254,16.3657982 276.444405,29.878659 310.470826,78.0581497 C310.470826,78.0581497 310.470826,78.0581497 310.470826,78.0581497 L310.470826,78.0581497 C341.372657,121.813396 330.952905,182.334915 287.197658,213.236746 C269.093388,226.022758 247.156088,232.222517 225.037441,230.804012 C209.539701,229.8101 195.932035,228.738964 184.214445,227.590588 C105.818979,219.907482 104.772722,187.462399 107.868534,157.41822 C110.964346,127.37404 137.053208,106.533682 158.082623,81.6115731 Z" id="path-3"></path>
    </defs>
    <g id="Page-1" stroke="none" stroke-width="1" fill="none" fill-rule="evenodd">
        <g id="CONNEX-SOLUTIONS-V2" transform="translate(0.000000, -2120.000000)">
            <g id="Mask" transform="translate(464.000000, 2327.000000) scale(1, -1) translate(-464.000000, -2327.000000) translate(-1.000000, 2120.000000)">
                <g id="channels_shape">
                    <g transform="translate(0.000000, 37.000000)">
                        <mask id="mask-2" fill="white">
                            <use xlink:href="#path-1"></use>
                        </mask>
                        <use id="Mask" fill="#FFD002" transform="translate(186.500000, 188.500000) scale(1, -1) translate(-186.500000, -188.500000) " xlink:href="#path-1"></use>
                        <mask id="mask-4" fill="white">
                            <use xlink:href="#path-3"></use>
                        </mask>
                        <use id="Mask" fill="#F5CA0E" transform="translate(217.621538, 119.000000) scale(1, -1) translate(-217.621538, -119.000000) " xlink:href="#path-3"></use>
                    </g>
                </g>
            </g>
        </g>
    </g>
</svg>