<?xml version="1.0" encoding="UTF-8"?>
<svg width="38px" height="67px" viewBox="0 0 38 67" version="1.1" xmlns="http://www.w3.org/2000/svg" xmlns:xlink="http://www.w3.org/1999/xlink">
    <!-- Generator: sketchtool 53.2 (72643) - https://sketchapp.com -->
    <title>3179F9A1-8D64-4898-9877-06A9492EEB60</title>
    <desc>Created with sketchtool.</desc>
    <g id="Page-1" stroke="none" stroke-width="1" fill="none" fill-rule="evenodd">
        <g id="CONNEX-SOLUTIONS-V2" transform="translate(-307.000000, -2725.000000)" fill="#08DBF1" fill-rule="nonzero">
            <g id="Group-14" transform="translate(240.000000, 2651.000000)">
                <g id="Group-11">
                    <g id="Group-9">
                        <g id="Group">
                            <g id="mic" transform="translate(67.000000, 74.000000)">
                                <path d="M22.5695708,0 L15.4507306,0 C10.2292877,0 5.98040183,4.21172308 5.98040183,9.38910513 L5.98040183,32.8380744 C5.98040183,33.485741 6.51014612,34.0109179 7.16499543,34.0109179 L30.855653,34.0109179 C31.5103288,34.0109179 32.0402466,33.485741 32.0402466,32.8380744 L32.0402466,9.38910513 C32.0402466,4.21172308 27.7913607,0 22.5695708,0 Z M29.6712329,31.6652308 L8.34958904,31.6652308 L8.34958904,9.38910513 C8.34958904,5.50533846 11.5353425,2.34568718 15.4509041,2.34568718 L22.5699178,2.34568718 C26.4854795,2.34551538 29.6712329,5.50533846 29.6712329,9.38910513 L29.6712329,31.6652308 Z" id="Shape"></path>
                                <path d="M5.98057534,31.6652308 L5.98057534,39.2882846 C5.98057534,43.4915897 9.16615525,46.9113385 13.0818904,46.9113385 L24.939105,46.9113385 C28.8546667,46.9113385 32.0404201,43.4914179 32.0404201,39.2882846 L32.0404201,31.6652308 L5.98057534,31.6652308 Z M29.6708858,39.2882846 C29.6708858,42.1984897 27.5482648,44.5658231 24.9385845,44.5658231 L13.0817169,44.5658231 C10.47221,44.5658231 8.34941553,42.1984897 8.34941553,39.2882846 L8.34941553,34.0107462 L29.6708858,34.0107462 L29.6707123,39.2882846 L29.6708858,39.2882846 Z" id="Shape"></path>
                                <path d="M14.27221,10.5550769 L8.34958904,10.5550769 C7.69491324,10.5550769 7.16499543,11.0802538 7.16499543,11.7279205 C7.16499543,12.3755872 7.69473973,12.9007641 8.34958904,12.9007641 L14.27221,12.9007641 C14.9268858,12.9007641 15.4568037,12.3755872 15.4568037,11.7279205 C15.4568037,11.0802538 14.9270594,10.5550769 14.27221,10.5550769 Z" id="Path"></path>
                                <path d="M14.27221,15.2462795 L8.34958904,15.2462795 C7.69491324,15.2462795 7.16499543,15.7714564 7.16499543,16.4191231 C7.16499543,17.0667897 7.69473973,17.5919667 8.34958904,17.5919667 L14.27221,17.5919667 C14.9268858,17.5919667 15.4568037,17.0667897 15.4568037,16.4191231 C15.4568037,15.7712846 14.9270594,15.2462795 14.27221,15.2462795 Z" id="Path"></path>
                                <path d="M29.6712329,10.5550769 L23.7486119,10.5550769 C23.0939361,10.5550769 22.5640183,11.0802538 22.5640183,11.7279205 C22.5640183,12.3755872 23.0937626,12.9007641 23.7486119,12.9007641 L29.6712329,12.9007641 C30.3259087,12.9007641 30.8558265,12.3755872 30.8558265,11.7279205 C30.8558265,11.0802538 30.3259087,10.5550769 29.6712329,10.5550769 Z" id="Path"></path>
                                <path d="M29.6712329,15.2462795 L23.7486119,15.2462795 C23.0939361,15.2462795 22.5640183,15.7714564 22.5640183,16.4191231 C22.5640183,17.0667897 23.0937626,17.5919667 23.7486119,17.5919667 L29.6712329,17.5919667 C30.3259087,17.5919667 30.8558265,17.0667897 30.8558265,16.4191231 C30.8558265,15.7712846 30.3259087,15.2462795 29.6712329,15.2462795 Z" id="Path"></path>
                                <path d="M14.27221,19.9373103 L8.34958904,19.9373103 C7.69491324,19.9373103 7.16499543,20.4624872 7.16499543,21.1101538 C7.16499543,21.7578205 7.69473973,22.2829974 8.34958904,22.2829974 L14.27221,22.2829974 C14.9268858,22.2829974 15.4568037,21.7578205 15.4568037,21.1101538 C15.4568037,20.4624872 14.9270594,19.9373103 14.27221,19.9373103 Z" id="Path"></path>
                                <path d="M29.6712329,19.9373103 L23.7486119,19.9373103 C23.0939361,19.9373103 22.5640183,20.4624872 22.5640183,21.1101538 C22.5640183,21.7578205 23.0937626,22.2829974 23.7486119,22.2829974 L29.6712329,22.2829974 C30.3259087,22.2829974 30.8558265,21.7578205 30.8558265,21.1101538 C30.8558265,20.4624872 30.3259087,19.9373103 29.6712329,19.9373103 Z" id="Path"></path>
                                <path d="M14.27221,24.6285128 L8.34958904,24.6285128 C7.69491324,24.6285128 7.16499543,25.1536897 7.16499543,25.8013564 C7.16499543,26.4490231 7.69473973,26.9742 8.34958904,26.9742 L14.27221,26.9742 C14.9268858,26.9742 15.4568037,26.4490231 15.4568037,25.8013564 C15.4568037,25.1536897 14.9270594,24.6285128 14.27221,24.6285128 Z" id="Path"></path>
                                <path d="M29.6712329,24.6285128 L23.7486119,24.6285128 C23.0939361,24.6285128 22.5640183,25.1536897 22.5640183,25.8013564 C22.5640183,26.4490231 23.0937626,26.9742 23.7486119,26.9742 L29.6712329,26.9742 C30.3259087,26.9742 30.8558265,26.4490231 30.8558265,25.8013564 C30.8558265,25.1536897 30.3259087,24.6285128 29.6712329,24.6285128 Z" id="Path"></path>
                                <path d="M36.7784475,23.831041 C36.1237717,23.831041 35.5938539,24.3562179 35.5938539,25.0038846 L35.5938539,37.7165333 C35.5938539,44.0798154 30.2797534,49.2570256 23.7473973,49.2570256 L14.2734247,49.2570256 C7.74106849,49.2570256 2.42696804,44.0798154 2.42696804,37.7165333 L2.42696804,25.0038846 C2.42696804,24.3562179 1.89722374,23.831041 1.24237443,23.831041 C0.587525114,23.831041 0.0577808219,24.3562179 0.0577808219,25.0038846 L0.0577808219,37.7165333 C0.0577808219,45.3734308 6.4350137,51.602541 14.2734247,51.602541 L23.7473973,51.602541 C31.5858082,51.602541 37.9630411,45.373259 37.9630411,37.7165333 L37.9630411,25.0038846 C37.9630411,24.3562179 37.4331233,23.831041 36.7784475,23.831041 Z" id="Path"></path>
                                <path d="M19.010411,50.8047256 C18.3557352,50.8047256 17.8258174,51.3299026 17.8258174,51.9775692 L17.8258174,64.8781615 C17.8258174,65.5258282 18.3555616,66.0510051 19.010411,66.0510051 C19.6652603,66.0510051 20.1950046,65.5258282 20.1950046,64.8781615 L20.1950046,51.9775692 C20.1950046,51.3299026 19.6650868,50.8047256 19.010411,50.8047256 Z" id="Path"></path>
                                <path d="M28.4866393,64.5033051 L9.53418265,64.5033051 C8.87950685,64.5033051 8.34958904,65.0284821 8.34958904,65.6761487 C8.34958904,66.3238154 8.87933333,66.8489923 9.53418265,66.8489923 L28.4868128,66.8489923 C29.1414886,66.8489923 29.6714064,66.3238154 29.6714064,65.6761487 C29.6712329,65.0283103 29.1414886,64.5033051 28.4866393,64.5033051 Z" id="Path"></path>
                            </g>
                        </g>
                    </g>
                </g>
            </g>
        </g>
    </g>
</svg>