<?xml version="1.0" encoding="UTF-8"?>
<svg width="48px" height="45px" viewBox="0 0 48 45" version="1.1" xmlns="http://www.w3.org/2000/svg" xmlns:xlink="http://www.w3.org/1999/xlink">
    <!-- Generator: Sketch 53.2 (72643) - https://sketchapp.com -->
    <title>chat (2)</title>
    <desc>Created with Sketch.</desc>
    <g id="Page-1" stroke="none" stroke-width="1" fill="none" fill-rule="evenodd">
        <g id="CONNEX-HOME-GRADIENT" transform="translate(-1190.000000, -4522.000000)" fill="#000000" fill-rule="nonzero">
            <g id="CONNECT" transform="translate(135.000000, 4176.000000)">
                <g id="ico" transform="translate(987.000000, 319.000000)">
                    <g id="chat-(2)" transform="translate(68.000000, 27.000000)">
                        <path d="M8,18.8558036 L18.4,18.8558036 C18.8424,18.8558036 19.2,18.4958036 19.2,18.0522321 C19.2,17.6086607 18.8424,17.2486607 18.4,17.2486607 L8,17.2486607 C7.5576,17.2486607 7.2,17.6086607 7.2,18.0522321 C7.2,18.4958036 7.5576,18.8558036 8,18.8558036 Z" id="Path"></path>
                        <path d="M28.8,22.0700893 L8,22.0700893 C7.5576,22.0700893 7.2,22.4300893 7.2,22.8736607 C7.2,23.3172321 7.5576,23.6772321 8,23.6772321 L28.8,23.6772321 C29.2424,23.6772321 29.6,23.3172321 29.6,22.8736607 C29.6,22.4300893 29.2424,22.0700893 28.8,22.0700893 Z" id="Path"></path>
                        <path d="M28.8,26.8915179 L8,26.8915179 C7.5576,26.8915179 7.2,27.2515179 7.2,27.6950893 C7.2,28.1386607 7.5576,28.4986607 8,28.4986607 L28.8,28.4986607 C29.2424,28.4986607 29.6,28.1386607 29.6,27.6950893 C29.6,27.2515179 29.2424,26.8915179 28.8,26.8915179 Z" id="Path"></path>
                        <path d="M43.2576,0.429910714 L15.944,0.373660714 C13.328,0.373660714 11.2,2.51116071 11.2,5.13883929 L11.2,9.25633929 L4.744,9.27 C2.128,9.27 0,11.4075 0,14.0351786 L0,31.0234821 C0,33.6511607 2.128,35.7878571 4.744,35.7878571 L9.6,35.7878571 L9.6,43.8235714 C9.6,44.1554464 9.8032,44.4535714 10.112,44.5733036 C10.2056,44.6094643 10.3032,44.6271429 10.4,44.6271429 C10.6208,44.6271429 10.8376,44.5347321 10.992,44.364375 L18.7552,35.78625 L32.056,35.7316071 C34.672,35.7316071 36.8,33.5941071 36.8,30.9672321 L36.8,30.8764286 L41.008,35.5258929 C41.1624,35.69625 41.3792,35.7886607 41.6,35.7886607 C41.6968,35.7886607 41.7944,35.7709821 41.888,35.7348214 C42.1968,35.6150893 42.4,35.3169643 42.4,34.9850893 L42.4,26.949375 L43.256,26.949375 C45.872,26.949375 48,24.811875 48,22.185 L48,5.19508929 C48,2.56821429 45.8728,0.430714286 43.2576,0.429910714 Z M35.2,30.9664286 C35.2,32.7077679 33.7896,34.1236607 32.0528,34.1236607 L18.3968,34.1799107 C18.1728,34.1807143 17.9584,34.2763393 17.808,34.4426786 L11.2,41.7447321 L11.2,34.9834821 C11.2,34.5399107 10.8424,34.1799107 10.4,34.1799107 L4.744,34.1799107 C3.0104,34.1799107 1.6,32.7632143 1.6,31.0226786 L1.6,14.034375 C1.6,12.2930357 3.0104,10.8763393 4.7456,10.8763393 L12,10.8610714 C12,10.8610714 12,10.8610714 12,10.8610714 C12.0008,10.8610714 12.0008,10.8610714 12.0016,10.8610714 L32.056,10.8192857 C33.7896,10.8192857 35.2,12.2359821 35.2,13.9773214 L35.2,28.7959821 L35.2,30.9664286 Z M46.4,22.1833929 C46.4,23.9247321 44.9896,25.340625 43.256,25.340625 L41.6,25.340625 C41.1576,25.340625 40.8,25.700625 40.8,26.1441964 L40.8,32.9054464 L36.8,28.4858036 L36.8,13.978125 C36.8,11.3504464 34.672,9.21294643 32.0544,9.21294643 L12.8,9.25232143 L12.8,5.13803571 C12.8,3.39669643 14.2104,1.98 15.9424,1.98 L43.2552,2.03625 C43.256,2.03625 43.256,2.03625 43.2568,2.03625 C44.9904,2.03625 46.4008,3.45294643 46.4008,5.19428571 L46.4008,22.1833929 L46.4,22.1833929 Z" id="Shape"></path>
                    </g>
                </g>
            </g>
        </g>
    </g>
</svg>