<?xml version="1.0" encoding="utf-8"?>
<!-- Generator: Adobe Illustrator 22.1.0, SVG Export Plug-In . SVG Version: 6.00 Build 0)  -->
<svg version="1.1" id="Шар_1" xmlns="http://www.w3.org/2000/svg" xmlns:xlink="http://www.w3.org/1999/xlink" x="0px" y="0px"
	 viewBox="0 0 72 71" style="enable-background:new 0 0 72 71;" xml:space="preserve">
<style type="text/css">
	.st0{fill:#6635FF;stroke:#6635FF;stroke-width:0.2;}
	.st1{clip-path:url(#SVGID_2_);fill:#FFFFFF;}
	.st2{fill:#6635FF;}
	.move-gear {
		-webkit-animation: rotate 2s infinite ease;
		-moz-animation:    rotate 2s infinite ease;
		-o-animation:      rotate 2s infinite ease;
		animation:         rotate 2s infinite ease;

		-webkit-transform-origin: 69.4% 29.6%;
		-moz-transform-origin: 69.4% 29.6%;
		-o-transform-origin: 69.4% 29.6%;
		-ms-transform-origin: 69.4% 29.6%;
		transform-origin: 69.4% 29.6%;
	}

	.move-gear-large {
		-webkit-animation: rotate-back 2s infinite ease;
		-moz-animation:    rotate-back 2s infinite ease;
		-o-animation:      rotate-back 2s infinite ease;
		animation:         rotate-back 2s infinite ease;

		-webkit-transform-origin: 37.6% 61%;
		-moz-transform-origin: 37.6% 61%;
		-o-transform-origin: 37.6% 61%;
		-ms-transform-origin: 37.6% 61%;
		transform-origin: 37.6% 61%;
	}

	@-webkit-keyframes rotate {
		0%   { transform: rotate(0); }
		50%   { transform: rotate(45deg); }
		100% { transform: rotate(90deg); }
	}
	@-moz-keyframes rotate {
		0%   { transform: rotate(0); }
		50%   { transform: rotate(45deg); }
		100% { transform: rotate(90deg); }
	}
	@-o-keyframes rotate {
		0%   { transform: rotate(0); }
		50%   { transform: rotate(45deg); }
		100% { transform: rotate(90deg); }
	}
	@keyframes rotate {
		0%   { transform: rotate(0); }
		50%   { transform: rotate(45deg); }
		100% { transform: rotate(90deg); }
	}

	@-webkit-keyframes rotate-back {
		0%   { transform: rotate(0); }
		50%   { transform: rotate(-45deg); }
		100% { transform: rotate(-90deg); }
	}
	@-moz-keyframes rotate-back {
		0%   { transform: rotate(0); }
		50%   { transform: rotate(-45deg); }
		100% { transform: rotate(-90deg); }
	}
	@-o-keyframes rotate-back {
		0%   { transform: rotate(0); }
		50%   { transform: rotate(-45deg); }
		100% { transform: rotate(-90deg); }
	}
	@keyframes rotate-back {
		0%   { transform: rotate(0); }
		50%   { transform: rotate(-45deg); }
		100% { transform: rotate(-90deg); }
	}
</style>
<g id="Page-1">
	<g id="CONNEX-HOME-GRADIENT" transform="translate(-940.000000, -1591.000000)">
		<g id="SOLUTIONS" transform="translate(304.000000, 1447.000000)">
			<g id="BACK-OFFICE" transform="translate(513.000000, 144.000000)">
				<g id="settings" transform="translate(124.000000, 0.000000)">
					<path class="st0 move-gear-large" d="M52.9,47.7c-0.1-0.1-0.3-0.2-0.5-0.3c-0.2-0.1-0.3-0.2-0.5-0.3l-2.2-0.9c0.3-2.2,0.3-4.4,0-6.6l2.2-0.9
						c0.9-0.4,1.6-1.1,2-2c0.4-0.9,0.4-1.9,0-2.8l-1.5-3.5c-0.4-0.9-1.1-1.6-2-2c-0.9-0.4-1.9-0.4-2.8,0l-2.2,0.9
						c-1.3-1.8-2.9-3.3-4.6-4.6l0.9-2.2c0.4-0.9,0.4-1.9,0-2.8c-0.4-0.9-1.1-1.6-2-2l-3.5-1.5c-1.9-0.8-4.1,0.1-4.8,2l-0.9,2.2
						c-2.2-0.3-4.4-0.3-6.6,0h0l-0.9-2.2c-0.2-0.5-0.5-0.8-0.8-1.2c0,0,0,0,0,0c-0.2-0.2-0.3-0.3-0.5-0.4c-0.1-0.1-0.2-0.2-0.4-0.2
						c-0.1-0.1-0.2-0.1-0.3-0.2c-0.1,0-0.2-0.1-0.3-0.1c-0.8-0.2-1.7-0.2-2.5,0.1l-3.5,1.5c-0.9,0.4-1.6,1.1-2,2
						c-0.4,0.9-0.4,1.9,0,2.8l0.9,2.2h0c-0.4,0.3-0.9,0.7-1.3,1c-0.3,0.3-0.6,0.5-0.9,0.8c-0.3,0.3-0.6,0.6-0.9,0.9c0,0,0,0,0,0
						c-0.3,0.3-0.5,0.6-0.8,0.9c0,0,0,0,0,0c-0.3,0.3-0.5,0.6-0.8,1l0,0l-0.9-0.4l-1.3-0.5c-0.1,0-0.2-0.1-0.2-0.1c0,0-0.1,0-0.1,0
						c-0.1,0-0.2,0-0.3-0.1c0,0,0,0,0,0c-0.1,0-0.1,0-0.2,0c0,0-0.1,0-0.2,0c-0.1,0-0.2,0-0.3,0H5.2c-0.1,0-0.2,0-0.3,0
						c-0.3,0-0.6,0.1-1,0.2c-0.1,0-0.2,0.1-0.2,0.1c-0.2,0.1-0.5,0.2-0.7,0.4C2.9,28.9,2.8,29,2.7,29s-0.1,0.1-0.2,0.2
						c-0.1,0.1-0.2,0.3-0.4,0.4c0,0.1-0.1,0.1-0.1,0.2C2,30,1.9,30,1.9,30.1c0,0.1-0.1,0.2-0.1,0.3l-1.5,3.5c-0.6,1.4-0.2,3,0.8,4.1
						c0.1,0.1,0.3,0.2,0.4,0.4c0.2,0.1,0.3,0.2,0.5,0.3c0.1,0,0.2,0.1,0.3,0.1l2.2,0.9c-0.3,2.2-0.3,4.4,0,6.5l-2.2,0.9
						c-0.9,0.4-1.6,1.1-2,2c-0.4,0.9-0.4,1.9,0,2.8l1.5,3.5c0.4,0.9,1.1,1.6,2,2c0.9,0.4,1.9,0.4,2.8,0l2.2-0.9
						c1.3,1.8,2.9,3.3,4.7,4.6l-0.9,2.2c-0.4,0.9-0.4,1.9,0,2.8c0.4,0.9,1.1,1.6,2,2l3.5,1.5c1.9,0.8,4.1-0.1,4.8-2l0.9-2.2
						c2.2,0.3,4.4,0.3,6.6,0h0l0.9,2.2c0.2,0.5,0.5,0.9,0.8,1.2c0.2,0.2,0.3,0.3,0.6,0.5c0.2,0.1,0.4,0.2,0.6,0.3h0c0,0,0.1,0,0.1,0
						c0.1,0,0.2,0.1,0.3,0.1c0.3,0.1,0.7,0.2,1,0.2c0.4,0,0.7-0.1,1.1-0.2c0.1,0,0.2-0.1,0.3-0.1l3.5-1.5c0.1,0,0.1-0.1,0.2-0.1
						c0,0,0,0,0,0c0.1,0,0.1-0.1,0.1-0.1c0,0,0.1-0.1,0.2-0.1c0.1,0,0.1-0.1,0.2-0.1c0.1-0.1,0.3-0.2,0.4-0.3c0,0,0,0,0,0
						c0,0,0,0,0,0c0.1,0,0.1-0.1,0.2-0.2c0.1-0.1,0.2-0.3,0.3-0.4c0-0.1,0.1-0.2,0.2-0.2c0-0.1,0.1-0.1,0.1-0.2
						c0-0.1,0.1-0.1,0.1-0.2c0,0,0,0,0,0c0.1-0.2,0.2-0.5,0.2-0.7c0.1-0.5,0.1-1,0-1.4c0-0.1-0.1-0.2-0.1-0.4c0-0.1-0.1-0.2-0.1-0.3
						l-0.9-2.2h0c0.4-0.3,0.9-0.7,1.3-1c0.4-0.4,0.8-0.7,1.2-1.1c0.2-0.2,0.4-0.4,0.6-0.6c0.6-0.6,1.1-1.2,1.6-1.9h0l2.2,0.9
						c0.1,0,0.2,0.1,0.3,0.1c0.6,0.2,1.1,0.2,1.7,0.1c0.1,0,0.1,0,0.2,0c0.2,0,0.4-0.1,0.5-0.2c0.1,0,0.2-0.1,0.2-0.1
						c0.2-0.1,0.5-0.2,0.7-0.4c0.1-0.1,0.2-0.2,0.4-0.3c0.3-0.3,0.6-0.7,0.8-1.2L54,52c0.6-1.4,0.2-3-0.8-4.1
						C53.1,47.8,53,47.8,52.9,47.7z M51.4,50.9l-1.5,3.5v0c0,0.1-0.1,0.1-0.1,0.2c0,0,0,0,0,0c0,0.1-0.1,0.1-0.2,0.2c0,0,0,0,0,0
						c-0.1,0-0.1,0.1-0.2,0.1c-0.1,0-0.2,0-0.2,0c-0.1,0-0.1,0-0.2,0c-0.1,0-0.1,0-0.2,0l-3.3-1.3c-0.4-0.1-0.7-0.1-1.1,0
						c-0.1,0-0.2,0.1-0.3,0.2c0,0,0,0,0,0c0,0-0.1,0.1-0.1,0.1c-0.1,0.1-0.2,0.2-0.2,0.3c-0.7,1.1-1.6,2.1-2.5,3
						c-0.5,0.5-0.9,0.9-1.5,1.3c-0.5,0.4-1,0.8-1.6,1.2c-0.6,0.4-0.8,1.1-0.5,1.7l1.4,3.2c0.1,0.2,0.1,0.4,0,0.5c0,0,0,0,0,0
						c0,0,0,0,0,0.1c0,0,0,0,0,0c0,0,0,0.1-0.1,0.1c0,0.1-0.1,0.1-0.2,0.2c-0.1,0.1-0.1,0.1-0.2,0.1l-3.5,1.5c0,0-0.1,0-0.2,0
						c-0.1,0-0.2,0-0.3,0c0,0-0.1,0-0.2,0c0,0-0.1,0-0.1-0.1c-0.1-0.1-0.2-0.2-0.3-0.4l-1.3-3.2c0-0.1-0.1-0.2-0.2-0.3
						c0,0,0-0.1-0.1-0.1c-0.2-0.2-0.4-0.4-0.7-0.4c-0.1,0-0.1,0-0.2,0c0,0-0.1,0-0.1,0h0c-0.1,0-0.2,0-0.3,0c0,0,0,0-0.1,0
						c0,0,0,0-0.1,0c-2.5,0.5-5.2,0.5-7.7,0c-0.7-0.1-1.3,0.2-1.6,0.8l-1.3,3.2c-0.2,0.4-0.7,0.6-1.1,0.5l-3.5-1.5
						c-0.2-0.1-0.4-0.2-0.5-0.5c-0.1-0.2-0.1-0.4,0-0.7l1.4-3.2c0.3-0.6,0-1.4-0.5-1.7c-2.2-1.5-4-3.3-5.5-5.5
						c-0.4-0.6-1.1-0.8-1.7-0.5l-3.2,1.3c-0.2,0.1-0.4,0.1-0.6,0c-0.2-0.1-0.4-0.2-0.5-0.5l-1.5-3.5c-0.1-0.2-0.1-0.4,0-0.7
						C3,50,3.2,49.8,3.4,49.7l3.2-1.3c0.6-0.3,1-0.9,0.8-1.6c-0.5-2.5-0.5-5.2,0-7.7c0,0,0,0,0,0c0-0.1,0-0.2,0-0.3c0,0,0,0,0,0
						c0-0.1,0-0.1,0-0.2c0-0.1-0.1-0.2-0.1-0.4c0-0.1-0.1-0.1-0.1-0.2c0-0.1-0.1-0.2-0.1-0.2c-0.1-0.1-0.2-0.2-0.2-0.2
						c-0.1-0.1-0.2-0.1-0.3-0.1l-3.2-1.3c-0.1,0-0.2-0.1-0.2-0.1c-0.3-0.2-0.4-0.6-0.2-1l1.5-3.5c0-0.1,0.1-0.1,0.1-0.2
						c0.1-0.1,0.1-0.2,0.2-0.2c0,0,0.1-0.1,0.1-0.1c0,0,0,0,0.1,0c0,0,0,0,0.1,0c0.1,0,0.2,0,0.4,0c0.1,0,0.1,0,0.2,0l3.3,1.3
						c0.6,0.3,1.3,0,1.7-0.5c1.3-1.9,2.9-3.6,4.7-4.9c0.3-0.2,0.5-0.4,0.8-0.6c0,0,0.1-0.1,0.2-0.1c0.4-0.4,0.6-1.1,0.4-1.6
						l-1.3-3.2c0,0,0-0.1,0-0.2c0-0.1,0-0.2,0-0.4c0,0,0-0.1,0-0.1c0,0,0,0,0,0c0,0,0-0.1,0.1-0.1c0,0,0.1-0.1,0.1-0.1
						c0,0,0.1-0.1,0.1-0.1c0,0,0.1,0,0.1,0c0,0,0.1,0,0.1-0.1l3.5-1.5c0,0,0.1,0,0.2,0c0.1,0,0.2,0,0.3,0c0.1,0,0.1,0,0.2,0
						c0.2,0.1,0.4,0.2,0.5,0.5l1.3,3.2c0.1,0.3,0.3,0.5,0.5,0.6c0.1,0.1,0.2,0.1,0.4,0.2c0.1,0,0.1,0,0.2,0c0.1,0,0.1,0,0.2,0
						c0.1,0,0.2,0,0.2,0c0,0,0,0,0.1,0h0c0,0,0,0,0.1,0c2.5-0.5,5.2-0.5,7.7,0c0.7,0.1,1.3-0.2,1.6-0.8l1.3-3.2
						c0.2-0.4,0.7-0.6,1.1-0.5l3.6,1.5c0.2,0.1,0.4,0.2,0.5,0.5c0.1,0.2,0.1,0.4,0,0.7l-1.3,3.2c-0.3,0.6,0,1.3,0.5,1.7
						c2.2,1.5,4,3.3,5.5,5.5c0.4,0.6,1.1,0.8,1.7,0.5l3.2-1.3c0.2-0.1,0.4-0.1,0.6,0c0.2,0.1,0.4,0.2,0.5,0.5l1.5,3.5
						c0.1,0.2,0.1,0.4,0,0.6c-0.1,0.2-0.2,0.4-0.5,0.5l-3.2,1.3c-0.6,0.3-1,0.9-0.9,1.6c0.5,2.5,0.5,5.1,0,7.6c0,0,0,0.1,0,0.1
						c0,0,0,0,0,0c0,0.2,0,0.5,0,0.7c0,0.1,0.1,0.1,0.1,0.2c0,0.1,0.1,0.1,0.1,0.2c0.1,0.1,0.1,0.2,0.2,0.2c0.1,0.1,0.2,0.2,0.4,0.2
						l3.2,1.3C51.3,49.9,51.5,50.4,51.4,50.9z"/>

					<g>
						<defs>
							<rect id="SVGID_1_" x="25.2" width="45.7" height="44.3"/>
						</defs>
						<clipPath id="SVGID_2_">
							<use xlink:href="#SVGID_1_"  style="overflow:visible;"/>
						</clipPath>
						<circle class="st1" cx="50.1" cy="20.7" r="24.2"/>
					</g>
					<path class="st0" d="M15.5,43c0,6.4,5.3,11.5,11.6,11.5c0,0,0.1,0,0.1,0c3.1,0,6-1.3,8.2-3.5s3.4-5.1,3.4-8.2
						c0-0.8-0.7-1.4-1.4-1.4h0c-0.8,0-1.4,0.6-1.4,1.4c0,2.3-0.9,4.5-2.5,6.2c-1.6,1.7-3.8,2.6-6.2,2.6c0,0,0,0-0.1,0
						c-4.8,0-8.7-3.9-8.8-8.7c0-4.8,3.9-8.8,8.7-8.8c0.8,0,1.4-0.6,1.4-1.4c0-0.8-0.7-1.4-1.4-1.4c0,0,0,0,0,0
						C20.6,31.4,15.5,36.6,15.5,43z"/>
					<path id="Shape" class="st2 move-gear" d="M51.3,0h-2.8c-1.7,0-3.1,1.4-3.1,3.1v1.4c-1.4,0.4-2.7,0.9-4,1.6l-1-1
						c-0.6-0.6-1.4-0.9-2.2-0.9s-1.6,0.3-2.2,0.9l-2,2c-0.6,0.6-0.9,1.4-0.9,2.2s0.3,1.6,0.9,2.2l1,1c-0.7,1.2-1.3,2.6-1.6,3.9H32
						c-1.7,0-3.1,1.4-3.1,3.1v2.8c0,1.7,1.4,3.1,3.1,3.1h1.4c0.4,1.4,0.9,2.7,1.6,3.9l-1,1c-0.6,0.6-0.9,1.4-0.9,2.2
						s0.3,1.6,0.9,2.2l2,2c0.6,0.6,1.4,0.9,2.2,0.9s1.6-0.3,2.2-0.9l1-1c1.2,0.7,2.6,1.3,4,1.6v1.4c0,1.7,1.4,3.1,3.1,3.1h2.8
						c1.7,0,3.1-1.4,3.1-3.1v-1.4c1.4-0.4,2.7-0.9,4-1.6l1,1c0.6,0.6,1.4,0.9,2.2,0.9c0.8,0,1.6-0.3,2.2-0.9l2-2
						c1.2-1.2,1.2-3.2,0-4.3l-1-1c0.7-1.2,1.3-2.6,1.6-3.9h1.4c1.7,0,3.1-1.4,3.1-3.1v-2.8c0-1.7-1.4-3.1-3.1-3.1h-1.4
						c-0.4-1.4-0.9-2.7-1.6-3.9l1-1c1.2-1.2,1.2-3.2,0-4.3l-2-2c-0.6-0.6-1.4-0.9-2.2-0.9c-0.8,0-1.6,0.3-2.2,0.9l-1,1
						c-1.2-0.7-2.6-1.3-4-1.6V3.1C54.4,1.4,53,0,51.3,0z M57.8,9.2c0.2,0.2,0.5,0.2,0.8,0.2c0.4,0,0.7-0.1,1-0.4l1.8-1.8
						c0.1-0.1,0.1-0.1,0.2-0.1s0.1,0,0.2,0.1l2,2c0.1,0.1,0.1,0.2,0,0.3l-1.8,1.8c-0.5,0.5-0.6,1.2-0.2,1.8c1,1.5,1.7,3.3,2.1,5.1
						c0.1,0.7,0.7,1.2,1.4,1.2h2.6c0.1,0,0.2,0.1,0.2,0.2v2.8c0,0.1-0.1,0.2-0.2,0.2h-2.6c-0.7,0-1.3,0.5-1.4,1.2
						c-0.4,1.8-1.1,3.5-2.1,5.1c-0.4,0.6-0.3,1.3,0.2,1.8l1.8,1.8c0.1,0.1,0.1,0.2,0,0.3l-2,2c-0.1,0.1-0.1,0.1-0.2,0.1
						s-0.1,0-0.2-0.1l-1.8-1.8c-0.5-0.5-1.2-0.6-1.8-0.2c-1.5,1-3.3,1.7-5.1,2.1c-0.7,0.1-1.2,0.7-1.2,1.4v2.5
						c0,0.1-0.1,0.2-0.2,0.2h-2.8c-0.1,0-0.2-0.1-0.2-0.2v-2.5c0-0.7-0.5-1.3-1.2-1.4c-1.8-0.4-3.5-1.1-5.1-2.1
						c-0.6-0.4-1.3-0.3-1.8,0.2l-1.8,1.8c-0.1,0.1-0.1,0.1-0.2,0.1s-0.1,0-0.2-0.1l-2-2c-0.1-0.1-0.1-0.1-0.1-0.2s0-0.1,0.1-0.2
						l1.8-1.8c0.5-0.5,0.6-1.2,0.2-1.8c-1-1.5-1.7-3.3-2.1-5.1c-0.1-0.7-0.7-1.2-1.4-1.2H32c-0.1,0-0.2-0.1-0.2-0.2v-2.8
						c0-0.1,0.1-0.2,0.2-0.2h2.6c0.7,0,1.3-0.5,1.4-1.2c0.4-1.8,1.1-3.5,2.1-5.1c0.4-0.6,0.3-1.3-0.2-1.8l-1.8-1.8
						C36.1,9.4,36,9.3,36,9.3c0,0,0-0.1,0.1-0.2l2-2c0.1-0.1,0.1-0.1,0.2-0.1s0.1,0,0.2,0.1L40.2,9c0.5,0.5,1.2,0.6,1.8,0.2
						c1.5-1,3.3-1.7,5.1-2.1c0.7-0.1,1.2-0.7,1.2-1.4V3.1c0-0.1,0.1-0.2,0.2-0.2h2.8c0.1,0,0.2,0.1,0.2,0.2v2.5
						c0,0.7,0.5,1.3,1.2,1.4C54.5,7.4,56.2,8.1,57.8,9.2z"/>
					<path id="Shape_1_" class="st0" d="M41.4,20.9c0,4.7,3.8,8.5,8.5,8.5s8.5-3.8,8.5-8.5s-3.8-8.5-8.5-8.5S41.4,16.2,41.4,20.9z
						 M55.5,20.9c0,3.1-2.5,5.6-5.6,5.6s-5.6-2.5-5.6-5.6s2.5-5.6,5.6-5.6S55.5,17.8,55.5,20.9z"/>
				</g>
			</g>
		</g>
	</g>
</g>
</svg>
