<?xml version="1.0" encoding="UTF-8"?>
<svg width="1374px" height="957px" viewBox="0 0 1374 957" version="1.1" xmlns="http://www.w3.org/2000/svg" xmlns:xlink="http://www.w3.org/1999/xlink">
    <!-- Generator: Sketch 53.2 (72643) - https://sketchapp.com -->
    <title>impact_bg</title>
    <desc>Created with Sketch.</desc>
    <g id="DESIGN" stroke="none" stroke-width="1" fill="none" fill-rule="evenodd">
        <g id="CONNEX-HOME-GRADIENT" transform="translate(-66.000000, -536.000000)" fill="#00D2AB">
            <g id="WELCOME" transform="translate(66.000000, 417.000000)">
                <g id="Combined-Shape">
                    <path d="M1378.6181,42 C1378.36797,-125.018734 1378.30641,215.968967 1378.43341,1064.9631 C1378.43568,1080.11755 1349.99761,1060.52183 1350,1076 C1349,964 1247.82833,941.640562 1077.485,940.921685 C913.552022,940.229861 863.448712,940.211 275.175074,940.865101 C237.761185,940.906698 205.31525,915.011486 197.05853,878.520016 C180.476221,805.2327 139.379525,739.0508 73.7684413,679.974315 C-17.3107142,597.966275 -24.6643062,457.65138 57.3437337,366.572224 C99.4858408,319.768673 159.530339,293.076232 222.510689,293.148193 C870.297924,293.888308 923.72822,293.507289 1034.80158,292.005092 C1257,289 1379,297 1378.6181,42 Z" id="impact_bg"></path>
                </g>
            </g>
        </g>
    </g>
</svg>