<?xml version="1.0" encoding="UTF-8"?>
<svg width="516px" height="1367px" viewBox="0 0 516 1367" version="1.1" xmlns="http://www.w3.org/2000/svg" xmlns:xlink="http://www.w3.org/1999/xlink">
    <!-- Generator: Sketch 53.2 (72643) - https://sketchapp.com -->
    <title>Path</title>
    <desc>Created with Sketch.</desc>
    <defs>
        <path d="M630.163521,823.393314 L145.34659,1361.83707 C115.782539,1394.67127 65.1987595,1397.32225 32.3645551,1367.7582 C15.6436446,1352.70263 6.03583441,1331.30167 5.89653678,1308.80189 L0.00155149646,356.625938 C-0.230854936,319.086952 25.6696224,286.435343 62.276479,278.118638 C135.450257,261.4943 201.537052,220.419167 260.536863,154.893238 C278.834503,134.57165 300.305454,107.617013 324.949716,74.0293279 L324.949669,74.0292935 C384.158413,-6.66635331 497.573331,-24.0849296 578.268978,35.1238145 C624.48028,69.0303917 651.927793,122.799213 652.282634,180.114259 L655.847122,755.861159 C656.001434,780.78607 646.841862,804.87014 630.163521,823.393314 Z" id="path-1"></path>
    </defs>
    <g id="DESIGN" stroke="none" stroke-width="1" fill="none" fill-rule="evenodd">
        <g id="CONNEX-HOME-GRADIENT" transform="translate(0.000000, -3167.000000)">
            <g id="RESOURCES" transform="translate(-141.000000, 3166.000000)">
                <g id="resources_shape" transform="translate(0.185097, 0.625931)">
                    <g id="Path" transform="translate(0.070046, 0.945819)">
                        <mask id="mask-2" fill="white">
                            <use xlink:href="#path-1"></use>
                        </mask>
                        <use id="Mask" fill="#FFD002" xlink:href="#path-1"></use>
                        <path d="M537.163521,856.393314 L52.3465897,1394.83707 C22.7825393,1427.67127 -27.8012405,1430.32225 -60.6354449,1400.7582 C-77.3563554,1385.70263 -86.9641656,1364.30167 -87.1034632,1341.80189 L-92.9984485,389.625938 C-93.2308549,352.086952 -67.3303776,319.435343 -30.723521,311.118638 C42.4502571,294.4943 108.537052,253.419167 167.536863,187.893238 C185.834503,167.57165 207.305454,140.617013 231.949716,107.029328 L231.949669,107.029294 C291.158413,26.3336467 404.573331,8.91507042 485.268978,68.1238145 C531.48028,102.030392 558.927793,155.799213 559.282634,213.114259 L562.847122,788.861159 C563.001434,813.78607 553.841862,837.87014 537.163521,856.393314 Z" fill="#F9B800" opacity="0.353631882" mask="url(#mask-2)"></path>
                    </g>
                </g>
            </g>
        </g>
    </g>
</svg>